<?xml version="1.0" encoding="utf-8"?>
<!-- Generator: Adobe Illustrator 16.0.0, SVG Export Plug-In . SVG Version: 6.00 Build 0)  -->
<!DOCTYPE svg PUBLIC "-//W3C//DTD SVG 1.1//EN" "http://www.w3.org/Graphics/SVG/1.1/DTD/svg11.dtd">
<svg version="1.1" xmlns="http://www.w3.org/2000/svg" xmlns:xlink="http://www.w3.org/1999/xlink" x="0px" y="0px" width="100px"
	 height="100px" viewBox="0 0 100 100" style="enable-background:new 0 0 100 100;" xml:space="preserve">
<g id="bg" style="display:none;">
</g>
<g id="animal">
	<g>
		<g>
			<path style="fill-rule:evenodd;clip-rule:evenodd;" d="M74.032,16.572c-2.781,2.889-8.569,4.7-7.435,5.933
				c2.121,2.308,9.791-0.229,12.103,1.948c-1.036,0.825-8.943,3.671-9.923,4.451c1.149,0.882,8.299,0.998,11.855,4.94
				c-4.716,1.011-6.152,1.567-9.475,4.04c0.385,0.799,9.025,1.855,11.035,5.024c-3.325,1.269-9.296,2.528-10.293,4.102
				c-1.614,2.54-3.995,2.149-5.831,4.828c7.681,2.372,10.463,9.447,14.563,12.701c-3.339,0.604-9.506-2.492-12.72-1.911
				c0.395,2.846,1.381,3.507,3.625,7.105c-3.215,0.554-7.937-4.069-9.272-2.955c-1.378,3.609-0.082,8.84,0.431,11.848
				c-2.146-0.503-5.426-2.41-9.898-3.47c-2.653,2.565-2.656,6.128-3.665,7.992c-0.714-1.352-2.816-3.743-3.429-4.902
				c-0.89,1.631-1.097,4.151-4.479,6.753c-3.849-3.86-3.056-10.329-3.289-14.46c-0.27-4.793-0.062-9.616-0.062-14.691
				c-7.868-2.132-6.724-11.725-5.214-18.085c1.426-6.01,6.123-9.577,12.179-10.276c1.578-0.181,2.415-0.791,3.166-2.251
				c1.979-3.853,7.267-8.453,11.956-9.869C62.281,14.666,70.246,14.917,74.032,16.572z"/>
			<path style="fill-rule:evenodd;clip-rule:evenodd;" d="M21.589,36.864c3.188-5.108,7.447-3.1,13.523-6.251
				c-3.581,4.356-4.119,10.636-4.119,10.636s-8.984,2.613-13.187,2.172C17.807,42.925,20.274,38.969,21.589,36.864z"/>
			<path style="fill-rule:evenodd;clip-rule:evenodd;" d="M30.935,51.64c0.207,4.37,1.26,16.084-1.631,15.925
				C24.398,67.295,30.646,51.619,30.935,51.64z"/>
			<path style="fill-rule:evenodd;clip-rule:evenodd;" d="M30.712,49.538c-2.828-1.566-7.062-3.2-9.909-4.777
				c3.186-0.453,6.628-0.749,9.909-1.84C30.564,44.544,30.393,46.229,30.712,49.538z"/>
			<path style="fill-rule:evenodd;clip-rule:evenodd;" d="M32.324,53.717c0.914,2.58,3.494,7.679,2.052,10.823
				C31.951,62.852,32.067,53.782,32.324,53.717z"/>
		</g>
		<g>
			<circle style="fill:#FFFFFF;" cx="46.531" cy="39.303" r="8.301"/>
			<circle cx="46.531" cy="39.088" r="4.42"/>
		</g>
	</g>
</g>
</svg>
