<?xml version="1.0" encoding="utf-8"?>
<!-- Generator: Adobe Illustrator 16.0.0, SVG Export Plug-In . SVG Version: 6.00 Build 0)  -->
<!DOCTYPE svg PUBLIC "-//W3C//DTD SVG 1.1//EN" "http://www.w3.org/Graphics/SVG/1.1/DTD/svg11.dtd">
<svg version="1.1" xmlns="http://www.w3.org/2000/svg" xmlns:xlink="http://www.w3.org/1999/xlink" x="0px" y="0px" width="100px"
	 height="100px" viewBox="0 0 100 100" style="enable-background:new 0 0 100 100;" xml:space="preserve">
<g id="bg" style="display:none;">
</g>
<g id="animal">
	<g>
		<g>
			<path d="M69.812,16.858c-2.387,0-4.645,0.808-6.654,2.243c-3.752-1.491-8.054-2.339-12.627-2.339
				c-4.854,0-9.398,0.959-13.309,2.625c-2.104-1.612-4.496-2.529-7.035-2.529C21.799,16.858,15,26.811,15,39.09
				c0,6.775,2.07,12.844,5.336,16.921c1.486,1.854,9.165,0.173,15.633-3.822c0.764,0.368,7.073,2.404,7.407,2.473
				c0.56,1.606,1.521,2.962,2.729,3.897c-0.292,4.981-1.15,10.365-2.955,12.873c-2.156,2.994-1.893,5.286-6.767,2.665L32.5,82.682
				c2.492,1.342,7.017-0.108,9.475-0.573c5.36-1.016,6.11-3.907,9.113-8.457c3.361-5.091,2.781-9.521,2.932-15.192
				c1.1-0.892,1.98-2.135,2.528-3.597c0.372-0.064,7.048-1.984,7.945-2.394c6.366,3.794,13.72,5.353,15.17,3.542
				C82.93,51.934,85,45.865,85,39.09C85,26.811,78.2,16.858,69.812,16.858z"/>
			<g>
				<g>
					<circle style="fill:#FFFFFF;" cx="41.85" cy="34.663" r="6.904"/>
					<path d="M45.526,34.663c0,2.03-1.647,3.678-3.678,3.678s-3.677-1.647-3.677-3.678c0-2.028,1.646-3.676,3.677-3.676
						S45.526,32.635,45.526,34.663z"/>
				</g>
				<g>
					<circle style="fill:#FFFFFF;" cx="56.671" cy="34.872" r="6.033"/>
					<circle cx="56.671" cy="34.872" r="3.213"/>
				</g>
			</g>
		</g>
		<g>
			<g>
				<path style="fill:#FFFFFF;" d="M33.457,66.465C37.928,60.245,38.967,52,38.916,49h4.497C43.422,49,42.771,64.675,33.457,66.465z
					"/>
			</g>
			<g>
				<path style="fill:#FFFFFF;" d="M66.543,66.465C62.072,60.245,61.033,52,61.084,49h-4.496C56.578,49,57.229,64.675,66.543,66.465
					z"/>
			</g>
		</g>
	</g>
</g>
</svg>
