<?xml version="1.0" encoding="utf-8"?>
<!-- Generator: Adobe Illustrator 16.0.0, SVG Export Plug-In . SVG Version: 6.00 Build 0)  -->
<!DOCTYPE svg PUBLIC "-//W3C//DTD SVG 1.1//EN" "http://www.w3.org/Graphics/SVG/1.1/DTD/svg11.dtd">
<svg version="1.1" xmlns="http://www.w3.org/2000/svg" xmlns:xlink="http://www.w3.org/1999/xlink" x="0px" y="0px" width="100px"
	 height="100px" viewBox="0 0 100 100" style="enable-background:new 0 0 100 100;" xml:space="preserve">
<g id="bg" style="display:none;">
</g>
<g id="animal">
	<g>
		<path d="M81.176,66.582C83.62,62.875,85,58.676,85,54.227c0-8.281-4.779-15.695-12.312-20.676l-2.426-14.932l-11.424,9.326
			c-2.824-0.568-5.785-0.873-8.838-0.873c-3.353,0-6.595,0.365-9.665,1.049l-17.192-8.561l-0.533,17.762
			C17.848,41.961,15,47.836,15,54.227c0,5.395,2.028,10.424,5.525,14.65c6.388-1.105,13.45-2.193,22.728-3.301
			c-8.656,1.865-15.235,3.252-21.741,4.428c1.68,1.822,3.644,3.475,5.839,4.924c5.534-2.518,9.931-4.773,18.374-7.422
			c-6.973,3.709-11.021,5.75-17.506,7.975c5.978,3.693,13.547,5.9,21.781,5.9c8.708,0,16.672-2.469,22.795-6.551
			c-4.269-1.334-9.01-2.883-14.584-4.758c5.856,1.674,10.813,2.979,15.444,4.166c2.408-1.715,4.508-3.688,6.223-5.863
			c-5.461-0.271-11.539-0.732-19.021-1.588C68.879,66.592,75.151,66.477,81.176,66.582z"/>
		<g>
			<g>
				<circle style="fill:#FFFFFF;" cx="38.965" cy="50.164" r="11.478"/>
				<path d="M45.078,50.164c0,3.375-2.738,6.113-6.113,6.113s-6.113-2.738-6.113-6.113c0-3.373,2.738-6.111,6.113-6.111
					S45.078,46.791,45.078,50.164z"/>
			</g>
			<g>
				<circle style="fill:#FFFFFF;" cx="63.605" cy="50.51" r="10.029"/>
				<circle cx="63.605" cy="50.51" r="5.341"/>
			</g>
		</g>
		<path style="fill-rule:evenodd;clip-rule:evenodd;fill:#FFFFFF;" d="M56.382,65.432c-1.797-1.662-5.907-1.646-7.404-0.818
			c-0.585,0.322-0.731,1.402-0.17,1.9c0.636,0.562,1.47,0.348,2.203,1.506c0.511,0.807,1.527,0.965,2.096,0.58
			c0.506-0.344,0.85-0.684,1.418-0.91c0.45-0.18,1.476-0.016,1.894-0.621C56.701,66.656,57.114,66.109,56.382,65.432z"/>
	</g>
</g>
</svg>
