<?xml version="1.0" encoding="utf-8"?>
<!-- Generator: Adobe Illustrator 16.0.0, SVG Export Plug-In . SVG Version: 6.00 Build 0)  -->
<!DOCTYPE svg PUBLIC "-//W3C//DTD SVG 1.1//EN" "http://www.w3.org/Graphics/SVG/1.1/DTD/svg11.dtd">
<svg version="1.1" xmlns="http://www.w3.org/2000/svg" xmlns:xlink="http://www.w3.org/1999/xlink" x="0px" y="0px" width="100px"
	 height="100px" viewBox="0 0 100 100" style="enable-background:new 0 0 100 100;" xml:space="preserve">
<g id="bg" style="display:none;">
</g>
<g id="animal">
	<g>
		<path style="fill-rule:evenodd;clip-rule:evenodd;" d="M84.904,63.815c-0.152-0.369-0.452-0.796-0.795-0.948
			c-1.792-0.791-3.634-0.824-5.493-0.185c-0.495,0.169-1.014,0.272-1.528,0.377c-0.107,0.021-0.33-0.064-0.348-0.137
			c-0.031-0.134,0.001-0.341,0.092-0.437c0.699-0.74,1.424-1.439,2.476-1.685c0.632-0.146,1.247-0.367,1.862-0.578
			c0.49-0.167,0.741-1.455,0.364-1.817c-0.056-0.053-0.14-0.114-0.206-0.111c-0.817,0.05-1.642-0.181-2.445,0.25
			c-1.767,0.949-3.589,1.794-4.975,3.323c-0.21,0.231-0.662,0.243-1.049,0.373c0-0.749,0.053-1.344-0.023-1.921
			c-0.039-0.302-0.248-0.73-0.486-0.818c-0.303-0.112-0.838-0.067-1.049,0.138c-0.527,0.514-0.93,1.156-1.391,1.759
			c-1.412-0.02-2.078-1.213-2.93-2.051c-0.439-0.432-0.607-1.171-0.822-1.798c-0.589-1.721-1.1-3.469-1.717-5.179
			c-0.342-0.947-0.354-1.854,0.008-2.76c0.48-1.207,1.123-2.361,1.494-3.599c0.642-2.135,1.135-4.317,1.678-6.48
			c0.344-1.375,0.521-2.813,1.033-4.12c0.768-1.96,1.762-3.833,2.668-5.74c0.843-1.774,1.738-3.525,2.531-5.321
			c0.453-1.025,0.533-2.121,0.061-3.2c-0.069-0.161-0.117-0.366-0.084-0.533c0.242-1.232-0.451-2.129-1.072-3.048
			c-0.201-0.298-0.424-0.611-0.71-0.814c-1.734-1.23-3.66-1.307-5.653-0.852c-1.188,0.271-2.361,0.617-3.559,0.831
			c-0.557,0.099-1.17,0.039-1.729-0.083c-0.882-0.191-1.729-0.547-2.614-0.733c-0.721-0.153-1.472-0.098-2.104,0.363
			c-0.312,0.226-0.596,0.502-0.849,0.794c-0.479,0.553-1.014,1.085-1.366,1.715c-0.649,1.164-1.165,2.403-1.772,3.592
			c-0.711,1.385-1.643,2.618-2.816,3.642c-1.296,1.129-2.666,2.173-3.945,3.32c-1.787,1.603-3.402,3.402-5.482,4.667
			c-0.965,0.587-1.865,1.278-2.825,1.873c-1.259,0.78-2.608,1.428-3.812,2.285c-1.603,1.142-3.134,2.403-4.401,3.926
			c-0.986,1.185-1.654,2.588-1.834,4.105c-0.236,2.015-1.181,3.579-2.549,4.979c-0.82,0.838-1.631,1.69-2.379,2.59
			c-1.213,1.46-2.175,2.985-3.389,4.444c-1.352,1.627-3.338,3.211-3.967,4.814c0,0.732,0,1.465,0,2.196
			c0,1.042,0.863,1.926,1.691,2.661c0.213,0.188,0.443,0.372,0.711,0.371c0.856-0.006,1.68,0.173,2.52-0.282
			c0.611-0.331,0.952-0.059,1.095,0.598c0.058,0.27,0.163,0.536,0.298,0.78c0.863,1.553,2.373,2.295,3.853,3.084
			c0.186,0.1,0.464,0.311,0.447,0.438c-0.028,0.23-0.198,0.543-0.396,0.637c-0.857,0.41-1.743,0.762-2.624,1.119
			c-0.619,0.251-1.207,1.066-1.225,1.74c-0.062,2.371,1.5,4.252,3.84,4.607c1.525,0.232,3.066,0.381,4.576,0.687
			c2.306,0.466,4.59,1.037,6.885,1.558c1.207,0.275,2.416,0.543,3.625,0.803c0.594,0.127,1.193,0.335,1.789,0.328
			c2.805-0.029,5.61-0.086,8.374-0.656c3.243-0.672,6.489-1.132,9.749-0.09c0.15,0.048,0.325,0.047,0.484,0.029
			c0.606-0.062,0.894-0.435,0.824-1.042c-0.082-0.722-0.915-1.642-1.65-1.738c-0.559-0.073-1.128-0.069-1.693-0.076
			c-0.943-0.011-1.887-0.003-2.83-0.003c0.115-0.207,0.277-0.317,0.453-0.347c0.882-0.142,1.77-0.249,2.65-0.393
			c2.195-0.356,4.402-0.499,6.623-0.423c0.197,0.006,0.43,0.018,0.581,0.122c0.802,0.554,1.714,0.52,2.591,0.426
			c0.936-0.1,1.312-0.509,1.357-1.327c0.053-0.977-0.485-1.48-1.767-1.531c-2.132-0.086-4.269,0.002-6.403,0.017
			c-0.369,0.002-0.738,0-1.107,0c-0.016-0.053-0.031-0.105-0.048-0.158c0.138-0.071,0.269-0.182,0.414-0.206
			c1.06-0.18,2.121-0.353,3.185-0.506c0.905-0.129,1.818-0.204,2.721-0.35c0.832-0.136,1.374-1.223,0.975-1.982
			c-0.115-0.221-0.452-0.461-0.688-0.46c-0.929,0.003-1.859,0.089-2.788,0.161c-0.669,0.051-1.333,0.155-2.002,0.187
			c-0.763,0.036-0.927-0.128-1.057-0.86c-0.038-0.217-0.06-0.466-0.181-0.634c-0.751-1.047-1.584-1.972-2.88-2.414
			c-1.958-0.665-3.884-1.425-5.821-2.153c-0.509-0.19-0.607-0.813-0.166-1.111c0.771-0.52,1.586-0.978,2.339-1.522
			c0.752-0.544,1.534-1.085,2.151-1.765c0.676-0.744,1.209-1.625,1.74-2.485c0.279-0.452,0.6-0.595,0.996-0.432
			c0.381,0.744,0.771,1.473,1.278,2.108c0.505,0.633,1.208,1.113,1.679,1.766c0.867,1.2,2.059,1.957,3.352,2.525
			c2.754,1.21,5.615,1.895,8.674,1.875c2.176-0.015,4.419-0.492,6.547,0.484c0.21,0.096,0.758-0.107,0.875-0.32
			c0.512-0.938-0.166-2.193-1.243-2.391c-0.858-0.156-1.728-0.264-2.587-0.42c-0.141-0.025-0.259-0.184-0.387-0.28
			c0.109-0.136,0.199-0.366,0.332-0.396c1.266-0.268,2.529-0.562,3.811-0.727c0.86-0.109,1.746-0.015,2.621-0.021
			C84.866,64.827,85.171,64.461,84.904,63.815z"/>
		<g>
			<circle style="fill:#FFFFFF;" cx="60.774" cy="24.708" r="4.153"/>
			<circle cx="60.774" cy="24.708" r="2.212"/>
		</g>
	</g>
</g>
</svg>
