<?xml version="1.0" encoding="utf-8"?>
<!-- Generator: Adobe Illustrator 16.0.0, SVG Export Plug-In . SVG Version: 6.00 Build 0)  -->
<!DOCTYPE svg PUBLIC "-//W3C//DTD SVG 1.1//EN" "http://www.w3.org/Graphics/SVG/1.1/DTD/svg11.dtd">
<svg version="1.1" xmlns="http://www.w3.org/2000/svg" xmlns:xlink="http://www.w3.org/1999/xlink" x="0px" y="0px" width="100px"
	 height="100px" viewBox="0 0 100 100" style="enable-background:new 0 0 100 100;" xml:space="preserve">
<g id="bg" style="display:none;">
	<g style="display:inline;">
		<g>
			<path style="fill:#3FB4FF;" d="M100,49.998C100,77.607,77.62,100,50.006,100C22.399,100,0,77.607,0,49.998
				C0,22.404,22.399,0,50.006,0C77.62,0,100,22.404,100,49.998z"/>
		</g>
	</g>
</g>
<g id="animal">
	<path d="M78.559,33.167c3.303-1.294,5.562-4.102,5.562-7.365c0-4.49-4.334-8.13-9.679-8.13c-3.552,0-6.543,1.609-8.201,4.005
		c-3.987-2.229-8.48-3.692-13.271-4.177c-0.389-0.039-0.779-2.072-1.172-2.099c-0.43-0.028-0.861,1.951-1.295,1.938
		c-0.343-0.01-0.688-0.015-1.033-0.015c-0.353,0-1.704-3.994-2.054-3.983c-0.447,0.014,0.107,4.036-0.335,4.066
		c-4.952,0.337-9.61,1.714-13.749,3.912c-1.734-2.192-4.684-3.648-8.052-3.648c-5.345,0-9.679,3.64-9.679,8.13
		c0,3.099,2.08,5.77,5.115,7.141c-3.251,5.091-5.137,11.104-5.137,17.55c0,7.628,5.786,16.004,10.545,22.416
		c6.669,8.986,13.929,13.75,23.345,13.75c8.774,0,16.765-5.761,23.405-13.875c5.492-6.712,10.481-13.999,10.481-22.291
		c0-3.749-0.645-7.349-1.816-10.71C80.945,37.441,79.993,35.222,78.559,33.167z"/>
	<path style="fill-rule:evenodd;clip-rule:evenodd;fill:#FFFFFF;" d="M50.25,21.408c-26.125,0-32.084,22.936-32.084,28.082
		c0,13.379,10.125,13.983,14.959,21.668c4.484,7.13,4.986,12.686,16.866,12.57c10.714,0.34,12.398-7.056,16.884-14.07
		c4.89-7.649,13.031-7.391,13.708-20.001C81.375,34.908,68.5,21.408,50.25,21.408z"/>
	<path style="fill-rule:evenodd;clip-rule:evenodd;" d="M51.867,32.211c0,1.95-1.046,2.43-2.338,2.43s-2.339-0.479-2.339-2.43
		c0-1.951,1.047-3.531,2.339-3.531S51.867,30.26,51.867,32.211z"/>
	<path style="fill-rule:evenodd;clip-rule:evenodd;" d="M77.657,21.812c0,0,6.065,6.706-0.606,9.603
		c-5.864-1.326-5.562-4.305-5.562-4.305S75.333,30.338,77.657,21.812z"/>
	<path style="fill-rule:evenodd;clip-rule:evenodd;" d="M22.015,22.031c0,0-6.226,6.661,0.623,9.538
		c6.02-1.316,5.709-4.276,5.709-4.276S24.401,30.5,22.015,22.031z"/>
	<path style="fill-rule:evenodd;clip-rule:evenodd;" d="M69.483,34c0,1-4.973,1-4.973,0c0-2,1.113-3.755,2.485-3.755
		C68.37,30.245,69.483,32,69.483,34z"/>
	<path style="fill-rule:evenodd;clip-rule:evenodd;fill:#FFFFFF;" d="M73.011,33.612c-1.221,0.281-2.726-4.255-1.614-3.602
		c3.229,1.897,7.604-3.978,9.325-3.646C81.793,26.571,80.06,31.988,73.011,33.612z"/>
	<path style="fill-rule:evenodd;clip-rule:evenodd;" d="M81.056,53c0,1-1.465,4.94-3.272,4.94S74.511,54,74.511,53
		C74.511,49,81.056,49,81.056,53z"/>
	<path style="fill-rule:evenodd;clip-rule:evenodd;" d="M61.216,21.479c2.045,0.394,3.718,0.625,3.306,2.773
		c-0.413,2.148-2.405,3.568-4.45,3.176c-2.048-0.394-3.369-2.452-2.956-4.601S59.17,21.086,61.216,21.479z"/>
	<path style="fill-rule:evenodd;clip-rule:evenodd;" d="M81.018,42.302c1.298,2.156,0.946,4.75-0.784,5.793
		c-1.734,1.045-6.438-8.183-4.706-9.228C77.26,37.824,79.716,40.146,81.018,42.302z"/>
	<path style="fill-rule:evenodd;clip-rule:evenodd;" d="M69.183,51.964c1.805-0.186,3.368,0.632,3.492,1.828
		c0.123,1.196-1.24,2.316-3.046,2.503S67.375,52.151,69.183,51.964z"/>
	<path style="fill-rule:evenodd;clip-rule:evenodd;" d="M57.284,32.577c-1.725-0.176-2.064-1.035-1.961-2.044
		c0.102-1.007,0.61-1.779,2.334-1.604c1.725,0.177,3.037,1.136,2.934,2.146C60.489,32.083,59.008,32.754,57.284,32.577z"/>
	<ellipse style="fill-rule:evenodd;clip-rule:evenodd;" cx="72.056" cy="59.157" rx="1.667" ry="1.514"/>
	<path style="fill-rule:evenodd;clip-rule:evenodd;" d="M30.237,34c0,1,4.974,1,4.974,0c0-2-1.113-3.755-2.486-3.755
		C31.351,30.245,30.237,32,30.237,34z"/>
	<path style="fill-rule:evenodd;clip-rule:evenodd;" d="M17.648,53c0,1,1.472,4.965,3.289,4.965S24.227,54,24.227,53
		C24.227,49,17.648,49,17.648,53z"/>
	<path style="fill-rule:evenodd;clip-rule:evenodd;" d="M39.492,21.375c-2.073,0.855-3.762,1.459-3.653,3.685
		c0.108,2.227,1.876,3.336,3.952,2.481c2.076-0.857,3.671-3.354,3.563-5.58C43.248,19.732,41.569,20.521,39.492,21.375z"/>
	<path style="fill-rule:evenodd;clip-rule:evenodd;" d="M19.399,41.877c-1.056,1.954-0.631,4.389,0.95,5.438
		c1.583,1.051,5.344-7.349,3.762-8.4C22.53,37.866,20.456,39.923,19.399,41.877z"/>
	<path style="fill-rule:evenodd;clip-rule:evenodd;" d="M29.035,51.907c-1.668-0.173-3.112,0.583-3.227,1.688
		c-0.113,1.104,1.146,2.139,2.812,2.311C30.29,56.078,30.703,52.079,29.035,51.907z"/>
	<path style="fill-rule:evenodd;clip-rule:evenodd;" d="M41.438,33.445c1.724-0.176,2.063-1.035,1.961-2.043
		c-0.104-1.007-0.612-1.78-2.335-1.604c-1.725,0.177-3.037,1.136-2.934,2.146C38.231,32.95,39.713,33.622,41.438,33.445z"/>
	<ellipse style="fill-rule:evenodd;clip-rule:evenodd;" cx="26.518" cy="59.199" rx="1.713" ry="1.555"/>
	<path style="fill-rule:evenodd;clip-rule:evenodd;" d="M56.798,39.949c-0.722-0.901-0.236-1.928-0.36-3.963
		c-2.09,1.946-4.206,11.983-2.692,17.387c0.458,1.635,7.15,0.561,10.653,2.807c-1.19,1.524-2.648,0.648-3.243,2.918
		c1.06-0.821,4.518-1.283,4.781-1.1c-0.311,2.844-3.849,3.538-5.7,5.523c2.22-0.734,4.442-1.469,7.061-2.332
		c-0.317,3.53-4.184,3.391-5.91,5.299c1.974-0.714,3.95-1.428,6.027-2.18c0.062,0.808-1.34,2.842-1.34,2.842s4.431-1.784,3.08-7.62
		c-0.654-2.823-3.056-4.396-6.877-5.71c4.661-0.613,7.733-5.916,10.984-7.692C65.209,37.265,60.67,37.968,56.798,39.949z"/>
	<path style="fill-rule:evenodd;clip-rule:evenodd;" d="M42.59,38.561c0.715-0.895,0.09-2.198,0.215-4.217
		c2.072,1.93,7.062,10.383,3.034,19.029c-0.71,1.526-6.871,1.123-10.6,2.786c1.18,1.512,2.626,0.644,3.217,2.896
		c-1.052-0.815-4.481-1.273-4.742-1.092c0.308,2.82,3.816,3.51,5.654,5.479c-2.202-0.728-4.406-1.457-7.005-2.312
		c0.315,3.5,4.151,3.362,5.863,5.256c-1.957-0.709-3.919-1.417-5.978-2.163c-0.062,0.8,1.329,2.817,1.329,2.817
		s-4.396-1.769-3.056-7.558c0.648-2.8,1.148-4.033,4.939-5.338c-4.623-0.608-6.73-7.222-10.098-7.65
		C33.351,37.702,35.799,35.701,42.59,38.561z"/>
	<g>
		<circle style="fill:#FFFFFF;" cx="39.175" cy="46.399" r="6.508"/>
		<circle cx="39.174" cy="46.399" r="3.466"/>
	</g>
	<g>
		<path style="fill:#FFFFFF;stroke:#000000;stroke-miterlimit:10;" d="M66.401,46.604c0,3.145-2.549,5.693-5.696,5.693
			c-3.144,0-5.695-2.549-5.695-5.693c0-3.147,2.552-5.699,5.695-5.699C63.853,40.905,66.401,43.457,66.401,46.604z"/>
		<circle cx="60.706" cy="46.604" r="3.035"/>
	</g>
	<path style="fill-rule:evenodd;clip-rule:evenodd;" d="M62.75,70.158c-1.297,1.374-2.052,4.702-2.351,6.197
		c-0.299,1.494-1.022-4.133-1.774-6.072c-0.681-1.762-7.256-1.77-8.176-1.874l-0.199-1.272c5.151-0.76,6.516-5.116,5.188-5.116
		c-1.223,0,1.178,2.252-4.177,2.741c0.324-0.635,0.221-0.938,0.81-1.807c1.297-1.908,3.271-1.557,3.319-4.564
		c0.043-2.638-2.981,1.082-5.847,1.082c-2.867,0-5.969-3.72-5.928-1.082c0.049,3.008,1.953,2.656,3.25,4.564
		c0.589,0.868,0.535,1.172,0.858,1.807c-5.352-0.489-2.753-2.741-3.976-2.741c-1.327,0-1.594,4.356,5.03,5.116l-0.169,1.272
		c-2.761,0.104-7.303-0.013-7.984,1.749c-0.753,1.939-1.656,7.987-1.955,6.493c-0.299-1.495-1.286-4.708-2.545-6.118
		c-2.876-3.222-15.376-7.876-15.376-7.876s10.836,6.891,12.626,11.126c1.792,4.236,2.878,6.338,4.25,7.875
		c2.229,2.497,8.352,4.246,11.75,4.25c3.454,0.004,9.773-2.626,12-5.125c1.378-1.545,3.709-3.514,5.5-7.75s9.794-9.046,9.794-9.046
		S65.352,67.402,62.75,70.158z M43.317,71.199c0.839-0.709,6.237,0.665,6.237,0.665s5.283-1.374,6.122-0.665
		c0.797,0.672-0.198,3.447-0.198,3.447s-0.886-0.872-1.668-1.039c-0.732,0.148-1.966,0.477-3.085,0.695
		c-0.029-0.014-0.069-0.007-0.116,0.021c-0.42,0.078-0.815,0.137-1.16,0.166c-0.351-0.029-0.747-0.088-1.168-0.169
		c-0.046-0.023-0.085-0.031-0.112-0.019c-1.115-0.219-2.341-0.546-3.073-0.694c-0.78,0.167-1.638,1.039-1.638,1.039
		S42.521,71.871,43.317,71.199z M56.72,81.999c-0.407,0.769-3.481,1.764-7.461,1.764c-3.235,0-6.694-0.964-7.102-1.733
		c-0.729-1.378,0.297-6.038,0.297-6.038l1.743,3.854l1.918-1.563L47.982,80h2.917l1.865-1.825l1.917,1.765l1.743-3.912
		C56.425,76.027,57.45,80.62,56.72,81.999z"/>
	<path style="fill-rule:evenodd;clip-rule:evenodd;" d="M44.819,25.734c-1.506-1.791,2.507-7.765,5.011-7.765
		c2.506,0,6.278,5.83,5.012,7.765C53.577,27.669,46.326,27.525,44.819,25.734z"/>
	<path style="fill-rule:evenodd;clip-rule:evenodd;" d="M70.298,66.297c-1.106-1.315,1.841-5.702,3.68-5.702
		c1.841,0,4.612,4.281,3.681,5.702C76.729,67.719,71.404,67.613,70.298,66.297z"/>
	<path style="fill-rule:evenodd;clip-rule:evenodd;" d="M21.719,66.354c-1.045-1.242,1.738-5.385,3.475-5.385
		c1.738,0,4.354,4.043,3.476,5.385C27.792,67.696,22.764,67.597,21.719,66.354z"/>
	<path style="fill-rule:evenodd;clip-rule:evenodd;fill:#FFFFFF;" d="M27.009,33.612c1.221,0.281,2.726-4.255,1.614-3.602
		c-3.229,1.897-7.604-3.978-9.325-3.646C18.227,26.571,19.96,31.988,27.009,33.612z"/>
	<path style="fill-rule:evenodd;clip-rule:evenodd;" d="M22.947,33.83c-0.695,1.154-0.318,2.657,0.842,3.356
		c1.161,0.699,2.666,0.331,3.361-0.824c0.696-1.156,0.235-3.471-0.925-4.17C25.064,31.492,23.645,32.673,22.947,33.83z"/>
	<path style="fill-rule:evenodd;clip-rule:evenodd;" d="M76.778,33.83c0.694,1.154,0.319,2.657-0.842,3.356
		c-1.162,0.699-2.666,0.331-3.362-0.824c-0.696-1.156-0.235-3.471,0.926-4.17C74.66,31.492,76.081,32.673,76.778,33.83z"/>
</g>
</svg>
