<?xml version="1.0" encoding="utf-8"?>
<!-- Generator: Adobe Illustrator 16.0.0, SVG Export Plug-In . SVG Version: 6.00 Build 0)  -->
<!DOCTYPE svg PUBLIC "-//W3C//DTD SVG 1.1//EN" "http://www.w3.org/Graphics/SVG/1.1/DTD/svg11.dtd">
<svg version="1.1" xmlns="http://www.w3.org/2000/svg" xmlns:xlink="http://www.w3.org/1999/xlink" x="0px" y="0px" width="100px"
	 height="100px" viewBox="0 0 100 100" style="enable-background:new 0 0 100 100;" xml:space="preserve">
<g id="bg" style="display:none;">
</g>
<g id="animal">
	<g>
		<path d="M24.734,37.855c-2.623,0-4.751,2.129-4.751,4.749c0,2.625,2.128,4.751,4.751,4.751s4.751-2.126,4.751-4.751
			C29.485,39.984,27.357,37.855,24.734,37.855z"/>
		<g>
			<path d="M34.27,24c0,0,0.001,0,0.002,0C34.258,24,34.255,24,34.27,24z"/>
			<path d="M78.317,65.364l-0.261-0.028c-3.223-0.768-4.917-1.317-7.489-0.664l-0.197-0.062c-2.641-3.155-5.035-2.896-6.446-3.562
				c-1.33-7.132-10.607-6.886-12.227-5.834c-3.016-0.123-3.959,2.569-3.959,2.569c-1.422-0.237-2.067,0.679-2.367,1.36
				c-0.28,0.041-1.602,0.581-1.77,0.038c0.542-0.625,1.363-4.899,1.839-7.704c0.076,0.002,0.155,0.003,0.23,0.003
				c4.746,0,8.607-3.86,8.607-8.606c0-3.587-2.207-6.667-5.331-7.958c-0.105-0.345-0.177-0.54-0.177-0.54
				c0.082-7.092-7.703-9.025-13.083-9.294c-0.106-0.005-0.778-3.139-0.882-3.144C34.585,21.93,34.481,24,34.271,24
				c0.056,0,0.279,0,0.217,0c-0.514,0-1.078,0.563-1.672,0.633c-0.278,0.032-1.669-4.468-1.958-4.42
				c-0.261,0.042,0.221,5.023-0.048,5.078c-4.512,0.916-9.559,3.613-9.64,8.188C17.561,34.905,15,38.46,15,42.571
				c0,4.787,3.475,8.795,8.035,9.602c-0.778,2.972-1.177,5.633,1.586,8.66c0.003,0.001,0.007,0.005,0.01,0.006l-0.024,0.33
				c-1.646,9.175,0.891,11.088,5.015,12.968l0.187,0.238c2.104,4.823,6.565,6.166,11.897,4.769l0.234,0.005
				c5.053,1.108,8.409,0.519,11.435-4.45c4.926-1.628,3.553-5.45,3.557-5.448c0,0,1.854,1.878,3.271,1.625
				c1.729,1.669,5.305,1.752,8.521,1.09c4.717,1.061,7.014-0.539,9.297-1.857l0,0c3.721-0.624,7.042-2.448,6.979-3.874
				C84.97,65.559,81.931,65.392,78.317,65.364z"/>
		</g>
		<circle cx="45.671" cy="42.874" r="4.15"/>
		<path style="fill:#FFFFFF;" d="M55.778,57.243c-1.575-0.185-2.792,0.125-2.771-0.062c0.022-0.187,1.178-0.675,2.753-0.492
			c1.576,0.183,2.976,0.969,2.955,1.155C58.691,58.03,57.354,57.424,55.778,57.243z"/>
		<path style="fill:#FFFFFF;" d="M60.202,70.875"/>
		<path style="fill:#FFFFFF;" d="M41.865,34.258c-1.773,0.7-2.77,2.008-2.902,1.676c-0.131-0.332,0.658-1.905,2.431-2.605
			c1.774-0.701,3.861-0.263,3.992,0.068C45.515,33.728,43.64,33.557,41.865,34.258z"/>
		<path style="fill:#FFFFFF;" d="M30.718,33.113c2.074,1.269,2.905,3.353,3.202,2.871c0.295-0.482-0.166-2.941-2.24-4.208
			c-2.074-1.267-4.98-0.863-5.275-0.382C26.111,31.875,28.645,31.846,30.718,33.113z"/>
		<g>
			<rect x="29" y="53" style="fill:#FFFFFF;" width="3" height="5"/>
			<rect x="33" y="53" style="fill:#FFFFFF;" width="2" height="5"/>
		</g>
		<path style="fill:#FFFFFF;" d="M24.734,34.497c-4.47,0-8.106,3.636-8.106,8.107c0,4.47,3.637,8.107,8.106,8.107
			c4.471,0,8.107-3.637,8.107-8.107C32.842,38.133,29.205,34.497,24.734,34.497z M24.734,47.355c-2.623,0-4.751-2.126-4.751-4.751
			c0-2.62,2.128-4.749,4.751-4.749s4.751,2.129,4.751,4.749C29.485,45.229,27.357,47.355,24.734,47.355z"/>
		<path style="fill:#FFFFFF;" d="M45.671,35.892c-3.851,0-6.98,3.131-6.98,6.981c0,3.849,3.13,6.98,6.98,6.98
			c3.848,0,6.98-3.131,6.98-6.98C52.651,39.023,49.519,35.892,45.671,35.892z M45.671,47.024c-2.291,0-4.151-1.859-4.151-4.15
			c0-2.291,1.86-4.15,4.151-4.15c2.292,0,4.149,1.859,4.149,4.15C49.82,45.165,47.963,47.024,45.671,47.024z"/>
	</g>
</g>
</svg>
