<?xml version="1.0" encoding="utf-8"?>
<!-- Generator: Adobe Illustrator 16.0.0, SVG Export Plug-In . SVG Version: 6.00 Build 0)  -->
<!DOCTYPE svg PUBLIC "-//W3C//DTD SVG 1.1//EN" "http://www.w3.org/Graphics/SVG/1.1/DTD/svg11.dtd">
<svg version="1.1" id="Layer_1" xmlns="http://www.w3.org/2000/svg" xmlns:xlink="http://www.w3.org/1999/xlink" x="0px" y="0px"
	 width="100px" height="100px" viewBox="0 0 100 100" style="enable-background:new 0 0 100 100;" xml:space="preserve">
<g>
	<path style="fill-rule:evenodd;clip-rule:evenodd;fill:#3C3C3B;" d="M76.285,67.679c0.909,0.145,1.306,0.775,1.491,1.544
		c0.272,1.084,0.507,2.18,0.68,3.281c0.128,0.827,0.494,1.491,1.143,1.965c0.808,0.582,1.663,1.091,2.509,1.614
		c0.495,0.312,1.042,0.549,1.512,0.893c1.354,1.008,1.496,2.917,0.272,4.089c-0.448,0.434-0.983,0.831-1.552,1.073
		c-3.147,1.328-6.036,3.047-8.592,5.326c-1.441,1.284-2.949,2.483-4.434,3.711c-3.013,2.495-8.718,1.261-10.312-1.991
		c-0.085-0.172-0.357-0.343-0.56-0.355c-3.717-0.264-7.433-0.594-11.158-0.725c-2.395-0.084-4.768,0.305-6.994,1.3
		c-0.232,0.103-0.475,0.251-0.646,0.438c-1.787,1.956-4.016,2.592-6.518,1.944c-2.564-0.664-5.059-1.603-7.62-2.291
		c-2.772-0.747-5.585-1.333-8.374-2.014c-0.942-0.23-1.893-0.476-2.799-0.817c-1.933-0.731-2.291-2.043-1.242-3.824
		c0.597-1.022,1.231-2.105,1.449-3.23c0.198-1.035-0.155-2.163-0.241-3.258c-0.095-1.207-0.302-2.431-0.212-3.625
		c0.146-1.941,1.471-3.019,3.416-3.019c0.733,0,1.467,0.021,2.197-0.007c0.87-0.021,1.529-0.338,1.826-1.257
		c0.225-0.687,0.564-1.339,0.843-2.01c0.042-0.102,0.077-0.244,0.045-0.341c-0.496-1.436-0.119-2.804,0.431-4.116
		c0.461-1.097,1.01-2.164,1.607-3.191c1.66-2.87,2.924-5.888,3.645-9.125c0.478-2.146,1.525-3.988,2.887-5.688
		c1.541-1.919,3.12-3.809,4.595-5.777c1.47-1.975,1.787-4.243,1.577-6.676c-0.329-3.813-0.625-7.633-0.761-11.455
		c-0.056-1.658,0.138-3.377,0.554-4.989c1.029-3.962,3.67-6.911,8.379-7.404c2.473-0.258,4.928-0.296,7.326,0.381
		c4.527,1.271,7.416,4.234,8.383,8.839c0.564,2.734,0.811,5.538,1.195,8.307c0.316,2.295,0.549,4.604,0.934,6.878
		c0.335,1.958,1.368,3.655,2.451,5.272c1.563,2.327,3.199,4.597,4.907,6.821c3.417,4.455,5.73,9.386,6.423,14.991
		C77.308,62.02,77.168,64.857,76.285,67.679z M37.373,79.036c0.793,2.296,2.051,3.475,4.516,3.896
		c6.824,1.172,12.607-0.667,17.185-6.041c0.938-1.104,0.98-2.217,0.766-3.455c-0.289-1.714-0.221-3.41,0.432-5.02
		c0.753-1.86,1.956-2.259,3.731-1.375c0.037,0.023,0.084-0.002,0.174-0.008c0.041-0.276,0.104-0.566,0.112-0.851
		c0.056-1.977,0.129-3.952,0.16-5.92c0.053-4.393-0.822-8.499-3.533-12.112c-1.247-1.666-2.075-3.58-2.07-5.757
		c0.002-0.2-0.107-0.417-0.199-0.608c-1.062-2.218-2.131-4.427-3.194-6.644c-0.18-0.365-0.354-0.739-0.558-1.162
		c-0.264,0.198-0.47,0.364-0.684,0.518c-1.214,0.867-2.384,1.79-3.646,2.564c-1.788,1.099-3.725,1.809-5.885,1.668
		c-1.275-0.082-2.433-0.381-3.33-1.408c-0.441-0.498-1.025-0.863-1.418-1.19c-0.492,1.237-0.945,2.461-1.464,3.652
		c-0.769,1.781-1.854,3.485-2.31,5.339c-0.6,2.445-1.77,4.568-2.82,6.782c-0.182,0.369-0.387,0.734-0.564,1.104
		c-1.796,3.761-3.152,7.612-2.641,11.903c-0.092-0.027-0.172-0.024-0.224-0.056c-0.12-0.085-0.226-0.183-0.333-0.281
		c-1.193-1.136-1.419-2.57-1.242-4.11c0.417-3.633,1.79-6.908,3.723-9.978c0.241-0.385,0.525-0.737,0.816-1.144
		c-0.175-0.088-0.275-0.146-0.383-0.193c-0.124-0.062-0.249-0.125-0.402-0.201c-0.163,0.215-0.34,0.389-0.455,0.601
		c-1.805,3.185-3.439,6.447-4.123,10.09c-0.461,2.476,0.081,4.677,2.131,6.304c1.522,1.216,3.055,2.424,4.676,3.498
		c1.896,1.253,3.506,2.799,5.007,4.469c0.387,0.428,0.7,0.933,0.993,1.438c0.42,0.721,0.301,1.439-0.246,2.028
		C39.342,78.157,38.619,78.983,37.373,79.036z M39.451,87.001c-0.046-0.463-0.067-0.922-0.143-1.381
		c-0.4-2.31-1.472-4.331-2.795-6.216c-2.252-3.201-4.699-6.275-6.553-9.753c-0.135-0.256-0.313-0.492-0.484-0.729
		c-0.877-1.207-1.925-2.217-3.354-2.72c-0.365-0.125-0.812-0.16-1.191-0.086c-1.488,0.288-2.355,1.2-2.53,2.719
		c-0.102,0.89-0.549,1.453-1.464,1.537c-1.16,0.111-2.327,0.15-3.488,0.264c-1.604,0.142-2.276,0.635-2.479,2.227
		c-0.133,1.055,0.001,2.19,0.237,3.237c0.499,2.227,0.307,4.292-0.956,6.24c-0.303,0.459-0.519,0.998-0.703,1.519
		c-0.303,0.849-0.17,1.363,0.631,1.778c0.813,0.42,1.693,0.754,2.579,0.969c2.814,0.678,5.674,1.183,8.458,1.958
		c2.554,0.7,5.032,1.671,7.549,2.512c1.177,0.396,2.354,0.337,3.511-0.091C38.324,90.229,39.423,88.828,39.451,87.001z
		 M65.146,91.713c1.173-0.133,2.452-0.301,3.509-1.169c1.414-1.147,2.896-2.222,4.268-3.43c1.857-1.634,3.811-3.116,6.053-4.187
		c1.138-0.549,2.337-0.985,3.438-1.593c1.452-0.793,1.634-2.501,0.417-3.613c-0.495-0.452-1.074-0.878-1.686-1.134
		c-2.081-0.858-3.221-2.432-3.694-4.571c-0.21-0.967-0.438-1.941-0.667-2.915c-0.126-0.559-0.479-0.629-0.929-0.37
		c-0.226,0.127-0.421,0.322-0.61,0.502c-1.049,0.985-2.051,2.015-3.137,2.947c-1.925,1.655-6.328,1.446-7.37-2.112
		c-0.146-0.49-0.299-0.978-0.431-1.473c-0.172-0.657-0.682-1.021-1.256-1.049c-0.474-0.018-1.049,0.215-1.406,0.529
		c-0.314,0.269-0.488,0.791-0.556,1.236c-0.137,0.984-0.215,1.985-0.251,2.982c-0.101,3.206-0.09,6.425-0.275,9.636
		c-0.125,2.054-0.534,4.096-0.771,6.151c-0.04,0.281,0.046,0.636,0.201,0.878C61.156,90.809,62.89,91.642,65.146,91.713z
		 M39.141,33.479c0.068,0.139,0.143,0.375,0.296,0.55c0.528,0.601,1.077,1.191,1.64,1.761c2.156,2.166,4.299,2.727,7.031,1.365
		c2.386-1.183,4.592-2.736,6.85-4.173c0.385-0.246,0.669-0.714,0.896-1.133c0.317-0.577,0.361-1.185-0.291-1.598
		c-0.65-0.416-1.301-0.859-2.008-1.165c-1.296-0.559-2.674-0.934-3.945-1.527c-2.777-1.301-5.407-1.216-7.937,0.572
		c-0.041,0.028-0.097,0.038-0.132,0.066c-0.884,0.821-1.802,1.614-2.632,2.482c-0.365,0.387-0.388,0.915,0.033,1.393
		c1.551,1.753,3.455,2.764,5.828,2.629c2.182-0.133,4.061-1.138,5.86-2.284c0.758-0.48,1.481-0.999,2.232-1.51
		c0.127,0.276,0.229,0.507,0.334,0.75c-1.909,1.317-3.845,2.477-6.022,3.185c-1.465,0.482-2.981,0.683-4.454,0.196
		C41.483,34.632,40.324,34.002,39.141,33.479z M68.889,63.587c0.307-1.871,0.71-3.686,0.877-5.52c0.291-3.24-0.12-6.359-2.41-8.899
		c-0.621-0.678-1.492-1.137-2.289-1.637c-0.174-0.107-0.505,0.036-0.763,0.058c0.154,0.189,0.264,0.454,0.469,0.569
		c1.654,0.903,2.822,2.207,3.438,4.002c1.338,3.865,0.83,7.637-0.543,11.367c-0.067,0.192-0.292,0.368-0.485,0.482
		c-1.105,0.614-1.893,1.521-2.491,2.607c-0.107,0.183-0.106,0.423-0.146,0.641c0.068,0.027,0.129,0.064,0.197,0.092
		c1.001-1.108,1.823-2.512,3.423-2.796c1.53-0.263,3.029,0.034,4.534,0.467c1.583,0.453,2.271,1.771,3.195,3.076
		c0.149-0.901,0.037-1.36-0.402-1.986c-0.809-1.142-1.958-1.76-3.28-2.029C71.098,63.849,69.955,63.741,68.889,63.587z
		 M54.589,28.995c0.66-1.731,0.8-4.853,0.338-6.547c-0.356-1.305-1.213-2.034-2.492-2.271c-0.952-0.178-1.914-0.107-2.767,0.411
		c-0.377,0.223-0.76,0.544-0.978,0.922c-0.933,1.596-0.487,3.205,0.101,4.779c0.121,0.327,0.479,0.567,0.727,0.85
		c0.132-0.553,0.082-0.979,0.074-1.409c-0.003-0.442,0.011-0.883,0.065-1.313c0.133-1.032,0.961-1.896,1.917-2.052
		c0.748-0.121,1.979,0.459,2.238,1.234c0.283,0.836,0.46,1.741,0.494,2.621c0.039,0.993-0.582,1.687-1.618,2.094
		C53.42,28.574,54.004,28.78,54.589,28.995z M40.549,28.302c-1.543-0.972-1.521-2.533-1.241-4.089
		c0.157-0.884,1.053-1.574,1.8-1.582c0.742-0.008,1.417,0.587,1.664,1.57c0.197,0.761,0.303,1.549,0.451,2.321
		c0.223-0.272,0.387-0.59,0.418-0.918c0.049-0.558,0.013-1.114,0.014-1.677c0.002-0.979-0.383-1.801-1.037-2.501
		c-1.139-1.234-2.99-0.968-3.668,0.568c-0.295,0.658-0.545,1.362-0.65,2.074c-0.259,1.777-0.009,3.438,1.463,4.706
		C40.034,28.609,40.279,28.464,40.549,28.302z M40.454,23.989c0.456,0.047,0.692,0.076,0.825,0.092
		c0.45,0.394,0.053,1.269,0.961,1.348c-0.005-0.821-0.097-1.511-0.707-1.987c-0.164-0.129-0.479-0.221-0.639-0.143
		C40.716,23.383,40.639,23.681,40.454,23.989z M53.526,25.48c0.06-0.046,0.114-0.087,0.169-0.129
		c-0.146-0.52-0.202-1.097-0.465-1.555c-0.287-0.49-0.767-0.864-1.337-0.241C52.443,24.205,52.985,24.844,53.526,25.48z"/>
	<path style="fill-rule:evenodd;clip-rule:evenodd;" d="M43.385,28.173c0.061-0.539,0.799-1.076,1.195-0.995
		c0.021,0.005,0.062,0.012,0.064,0.024c0.031,0.146,0.129,0.371,0.072,0.424c-0.328,0.321-0.695,0.605-1.047,0.895
		C43.553,28.383,43.438,28.239,43.385,28.173z"/>
	<path style="fill-rule:evenodd;clip-rule:evenodd;" d="M46.145,27.062c0.351,0.278,0.72,0.537,1.032,0.853
		c0.1,0.096,0.046,0.339,0.065,0.515c-0.205,0.011-0.517,0.12-0.6,0.02c-0.301-0.343-0.525-0.754-0.785-1.134
		C45.956,27.23,46.051,27.146,46.145,27.062z"/>
</g>
</svg>
