<?xml version="1.0" encoding="utf-8"?>
<!-- Generator: Adobe Illustrator 16.0.0, SVG Export Plug-In . SVG Version: 6.00 Build 0)  -->
<!DOCTYPE svg PUBLIC "-//W3C//DTD SVG 1.1//EN" "http://www.w3.org/Graphics/SVG/1.1/DTD/svg11.dtd">
<svg version="1.1" id="Layer_1" xmlns="http://www.w3.org/2000/svg" xmlns:xlink="http://www.w3.org/1999/xlink" x="0px" y="0px"
	 width="100px" height="100px" viewBox="0 0 100 100" style="enable-background:new 0 0 100 100;" xml:space="preserve">
<g>
	<path style="fill-rule:evenodd;clip-rule:evenodd;fill:#333333;" d="M43.088,43.35c2.905,1.668,6.087,3.523,9.299,5.322
		c0.757,0.424,1.091,0.883,1.092,1.804c0.004,5.206,0.107,10.413,0.134,15.617c0.008,1.341-0.07,2.688-0.229,4.02
		c-0.179,1.503-1.016,2.192-2.522,2.273c-2.947,0.161-4.482-1.204-4.515-4.181c-0.045-4.164-0.027-8.33,0.039-12.495
		c0.014-0.936-0.333-1.347-1.129-1.745c-3.563-1.783-7.125-3.578-10.609-5.508c-1.261-0.698-2.5-1.631-3.402-2.739
		c-1.519-1.865-1.718-4.06-0.454-6.19c0.613-1.037,1.336-2.053,2.189-2.896c3.42-3.383,6.853-6.758,10.399-10.006
		c1.709-1.564,3.812-2.723,6.147-1.393c1.351,0.77,2.666,1.86,3.559,3.119c1.751,2.466,3.22,5.136,4.751,7.755
		c0.377,0.647,0.774,0.867,1.533,0.864c2.247-0.009,4.509-0.018,6.741,0.206c1.826,0.184,2.456,0.952,2.428,2.298
		c-0.036,1.656-0.857,2.747-2.602,2.816c-3.419,0.137-6.851,0.141-10.269-0.012c-0.731-0.031-1.595-0.828-2.099-1.498
		c-1.194-1.586-2.209-3.307-3.373-5.089C47.772,38.305,45.427,40.831,43.088,43.35z"/>
	<path style="fill-rule:evenodd;clip-rule:evenodd;fill:#333333;" d="M74.038,50.639c6.912,0.213,12.528,2.891,16.197,8.918
		c4.207,6.912,2.526,15.548-3.918,20.942c-7.707,6.452-19.801,5.591-26.461-1.888c-7.438-8.347-4.596-21.232,5.747-26.062
		C68.271,51.305,71.068,50.627,74.038,50.639z M74.079,81.518c0.648-0.033,1.258-0.041,1.862-0.1
		c0.473-0.046,0.947-0.127,1.409-0.238c5.682-1.365,9.739-4.623,11.173-10.402c1.338-5.392-0.484-9.939-4.728-13.45
		c-5.884-4.864-15.013-4.419-20.481,0.913c-5.377,5.24-5.48,13.419-0.207,18.768C66.127,80.07,69.851,81.473,74.079,81.518z"/>
	<path style="fill-rule:evenodd;clip-rule:evenodd;fill:#333333;" d="M25.933,50.637c6.908,0.258,12.52,2.955,16.137,9.018
		c4.136,6.932,2.448,15.436-3.957,20.836c-7.7,6.491-19.93,5.587-26.553-1.963c-7.342-8.369-4.485-21.141,5.809-25.969
		C20.075,51.288,22.917,50.61,25.933,50.637z M26.399,81.525c0.575-0.072,1.671-0.109,2.717-0.355
		c5.729-1.349,9.812-4.643,11.22-10.481c1.314-5.452-0.582-10.018-4.913-13.486c-5.683-4.55-14.111-4.305-19.689,0.451
		c-5.891,5.022-6.367,13.58-1.027,19.178C17.739,80.009,21.526,81.471,26.399,81.525z"/>
	<path style="fill-rule:evenodd;clip-rule:evenodd;fill:#333333;" d="M58.078,27.342c-3.677,0.012-6.595-2.709-6.568-6.125
		c0.026-3.352,2.924-6.035,6.528-6.046c3.645-0.011,6.608,2.751,6.586,6.137C64.602,24.641,61.687,27.327,58.078,27.342z"/>
</g>
</svg>
