<?xml version="1.0" encoding="utf-8"?>
<!-- Generator: Adobe Illustrator 16.0.0, SVG Export Plug-In . SVG Version: 6.00 Build 0)  -->
<!DOCTYPE svg PUBLIC "-//W3C//DTD SVG 1.1//EN" "http://www.w3.org/Graphics/SVG/1.1/DTD/svg11.dtd">
<svg version="1.1" id="Layer_1" xmlns="http://www.w3.org/2000/svg" xmlns:xlink="http://www.w3.org/1999/xlink" x="0px" y="0px"
	 width="100px" height="100px" viewBox="0 0 100 100" style="enable-background:new 0 0 100 100;" xml:space="preserve">
<g>
	<path style="fill-rule:evenodd;clip-rule:evenodd;fill:#333333;" d="M88.008,68.762c-2.019,0-3.793,0-5.926,0
		c0,1.892,0.015,3.65-0.003,5.404c-0.039,4.024-2.412,6.629-6.004,6.61c-3.586-0.021-5.903-2.63-5.922-6.679
		c-0.008-1.694-0.001-3.391-0.001-5.217c-13.435,0-26.621,0-40.212,0c0,1.839,0.033,3.674-0.008,5.502
		c-0.086,3.896-2.428,6.385-5.959,6.396c-3.476,0.011-5.812-2.558-5.869-6.484c-0.022-1.712-0.003-3.425-0.003-5.397
		c-2.021-0.09-3.918-0.175-6.02-0.267c-0.051-0.712-0.13-1.352-0.132-1.998c-0.01-5.444,0.029-10.894-0.016-16.346
		c-0.035-4.532,1.666-7.921,5.95-9.861c0.64-0.289,1.19-1.084,1.487-1.765c2.045-4.724,4.056-9.459,5.989-14.228
		c1.425-3.521,3.88-5.239,7.74-5.211c11.345,0.071,22.69,0.072,34.037,0.018c3.757-0.021,6.179,1.63,7.572,5.075
		c1.851,4.554,3.714,9.114,5.757,13.589c0.527,1.152,1.589,2.262,2.686,2.921c2.604,1.56,4.662,3.663,4.772,6.636
		C88.182,54.445,88.008,61.448,88.008,68.762z M24.818,39.635c16.969,0,33.595,0,50.523,0c-2.089-4.963-3.997-9.64-6.068-14.244
		c-0.277-0.618-1.372-1.223-2.092-1.223c-11.402-0.079-22.809-0.079-34.21,0c-0.729,0-1.851,0.587-2.123,1.189
		C28.762,30.039,26.844,34.792,24.818,39.635z M81.446,51.798c-0.018-3.241-2.728-5.961-5.982-6.01
		c-3.429-0.06-6.33,2.835-6.246,6.215c0.083,3.349,2.852,6.008,6.233,5.99C78.792,57.978,81.465,55.214,81.446,51.798z
		 M24.314,57.989c3.362,0.037,6.146-2.665,6.215-6.022c0.065-3.281-2.758-6.153-6.081-6.174c-3.351-0.028-6.138,2.684-6.211,6.041
		C18.17,55.136,20.949,57.948,24.314,57.989z"/>
</g>
</svg>
