<?xml version="1.0" encoding="utf-8"?>
<!-- Generator: Adobe Illustrator 16.0.0, SVG Export Plug-In . SVG Version: 6.00 Build 0)  -->
<!DOCTYPE svg PUBLIC "-//W3C//DTD SVG 1.1//EN" "http://www.w3.org/Graphics/SVG/1.1/DTD/svg11.dtd">
<svg version="1.1" id="Layer_1" xmlns="http://www.w3.org/2000/svg" xmlns:xlink="http://www.w3.org/1999/xlink" x="0px" y="0px"
	 width="100px" height="100px" viewBox="0 0 100 100" style="enable-background:new 0 0 100 100;" xml:space="preserve">
<g>
	<path style="fill:#3C3C3B;" d="M38.352,56h33.073h20.183c0.159-1,0.248-2.734,0.248-4.178c0-5.488-1.175-10.657-3.288-15.36
		c-0.343-0.601-0.701-1.167-1.075-1.748c0.031-0.086,0.058-0.158,0.092-0.244c-3.448-6.587-8.786-12.021-15.295-15.594
		c-6.314,2.298-13.785,6.726-21.428,12.812c1.078-0.232,2.195-0.492,3.343-0.492C62.65,31.196,69.555,38,70.028,46H38.377
		c0.08-1,0.341-2.588,0.753-3.857c-8.461,8.586-15.063,17.594-19.135,25.45c5.962,12.93,19.035,21.885,34.209,21.885
		C70.728,89.478,84.755,79,89.824,64H69.448c-2.796,5-8.268,8.744-14.56,8.744c-6.294,0-11.939-3.49-14.736-8.664
		C38.892,61.746,38,59.1,38,56.258V56H38.352z"/>
	<path style="fill:#3C3C3B;" d="M16.251,85.598c-6.945-6.944,3.018-28.169,22.254-47.405c19.236-19.235,40.46-29.2,47.405-22.255
		c2.964,2.965,2.841,8.535,0.237,15.437c0.381,0.591,0.747,1.191,1.096,1.803c3.495-9.117,3.455-16.872-1.142-21.469
		c-4.397-4.397-16.384-3.556-29.799,2.614c-0.694-0.039-1.394-0.061-2.099-0.061c-20.547,0-37.248,16.458-37.643,36.912
		C7.711,66.903,5.886,81.947,10.875,86.936c5.37,5.37,15.124,4.447,26.317-1.059c-0.824-0.415-1.631-0.859-2.42-1.331
		C26.455,88.338,19.645,88.992,16.251,85.598z"/>
</g>
</svg>
