<?xml version="1.0" encoding="utf-8"?>
<!-- Generator: Adobe Illustrator 16.0.0, SVG Export Plug-In . SVG Version: 6.00 Build 0)  -->
<!DOCTYPE svg PUBLIC "-//W3C//DTD SVG 1.1//EN" "http://www.w3.org/Graphics/SVG/1.1/DTD/svg11.dtd">
<svg version="1.1" id="Layer_1" xmlns="http://www.w3.org/2000/svg" xmlns:xlink="http://www.w3.org/1999/xlink" x="0px" y="0px"
	 width="100px" height="100px" viewBox="0 0 100 100" style="enable-background:new 0 0 100 100;" xml:space="preserve">
<g>
	<path style="fill-rule:evenodd;clip-rule:evenodd;fill:#333333;" d="M65,47.509C65,48.722,63.429,50,61.803,50H38.314
		C36.688,50,35,48.722,35,47.509v-37.41C35,8.885,36.688,8,38.314,8h23.488C63.429,8,65,8.885,65,10.099V47.509z"/>
	<path style="fill-rule:evenodd;clip-rule:evenodd;fill:#333333;" d="M65,90.61c0,1.214-1.571,2.39-3.197,2.39H38.314
		C36.688,93,35,91.824,35,90.61V53.2c0-1.213,1.688-2.2,3.314-2.2h23.488C63.429,51,65,51.987,65,53.2V90.61z"/>
	<rect x="39" y="12" style="fill-rule:evenodd;clip-rule:evenodd;fill:#F2F2F2;" width="22" height="34"/>
	<g>
		<g>
			<rect x="39" y="68" style="fill-rule:evenodd;clip-rule:evenodd;fill:#F2F2F2;" width="7" height="6"/>
			<rect x="47" y="68" style="fill-rule:evenodd;clip-rule:evenodd;fill:#F2F2F2;" width="6" height="6"/>
			<rect x="54" y="68" style="fill-rule:evenodd;clip-rule:evenodd;fill:#F2F2F2;" width="7" height="6"/>
		</g>
		<g>
			<rect x="39" y="75" style="fill-rule:evenodd;clip-rule:evenodd;fill:#F2F2F2;" width="7" height="6"/>
			<rect x="47" y="75" style="fill-rule:evenodd;clip-rule:evenodd;fill:#F2F2F2;" width="6" height="6"/>
			<rect x="54" y="75" style="fill-rule:evenodd;clip-rule:evenodd;fill:#F2F2F2;" width="7" height="6"/>
		</g>
		<g>
			<rect x="39" y="82" style="fill-rule:evenodd;clip-rule:evenodd;fill:#F2F2F2;" width="7" height="6"/>
			<rect x="47" y="82" style="fill-rule:evenodd;clip-rule:evenodd;fill:#F2F2F2;" width="6" height="6"/>
			<rect x="54" y="82" style="fill-rule:evenodd;clip-rule:evenodd;fill:#F2F2F2;" width="7" height="6"/>
		</g>
	</g>
	<rect x="47" y="56" style="fill-rule:evenodd;clip-rule:evenodd;fill:#F2F2F2;" width="6" height="7"/>
	<rect x="54" y="57" style="fill-rule:evenodd;clip-rule:evenodd;fill:#F2F2F2;" width="7" height="5"/>
	<rect x="39" y="57" style="fill-rule:evenodd;clip-rule:evenodd;fill:#F2F2F2;" width="7" height="5"/>
	<g>
		<path style="fill-rule:evenodd;clip-rule:evenodd;fill:#3C3C3B;" d="M57.86,29.306c-0.187,0-0.374,0-0.575,0
			c-0.002-0.041-0.007-0.087-0.007-0.131c-0.001-0.449,0.002-0.897-0.002-1.346c-0.002-0.312-0.146-0.391-0.425-0.243
			c-0.131,0.07-0.198,0.156-0.192,0.32c0.014,0.419,0.005,0.838,0.005,1.256c0,0.047,0,0.094,0,0.149c-0.197,0-0.384,0-0.575,0
			c-0.046-0.716,0.052-1.434-0.071-2.163c0.161-0.046,0.326-0.093,0.51-0.146c0.032,0.09,0.061,0.172,0.093,0.266
			c0.061-0.037,0.116-0.089,0.181-0.11c0.166-0.051,0.332-0.12,0.5-0.128c0.291-0.012,0.477,0.154,0.56,0.431
			C57.86,28.076,57.86,28.691,57.86,29.306z"/>
		<path style="fill-rule:evenodd;clip-rule:evenodd;fill:#3C3C3B;" d="M42.479,29.102c0.073-0.127,0.146-0.254,0.222-0.387
			c0.129,0.056,0.253,0.122,0.385,0.163c0.125,0.039,0.258,0.063,0.388,0.069c0.145,0.008,0.253-0.093,0.271-0.22
			c0.018-0.124-0.041-0.218-0.189-0.266c-0.112-0.036-0.23-0.058-0.348-0.078c-0.403-0.074-0.604-0.279-0.614-0.633
			c-0.012-0.352,0.219-0.639,0.586-0.72c0.381-0.083,0.736-0.007,1.09,0.182c-0.062,0.129-0.123,0.253-0.181,0.372
			c-0.16-0.047-0.309-0.099-0.461-0.132c-0.071-0.016-0.153-0.007-0.226,0.011c-0.095,0.021-0.157,0.085-0.164,0.188
			c-0.008,0.102,0.048,0.163,0.136,0.193c0.113,0.039,0.229,0.069,0.342,0.103c0.042,0.011,0.084,0.02,0.125,0.031
			c0.32,0.091,0.488,0.268,0.519,0.544c0.035,0.31-0.107,0.585-0.386,0.731c-0.339,0.179-0.691,0.168-1.046,0.058
			c-0.153-0.048-0.298-0.122-0.448-0.186C42.479,29.118,42.479,29.109,42.479,29.102z"/>
		<path style="fill-rule:evenodd;clip-rule:evenodd;fill:#3C3C3B;" d="M48.744,29.313c-0.19,0-0.363,0-0.554,0
			c0-0.052,0-0.098,0-0.143c0-0.406,0-0.811,0-1.217c0-0.052,0.004-0.104-0.003-0.154c-0.017-0.108,0.02-0.243-0.129-0.291
			c-0.118-0.036-0.384,0.054-0.443,0.153c-0.02,0.032-0.02,0.081-0.021,0.122c-0.001,0.462-0.001,0.924-0.001,1.385
			c0,0.045-0.004,0.091-0.007,0.145c-0.19,0-0.372,0-0.569,0c0-0.05,0-0.097,0-0.142c0-0.495,0.004-0.99-0.003-1.486
			c-0.002-0.168-0.027-0.337-0.045-0.526c0.146-0.041,0.315-0.088,0.498-0.14c0.028,0.07,0.056,0.134,0.089,0.213
			c0.165-0.133,0.346-0.216,0.561-0.211c0.222,0.006,0.393,0.103,0.526,0.288c0.047-0.038,0.087-0.074,0.13-0.108
			c0.228-0.184,0.486-0.22,0.761-0.144c0.21,0.06,0.347,0.202,0.351,0.422c0.009,0.606,0.003,1.212,0.003,1.828
			c-0.18,0-0.365,0-0.562,0c0-0.096,0-0.188,0-0.281c0-0.431,0.003-0.862-0.002-1.293c-0.002-0.212-0.099-0.273-0.3-0.206
			c-0.235,0.078-0.279,0.141-0.28,0.387c0,0.418,0,0.836,0,1.255C48.744,29.214,48.744,29.261,48.744,29.313z"/>
		<path style="fill-rule:evenodd;clip-rule:evenodd;fill:#3C3C3B;" d="M50.948,27.166c0.478-0.32,1.156-0.154,1.324,0.52
			c0.104,0.417,0.095,0.831-0.109,1.222c-0.18,0.339-0.475,0.473-0.85,0.456c-0.367-0.018-0.683-0.133-0.854-0.483
			c-0.053-0.106-0.073-0.237-0.077-0.357c-0.008-0.381-0.002-0.761-0.001-1.141c0-0.392,0-0.784,0-1.197
			c0.161-0.038,0.352-0.082,0.566-0.134C50.948,26.418,50.948,26.777,50.948,27.166z M50.976,28.211c0,0.154-0.002,0.307,0.003,0.46
			c0.001,0.039,0.01,0.091,0.036,0.115c0.111,0.108,0.251,0.144,0.401,0.105c0.141-0.034,0.204-0.147,0.214-0.274
			c0.019-0.254,0.022-0.511,0.019-0.766c-0.001-0.075-0.039-0.158-0.079-0.225c-0.07-0.119-0.211-0.16-0.349-0.12
			c-0.166,0.05-0.245,0.143-0.245,0.294C50.976,27.938,50.976,28.075,50.976,28.211z"/>
		<path style="fill-rule:evenodd;clip-rule:evenodd;fill:#3C3C3B;" d="M46.72,27.061c-0.137,0.381-0.265,0.737-0.393,1.094
			c-0.179,0.494-0.357,0.987-0.537,1.48c-0.132,0.363-0.389,0.581-0.77,0.657c-0.077,0.015-0.117-0.002-0.15-0.073
			c-0.043-0.095-0.095-0.188-0.147-0.294c0.053-0.019,0.096-0.038,0.14-0.05c0.247-0.07,0.393-0.246,0.481-0.475
			c0.013-0.028,0.008-0.072-0.008-0.101c-0.081-0.149-0.19-0.287-0.248-0.443c-0.21-0.577-0.403-1.159-0.607-1.757
			c0.205-0.026,0.398-0.05,0.606-0.075c0.169,0.576,0.338,1.147,0.512,1.741c0.015-0.053,0.023-0.086,0.032-0.118
			c0.149-0.508,0.298-1.015,0.449-1.521c0.009-0.027,0.051-0.062,0.079-0.063C46.338,27.058,46.517,27.061,46.72,27.061z"/>
		<path style="fill-rule:evenodd;clip-rule:evenodd;fill:#3C3C3B;" d="M54.085,27.723c-0.071-0.119-0.148-0.251-0.234-0.394
			c0.426-0.249,0.856-0.408,1.345-0.256c0.235,0.072,0.378,0.239,0.386,0.488c0.012,0.375,0.015,0.751,0.007,1.127
			c-0.006,0.216-0.133,0.375-0.307,0.491c-0.283,0.19-0.599,0.246-0.931,0.19c-0.32-0.055-0.509-0.26-0.54-0.563
			c-0.04-0.381,0.095-0.661,0.405-0.773c0.174-0.063,0.364-0.08,0.549-0.11c0.074-0.011,0.151-0.002,0.225-0.002
			c0.091-0.317-0.047-0.483-0.352-0.411C54.455,27.555,54.282,27.646,54.085,27.723z M54.996,28.322
			c-0.107,0.008-0.207,0.006-0.302,0.024c-0.268,0.053-0.362,0.359-0.181,0.564c0.074,0.082,0.17,0.116,0.266,0.068
			c0.081-0.04,0.19-0.105,0.206-0.178C55.019,28.656,54.996,28.499,54.996,28.322z"/>
		<path style="fill-rule:evenodd;clip-rule:evenodd;fill:#3C3C3B;" d="M52.727,28.157c0.039-0.272,0.075-0.546,0.121-0.818
			c0.012-0.074,0.039-0.15,0.08-0.213c0.036-0.056,0.101-0.132,0.15-0.131c0.053,0.003,0.131,0.076,0.148,0.134
			c0.064,0.202,0.131,0.408,0.153,0.616c0.043,0.416,0.04,0.835-0.063,1.245c-0.026,0.106-0.068,0.212-0.124,0.306
			c-0.07,0.118-0.18,0.119-0.235-0.003c-0.073-0.161-0.117-0.336-0.163-0.508c-0.021-0.077-0.026-0.16-0.029-0.24
			c-0.005-0.127-0.001-0.255-0.001-0.384C52.752,28.16,52.739,28.158,52.727,28.157z"/>
	</g>
</g>
</svg>
