<?xml version="1.0" encoding="utf-8"?>
<!-- Generator: Adobe Illustrator 16.0.0, SVG Export Plug-In . SVG Version: 6.00 Build 0)  -->
<!DOCTYPE svg PUBLIC "-//W3C//DTD SVG 1.1//EN" "http://www.w3.org/Graphics/SVG/1.1/DTD/svg11.dtd">
<svg version="1.1" id="Layer_1" xmlns="http://www.w3.org/2000/svg" xmlns:xlink="http://www.w3.org/1999/xlink" x="0px" y="0px"
	 width="100px" height="100px" viewBox="0 0 100 100" style="enable-background:new 0 0 100 100;" xml:space="preserve">
<g>
	<g>
		<path style="fill:#009245;" d="M31.487,18.167C20.779,23.232,13.115,33.687,12,46.032l34.115,3.121L31.487,18.167z"/>
		<path style="fill:#D41440;" d="M51.046,12.954c-0.51-0.023-1.023-0.037-1.539-0.037c-5.235,0-10.193,1.174-14.628,3.273
			l14.628,30.983L51.046,12.954z"/>
		<path style="fill:#3FB4FF;" d="M14.824,49.701c-0.093,1.03-0.143,2.069-0.143,3.121c0,18.921,15.337,34.261,34.258,34.261
			c12.032,0,22.618-6.207,28.728-15.588L48.939,52.822L14.824,49.701z"/>
		<path style="fill:#F1861E;" d="M55.281,16.283l-1.538,34.224l28.726,18.668C85.965,63.803,88,57.394,88,50.507
			C88,32.103,73.49,17.089,55.281,16.283z"/>
	</g>
</g>
</svg>
