<?xml version="1.0" encoding="utf-8"?>
<!-- Generator: Adobe Illustrator 16.0.0, SVG Export Plug-In . SVG Version: 6.00 Build 0)  -->
<!DOCTYPE svg PUBLIC "-//W3C//DTD SVG 1.1//EN" "http://www.w3.org/Graphics/SVG/1.1/DTD/svg11.dtd">
<svg version="1.1" id="Layer_1" xmlns="http://www.w3.org/2000/svg" xmlns:xlink="http://www.w3.org/1999/xlink" x="0px" y="0px"
	 width="100px" height="100px" viewBox="0 0 100 100" style="enable-background:new 0 0 100 100;" xml:space="preserve">
<g>
	<g>
		<path style="fill-rule:evenodd;clip-rule:evenodd;fill:#333333;" d="M72,87.613C72,90.036,70.036,92,67.614,92H32.386
			C29.964,92,28,90.036,28,87.613V13.387C28,10.964,29.964,9,32.386,9h35.229C70.036,9,72,10.964,72,13.387V87.613z"/>
		<rect x="32" y="17" style="fill-rule:evenodd;clip-rule:evenodd;fill:#F2F2F2;" width="36" height="64"/>
		<circle style="fill-rule:evenodd;clip-rule:evenodd;fill:#F2F2F2;" cx="36.362" cy="12.637" r="1.535"/>
		<path style="fill-rule:evenodd;clip-rule:evenodd;fill:#F2F2F2;" d="M55,86.862C55,88.043,54.043,89,52.863,89h-5.727
			C45.957,89,45,88.043,45,86.862v-0.725C45,84.957,45.957,84,47.137,84h5.727C54.043,84,55,84.957,55,86.138V86.862z"/>
	</g>
	<g>
		<path style="fill-rule:evenodd;clip-rule:evenodd;fill:#3C3C3B;" d="M46.839,60.554c-0.297-0.182-0.622-0.328-0.882-0.552
			c-0.337-0.291-0.421-0.712-0.42-1.149c0.004-1.006-0.02-2.013,0.011-3.017c0.013-0.428-0.134-0.558-0.537-0.515
			c-0.269,0.028-0.543,0.009-0.814,0.004c-0.843-0.016-1.588-0.715-1.59-1.545c-0.01-3.466-0.004-6.932-0.003-10.397
			c0-0.067,0.014-0.134,0.024-0.232c4.807,0,9.61,0,14.458,0c0.009,0.118,0.027,0.248,0.027,0.378c0.002,3.316,0.004,6.633,0,9.948
			c-0.001,0.928-0.49,1.646-1.276,1.808c-0.38,0.077-0.786,0.058-1.178,0.035c-0.382-0.023-0.526,0.088-0.513,0.495
			c0.03,0.868-0.029,1.741,0.02,2.608c0.059,1.028-0.28,1.771-1.289,2.131c-0.218,0-0.436,0-0.652,0
			c-0.029-0.026-0.053-0.065-0.086-0.079c-0.851-0.344-1.133-0.758-1.133-1.669c-0.001-1.021-0.01-2.04,0.004-3.06
			c0.005-0.32-0.107-0.438-0.426-0.424c-0.476,0.019-0.953,0.026-1.428-0.003c-0.375-0.023-0.459,0.131-0.453,0.475
			c0.019,1.033,0.043,2.068-0.013,3.1c-0.02,0.379-0.182,0.8-0.409,1.104c-0.192,0.258-0.574,0.376-0.871,0.556
			C47.219,60.554,47.029,60.554,46.839,60.554z"/>
		<path style="fill-rule:evenodd;clip-rule:evenodd;fill:#3C3C3B;" d="M54.428,34.279c0.208,0.193,0.063,0.369-0.031,0.544
			c-0.328,0.604-0.661,1.207-1.004,1.833c2.268,1.287,3.603,3.128,3.734,5.802c-0.187,0.011-0.33,0.025-0.474,0.025
			c-4.552,0.001-9.104,0.001-13.655,0.001c-0.247,0-0.454,0.056-0.418-0.369c0.197-2.344,1.389-4.029,3.348-5.234
			c0.112-0.068,0.226-0.137,0.369-0.224c-0.348-0.639-0.687-1.238-0.998-1.853c-0.077-0.151-0.063-0.349-0.092-0.525
			c0.081,0,0.163,0,0.244,0c0.355,0.669,0.717,1.335,1.064,2.007c0.116,0.226,0.26,0.166,0.437,0.099
			c1.916-0.731,3.838-0.74,5.754-0.005c0.251,0.097,0.384,0.076,0.513-0.172c0.336-0.649,0.695-1.286,1.046-1.929
			C54.318,34.279,54.373,34.279,54.428,34.279z M47.172,39.283c0.02-0.337-0.267-0.66-0.61-0.687
			c-0.357-0.027-0.691,0.276-0.702,0.637c-0.009,0.335,0.293,0.657,0.632,0.673C46.823,39.921,47.151,39.621,47.172,39.283z
			 M53.818,39.243c-0.004-0.356-0.3-0.651-0.65-0.648s-0.639,0.302-0.637,0.659c0.004,0.354,0.304,0.656,0.647,0.652
			C53.527,39.902,53.822,39.596,53.818,39.243z"/>
		<path style="fill-rule:evenodd;clip-rule:evenodd;fill:#3C3C3B;" d="M57.778,47.779c0-1.101-0.003-2.201,0.001-3.302
			c0.003-0.964,0.655-1.664,1.561-1.685c0.862-0.02,1.6,0.675,1.609,1.608c0.024,2.255,0.022,4.511,0.001,6.766
			c-0.008,0.863-0.607,1.51-1.393,1.606c-0.759,0.093-1.475-0.356-1.704-1.091c-0.057-0.178-0.071-0.374-0.072-0.561
			C57.775,50.008,57.778,48.894,57.778,47.779z"/>
		<path style="fill-rule:evenodd;clip-rule:evenodd;fill:#3C3C3B;" d="M41.917,47.784c0,1.114,0.001,2.229-0.001,3.343
			c-0.001,0.962-0.664,1.649-1.583,1.648c-0.91-0.001-1.592-0.695-1.594-1.65c-0.007-2.229-0.007-4.457,0-6.686
			c0.003-0.928,0.74-1.668,1.615-1.646c0.892,0.021,1.56,0.724,1.562,1.648C41.919,45.556,41.917,46.669,41.917,47.784z"/>
	</g>
</g>
</svg>
