<?xml version="1.0" encoding="utf-8"?>
<!-- Generator: Adobe Illustrator 16.0.0, SVG Export Plug-In . SVG Version: 6.00 Build 0)  -->
<!DOCTYPE svg PUBLIC "-//W3C//DTD SVG 1.1//EN" "http://www.w3.org/Graphics/SVG/1.1/DTD/svg11.dtd">
<svg version="1.1" id="Layer_1" xmlns="http://www.w3.org/2000/svg" xmlns:xlink="http://www.w3.org/1999/xlink" x="0px" y="0px"
	 width="100px" height="100px" viewBox="0 0 100 100" style="enable-background:new 0 0 100 100;" xml:space="preserve">
<path style="fill:#3C3C3B;" d="M87.864,42.231c0,0-1.287-10.695-2.865-14.693c-2.418-6.126-3.493-6.077-3.501-6.068
	c1.62,4.116,1.326,6.326,1.326,6.326s-2.869-7.634-10.457-10.122C63.96,14.916,59.411,16,58.89,16c-0.08,0-0.156,0-0.229,0
	c0.062,0,0.121-0.176,0.184-0.171c-0.002,0.001-0.006-0.091-0.006-0.089c0.033,0.041,9.286,1.57,10.928,3.825
	c0,0-3.932-0.023-7.842,1.104c-0.177,0.051,14.392,1.809,17.369,16.365c0,0-1.597-3.339-3.571-3.903
	c1.299,3.951,0.965,11.446-0.272,15.172c-0.159,0.479-0.321-2.074-2.759-3.172c0.781,5.591-0.046,14.462-3.926,16.904
	c-0.303,0.19,2.433-8.756,0.551-5.298c-10.837,16.614-23.646,7.668-29.405,3.73c2.952,0.642,8.553-0.102,11.034-1.945
	c0.003-0.003,0.005-0.005,0.009-0.009c2.693-1.84,4.289-3.185,5.721-2.868c1.433,0.322,2.387-1.117,1.274-2.394
	c-1.114-1.279-3.822-3.036-7.481-2.077c-2.583,0.675-5.782,3.533-10.665,0.639c-3.733-2.212-4.099-4.05-4.134-5.327
	c0.093-0.458,0.208-0.889,0.348-1.279c0.431-1.202,1.736-1.566,2.464-1.854c1.235,0.213,2.3,0.596,3.417,1.17
	c0.014-0.372,0.018-0.867-0.002-1.426c0.107-0.212,0.041-0.853-0.13-1.635c-0.099-0.786-0.263-1.597-0.518-2.338
	c0.006-0.001,0.013-0.001,0.018-0.004c0.016-0.01,0.029-0.025,0.035-0.053c0.054-0.242,0.47-0.64,1.063-1.102
	c1.172-0.912,3.04-2.075,4.209-2.797c0.546-0.337,0.94-0.58,1.04-0.652c0.043-0.033,0.097-0.073,0.153-0.115
	c0.095-0.074,0.204-0.165,0.319-0.275c0.002-0.002,0.005-0.005,0.008-0.007c0.352-0.347,0.742-0.904,0.872-1.846
	c0.006-0.035,0.008-0.074,0.014-0.111c0.006-0.058,0.014-0.115,0.018-0.178c0.006-0.084,0.01-0.173,0.013-0.262
	c0.001-0.022,0.002-0.043,0.003-0.068c0.001-0.124,0.003-0.252-0.005-0.388C49.005,31.223,49,31.182,49,31.141
	c0-0.001,0-0.002,0-0.004c0-0.027-0.011-0.053-0.016-0.077c-0.004-0.018-0.01-0.034-0.014-0.051
	c-0.002-0.007-0.005-0.014-0.007-0.021c-0.009-0.023-0.019-0.046-0.03-0.068c-0.013-0.021-0.028-0.042-0.044-0.063
	c-0.002-0.002-0.004,0.126-0.006,0.124C48.844,30.939,48.797,31,48.729,31c-0.001,0-0.004,0-0.005,0c-0.068,0-0.156,0-0.264,0
	c-0.002,0-0.002,0-0.004,0c-0.274,0-0.691,0-1.327,0c-0.001,0-0.003,0-0.005,0c-0.126,0-0.261,0-0.405,0c0,0-0.001,0-0.002,0
	c-0.142,0-0.294,0-0.454,0c-0.004,0-0.007,0-0.011,0c-0.84,0-1.938-0.268-3.378-0.263c-2.531,0.01-3.927-2.606-4.369-3.561
	c0.611-3.373,2.378-5.839,5.276-7.471c0.054-0.029,0.04-0.087-0.023-0.104c0.586-0.344-6.845-0.029-10.261,4.314
	c-3.033-0.754-5.676-0.711-7.953-0.176c-0.436-0.014-0.979-0.074-1.621-0.207c-1.513-1.371-3.679-3.905-3.794-6.928
	c0,0-0.007,0.005-0.017,0.013c-0.001-0.027-0.007-0.057-0.007-0.084c0,0-4.61,3.542-3.921,13.202
	c-0.002,0.155-0.005,0.303-0.009,0.446c-1.248,1.692-1.867,3.115-1.914,3.431c-1.105,2.251-2.227,5.638-3.14,10.779
	c0,0,0.641-2.029,1.923-4.325c-0.944,2.887-1.688,7.376-1.251,14.12c0,0,0.115-1.494,0.521-3.645
	c0.318,4.176,1.709,9.333,5.229,15.397c6.505,11.215,16.378,17.074,27.35,18.297c0.048,0.005,0.097,0.011,0.145,0.017
	c0.253,0.026,0.508,0.052,0.763,0.073c0.309,0.029,0.618,0.053,0.928,0.072c0.074,0.007,0.148,0.012,0.222,0.016
	c1.894,0.115,3.811,0.097,5.739-0.066c0.015-0.002,0.029-0.003,0.045-0.005c0.035-0.003,0.071-0.005,0.105-0.008
	c2.375-0.162,4.765-0.519,7.15-1.096c32.282-7.801,28.773-46.786,28.773-46.786L87.864,42.231z"/>
</svg>
