<?xml version="1.0" encoding="utf-8"?>
<!-- Generator: Adobe Illustrator 16.0.0, SVG Export Plug-In . SVG Version: 6.00 Build 0)  -->
<!DOCTYPE svg PUBLIC "-//W3C//DTD SVG 1.1//EN" "http://www.w3.org/Graphics/SVG/1.1/DTD/svg11.dtd">
<svg version="1.1" id="Layer_1" xmlns="http://www.w3.org/2000/svg" xmlns:xlink="http://www.w3.org/1999/xlink" x="0px" y="0px"
	 width="100px" height="100px" viewBox="0 0 100 100" style="enable-background:new 0 0 100 100;" xml:space="preserve">
<path style="fill:#3C3C3B;" d="M50.001,7.5C26.529,7.5,7.5,26.529,7.5,50.002C7.5,73.471,26.529,92.5,50.001,92.5
	S92.5,73.471,92.5,50.002C92.5,26.529,73.473,7.5,50.001,7.5z M59.536,22.137c1.568-2.715,5.036-3.643,7.751-2.078
	c2.714,1.568,3.643,5.035,2.075,7.75c-1.564,2.715-5.035,3.641-7.749,2.074C58.902,28.318,57.972,24.85,59.536,22.137z
	 M21.102,55.676c-3.135,0-5.676-2.543-5.676-5.674c0-3.135,2.541-5.678,5.676-5.678c3.134,0,5.675,2.543,5.675,5.678
	C26.776,53.133,24.235,55.676,21.102,55.676z M26.134,56.18c1.79-1.461,2.937-3.686,2.937-6.18s-1.146-4.719-2.937-6.182
	c1.533-5.938,5.229-11.008,10.193-14.326l4.147,6.947c-4.263,3-7.047,7.955-7.047,13.562c0,5.605,2.784,10.561,7.047,13.559
	l-4.147,6.949C31.36,67.191,27.666,62.121,26.134,56.18z M67.287,79.939c-2.715,1.568-6.183,0.639-7.749-2.076
	c-1.566-2.713-0.636-6.18,2.077-7.748c2.712-1.564,6.184-0.637,7.749,2.076C70.932,74.906,70.001,78.373,67.287,79.939z
	 M67.271,67.576c-2.157-0.814-4.648-0.691-6.804,0.553c-2.157,1.246-3.511,3.344-3.88,5.625c-2.098,0.58-4.306,0.896-6.586,0.896
	c-3.923,0-7.632-0.922-10.923-2.553l3.941-7.064c2.122,0.986,4.486,1.541,6.981,1.541c8.659,0,15.762-6.637,16.506-15.105
	l8.089,0.121C74.197,57.84,71.465,63.451,67.271,67.576z M66.508,48.531c-0.745-8.467-7.848-15.105-16.507-15.105
	c-2.495,0-4.859,0.555-6.981,1.541l-3.941-7.064c3.291-1.629,7-2.551,10.922-2.551c2.281,0,4.489,0.316,6.587,0.895
	c0.368,2.281,1.722,4.381,3.88,5.625c2.154,1.242,4.646,1.367,6.803,0.553c4.195,4.125,6.928,9.736,7.326,15.986L66.508,48.531z"/>
</svg>
