<?xml version="1.0" encoding="utf-8"?>
<!-- Generator: Adobe Illustrator 16.0.0, SVG Export Plug-In . SVG Version: 6.00 Build 0)  -->
<!DOCTYPE svg PUBLIC "-//W3C//DTD SVG 1.1//EN" "http://www.w3.org/Graphics/SVG/1.1/DTD/svg11.dtd">
<svg version="1.1" id="Layer_1" xmlns="http://www.w3.org/2000/svg" xmlns:xlink="http://www.w3.org/1999/xlink" x="0px" y="0px"
	 width="100px" height="100px" viewBox="0 0 100 100" style="enable-background:new 0 0 100 100;" xml:space="preserve">
<g>
	<path style="fill:#3C3C3B;" d="M86.563,51.121C86.563,39.375,76.783,30,64.492,30h-42.61C19.703,30,18,31.401,18,33.581v52.077
		C18,87.838,19.703,89,21.882,89h42.61C66.671,89,68,87.838,68,85.658V71.905C78,70.118,86.563,61.584,86.563,51.121z M68,65.45
		V36.429c7,1.655,12.033,7.523,12.033,14.511S75,63.796,68,65.45z"/>
	<g>
		<path style="fill:#3C3C3B;" d="M36.325,14.451c1.125-2.91,1.105-6.092-0.073-8.989c-0.271-0.662-1.126-1.018-1.915-0.788
			c-0.787,0.228-1.207,0.947-0.938,1.611c0.991,2.435,0.991,5.116,0,7.553c-0.058,0.142-0.077,0.286-0.075,0.428
			c-1.125,2.909-1.105,6.092,0.073,8.988c0.214,0.526,0.799,0.856,1.426,0.856c0.162,0,0.327-0.021,0.489-0.068
			c0.787-0.227,1.207-0.948,0.938-1.61c-0.991-2.436-0.991-5.118,0-7.553C36.308,14.736,36.327,14.592,36.325,14.451z"/>
		<path style="fill:#3C3C3B;" d="M45.038,14.451c1.125-2.91,1.104-6.092-0.074-8.989c-0.27-0.662-1.125-1.018-1.914-0.788
			c-0.787,0.228-1.207,0.947-0.938,1.611c0.991,2.435,0.991,5.116,0,7.553c-0.058,0.142-0.077,0.286-0.075,0.428
			c-1.125,2.909-1.105,6.092,0.073,8.988c0.214,0.526,0.799,0.856,1.426,0.856c0.162,0,0.327-0.021,0.489-0.068
			c0.787-0.227,1.207-0.948,0.937-1.61c-0.991-2.436-0.991-5.118,0-7.553C45.021,14.736,45.04,14.592,45.038,14.451z"/>
		<path style="fill:#3C3C3B;" d="M53.675,14.879c0.059-0.143,0.078-0.287,0.076-0.428c1.124-2.91,1.104-6.092-0.074-8.989
			c-0.27-0.662-1.125-1.018-1.914-0.788c-0.787,0.228-1.207,0.947-0.938,1.611c0.991,2.435,0.991,5.116,0,7.553
			c-0.058,0.142-0.077,0.286-0.075,0.428c-1.125,2.909-1.105,6.092,0.073,8.988c0.214,0.526,0.799,0.856,1.426,0.856
			c0.162,0,0.327-0.021,0.489-0.068c0.787-0.227,1.207-0.948,0.937-1.61C52.684,19.996,52.684,17.313,53.675,14.879z"/>
	</g>
</g>
</svg>
