<?xml version="1.0" encoding="utf-8"?>
<!-- Generator: Adobe Illustrator 16.0.0, SVG Export Plug-In . SVG Version: 6.00 Build 0)  -->
<!DOCTYPE svg PUBLIC "-//W3C//DTD SVG 1.1//EN" "http://www.w3.org/Graphics/SVG/1.1/DTD/svg11.dtd">
<svg version="1.1" id="Layer_1" xmlns="http://www.w3.org/2000/svg" xmlns:xlink="http://www.w3.org/1999/xlink" x="0px" y="0px"
	 width="100px" height="100px" viewBox="0 0 100 100" style="enable-background:new 0 0 100 100;" xml:space="preserve">
<g>
	<g>
		<path style="fill-rule:evenodd;clip-rule:evenodd;fill:#333333;" d="M72,87.613C72,90.036,70.036,92,67.614,92H32.386
			C29.964,92,28,90.036,28,87.613V13.387C28,10.964,29.964,9,32.386,9h35.229C70.036,9,72,10.964,72,13.387V87.613z"/>
		<rect x="31" y="21" style="fill-rule:evenodd;clip-rule:evenodd;fill:#F2F2F2;" width="37" height="54"/>
		<circle style="fill-rule:evenodd;clip-rule:evenodd;fill:#F2F2F2;" cx="49.468" cy="86.939" r="2.961"/>
		<circle style="fill-rule:evenodd;clip-rule:evenodd;fill:#F2F2F2;" cx="35.321" cy="13.137" r="1.535"/>
	</g>
	<g>
		<rect x="33" y="23" style="fill-rule:evenodd;clip-rule:evenodd;fill:#333333;" width="16" height="16"/>
		<rect x="33" y="40" style="fill-rule:evenodd;clip-rule:evenodd;fill:#333333;" width="33" height="16"/>
		<rect x="50" y="32" style="fill-rule:evenodd;clip-rule:evenodd;fill:#333333;" width="7" height="7"/>
		<rect x="50" y="57" style="fill-rule:evenodd;clip-rule:evenodd;fill:#333333;" width="16" height="16"/>
		<rect x="33" y="57" style="fill-rule:evenodd;clip-rule:evenodd;fill:#333333;" width="16" height="16"/>
		<rect x="50" y="23" style="fill-rule:evenodd;clip-rule:evenodd;fill:#333333;" width="7" height="8"/>
		<rect x="59" y="32" style="fill-rule:evenodd;clip-rule:evenodd;fill:#333333;" width="7" height="7"/>
		<rect x="59" y="23" style="fill-rule:evenodd;clip-rule:evenodd;fill:#333333;" width="7" height="8"/>
	</g>
	<path style="fill-rule:evenodd;clip-rule:evenodd;fill:#F2F2F2;" d="M67,86.862C67,88.043,66.043,89,64.862,89h-5.725
		C57.957,89,57,88.043,57,86.862v-0.725C57,84.957,57.957,84,59.138,84h5.725C66.043,84,67,84.957,67,86.138V86.862z"/>
	<path style="fill-rule:evenodd;clip-rule:evenodd;fill:#F2F2F2;" d="M43,86.862C43,88.043,42.043,89,40.862,89h-5.725
		C33.957,89,33,88.043,33,86.862v-0.725C33,84.957,33.957,84,35.138,84h5.725C42.043,84,43,84.957,43,86.138V86.862z"/>
</g>
</svg>
