<?xml version="1.0" encoding="utf-8"?>
<!-- Generator: Adobe Illustrator 16.0.0, SVG Export Plug-In . SVG Version: 6.00 Build 0)  -->
<!DOCTYPE svg PUBLIC "-//W3C//DTD SVG 1.1//EN" "http://www.w3.org/Graphics/SVG/1.1/DTD/svg11.dtd">
<svg version="1.1" id="Layer_1" xmlns="http://www.w3.org/2000/svg" xmlns:xlink="http://www.w3.org/1999/xlink" x="0px" y="0px"
	 width="100px" height="100px" viewBox="0 0 100 100" style="enable-background:new 0 0 100 100;" xml:space="preserve">
<g>
	<circle style="fill:#3C3C3B;" cx="50" cy="50" r="39.5"/>
	<path style="fill:none;" d="M36,55.939c1-0.084,3.188-0.129,4.734-0.129c4.179,0,8.156,0.325,12.031,0.915L36,36.384V55.939z"/>
	<path style="fill:#FFFFFF;" d="M79.667,66.711C76.1,64.092,73,61.854,68,60.095v1.049C73,62.589,75.973,64.471,79.667,66.711z"/>
	<path style="fill:#FFFFFF;" d="M40.721,55.811c-1.547,0-2.721,0.045-3.721,0.129v2.353c2-0.24,4.249-0.37,6.887-0.37
		c3.597,0,6.154,0.238,9.533,0.679l-1.58-1.875C47.963,56.136,44.899,55.811,40.721,55.811z"/>
	<path style="fill:#FFFFFF;" d="M33,56.156v2.469c1-0.127,2-0.24,3-0.333v-2.353C35,55.993,34,56.069,33,56.156z"/>
	<path style="fill:#FFFFFF;" d="M58,28v1.537c2,0.209,3.832,0.656,4.533,1.34C63.6,31.939,64,34.229,64,37.745v21.311
		c0-0.008-0.369-0.018-0.395-0.024l-0.152,0.01c-0.15-0.045-0.39-0.094-0.54-0.14c0.148,0.044,0.263-0.128,0.411-0.082L38.227,28H27
		v1.537c1,0.04,2.38,0.193,3.052,0.456c0.67,0.259,1.29,0.948,2.247,2.054L33,33.083v23.073v2.469v2.799
		c0,3.389-0.206,5.55-0.972,6.48C31.262,68.835,29,69.436,27,69.709V71h15v-1.291c-3-0.252-3.819-0.724-4.501-1.414
		C36.455,67.23,36,64.938,36,61.424v-3.132v-2.353V36.384l16.576,19.97l2.132,2.247C58.871,59.146,63,60.101,67,61.234v-1.14v-1.169
		V37.797c0-3.372,0.301-5.527,1.131-6.471C68.961,30.384,71,29.789,73,29.537V28H58z"/>
	<g>
		<path style="fill:#FFFFFF;" d="M32,56.156c-6,0.604-11.871,2.013-17.137,4.027l0.97,2.882C20.616,60.984,26,59.447,32,58.625
			V56.156z"/>
	</g>
</g>
</svg>
