<?xml version="1.0" encoding="utf-8"?>
<!-- Generator: Adobe Illustrator 16.0.0, SVG Export Plug-In . SVG Version: 6.00 Build 0)  -->
<!DOCTYPE svg PUBLIC "-//W3C//DTD SVG 1.1//EN" "http://www.w3.org/Graphics/SVG/1.1/DTD/svg11.dtd">
<svg version="1.1" id="Layer_1" xmlns="http://www.w3.org/2000/svg" xmlns:xlink="http://www.w3.org/1999/xlink" x="0px" y="0px"
	 width="100px" height="100px" viewBox="0 0 100 100" style="enable-background:new 0 0 100 100;" xml:space="preserve">
<g>
	<path style="fill-rule:evenodd;clip-rule:evenodd;fill:#333333;" d="M55.184,38.152C54.353,41.765,53.479,45.369,52.76,49
		c-0.109,0.533,0.434,1.29,0.854,1.805c2.922,3.518,5.941,6.972,8.816,10.526c0.697,0.858,1.229,1.986,1.456,3.069
		c0.944,4.48,1.762,8.978,2.612,13.472c0.497,2.644-0.747,4.846-2.957,5.288c-2.537,0.507-4.456-0.938-5.021-3.832
		c-0.785-4.046-1.531-8.098-2.331-12.143c-0.104-0.56-0.19-1.228-0.54-1.618c-2.683-3.028-5.429-5.998-8.419-9.275
		c-0.681,2.997-1.255,5.616-1.858,8.229c-0.17,0.687-0.33,1.404-0.678,1.996c-2.871,4.961-5.741,9.933-8.731,14.824
		c-1.249,2.035-3.743,2.491-5.586,1.297c-1.819-1.188-2.376-3.535-1.159-5.651c2.218-3.849,4.558-7.639,6.81-11.474
		c0.445-0.77,0.85-1.609,1.05-2.47c1.992-8.66,3.937-17.328,5.893-25.996c0.068-0.31,0.036-0.629,0.071-1.163
		c-2.304,1.519-4.396,2.789-4.722,5.795c-0.253,2.417-0.948,4.8-1.521,7.173c-0.461,1.877-1.845,2.839-3.323,2.449
		c-1.555-0.417-2.298-1.821-1.894-3.688c0.757-3.462,1.464-6.938,2.37-10.367c0.266-1.033,0.943-2.145,1.752-2.844
		c3.383-2.888,6.87-5.653,10.345-8.439c4.277-3.415,8.248-2.519,10.727,2.375c0.339,0.682,0.75,1.357,1.021,2.075
		c2.244,6.001,5.896,10.764,11.738,13.669c0.228,0.107,0.435,0.278,0.628,0.438c1.267,1.042,1.678,2.354,0.795,3.751
		c-0.923,1.444-2.388,1.558-3.734,0.67c-2.968-1.938-5.883-3.953-8.744-6.045c-0.635-0.455-1.022-1.302-1.437-2.018
		c-0.521-0.914-0.958-1.88-1.438-2.817C55.465,38.089,55.324,38.125,55.184,38.152z"/>
	<path style="fill-rule:evenodd;clip-rule:evenodd;fill:#333333;" d="M52.649,10.711c3.311,0.004,5.869,2.553,5.899,5.867
		c0.019,3.392-2.616,6.054-5.951,6.027c-3.257-0.038-5.93-2.676-5.952-5.891C46.61,13.387,49.295,10.706,52.649,10.711z"/>
</g>
</svg>
