<?xml version="1.0" encoding="utf-8"?>
<!-- Generator: Adobe Illustrator 16.0.0, SVG Export Plug-In . SVG Version: 6.00 Build 0)  -->
<!DOCTYPE svg PUBLIC "-//W3C//DTD SVG 1.1//EN" "http://www.w3.org/Graphics/SVG/1.1/DTD/svg11.dtd">
<svg version="1.1" id="Layer_1" xmlns="http://www.w3.org/2000/svg" xmlns:xlink="http://www.w3.org/1999/xlink" x="0px" y="0px"
	 width="100px" height="100px" viewBox="0 0 100 100" style="enable-background:new 0 0 100 100;" xml:space="preserve">
<g>
	<path style="fill:none;" d="M50,19.752c-17.719,0-32.139,14.416-32.139,32.137S32.281,84.025,50,84.025
		s32.137-14.416,32.137-32.137S67.719,19.752,50,19.752z M71.645,30.777l0.947,1.004l-1.615,1.525
		c-0.307-0.344-0.621-0.68-0.943-1.008L71.645,30.777z M65.967,26.277l1.16,0.746l-1.188,1.842c-0.379-0.26-0.764-0.51-1.156-0.752
		L65.967,26.277z M59.381,23.266l1.303,0.449l-0.703,2.049c-0.432-0.16-0.865-0.311-1.303-0.451L59.381,23.266z M52.223,21.916
		l1.371,0.121l-0.189,2.156c-0.455-0.051-0.912-0.092-1.373-0.119L52.223,21.916z M46.352,22.109l0.332,2.143
		c-0.459,0.061-0.912,0.129-1.363,0.211l-0.332-2.145L46.352,22.109z M39.336,23.912l0.84,2.012
		c-0.43,0.168-0.852,0.346-1.273,0.535l-0.84-2.018L39.336,23.912z M32.953,27.34l1.316,1.779c-0.373,0.268-0.74,0.543-1.104,0.828
		l-1.32-1.787L32.953,27.34z M27.578,32.193l1.734,1.439c-0.299,0.35-0.59,0.705-0.875,1.068l-1.74-1.445L27.578,32.193z
		 M23.521,38.193l2.062,1c-0.207,0.41-0.404,0.824-0.594,1.246l-2.07-1.004L23.521,38.193z M21.016,44.99l2.291,0.488
		c-0.105,0.445-0.195,0.896-0.275,1.35l-2.303-0.488L21.016,44.99z M20.209,52.189l2.398-0.078c0.006,0.463,0.023,0.922,0.053,1.379
		l-2.408,0.076L20.209,52.189z M21.146,59.371l2.35-0.658c0.117,0.447,0.244,0.889,0.381,1.324l-2.357,0.662L21.146,59.371z
		 M24.457,67.322l-0.682-1.201l2.164-1.223c0.221,0.404,0.449,0.801,0.689,1.193L24.457,67.322z M25.951,59.84l0.244-0.143
		l13.545-7.941c0-0.018-0.002-0.033-0.002-0.049c0-0.938,0.123-1.846,0.352-2.709l-6.979-5.766l0.205,0.055l8.449,2.203
		c0.561-0.77,1.227-1.457,1.969-2.049l-1.51-15.83l0.145,0.246L50.17,41.16c0.041-0.002,0.078-0.004,0.117-0.004
		c0.281,0,0.559,0.012,0.834,0.033l-2.826,2.316c-3.344,0.811-5.908,3.609-6.369,7.076l-4.736,8.186L25.951,59.84z M27.945,72.045
		l1.838-1.734c0.309,0.34,0.627,0.672,0.951,0.996l-1.842,1.74L27.945,72.045z M30.463,75.172l15.391-26.607L69.9,28.861
		l-0.172,0.287L54.297,55.244L31.238,74.523L30.463,75.172z M34.566,77.549l-1.156-0.748l1.383-2.146
		c0.379,0.256,0.768,0.506,1.16,0.742L34.566,77.549z M41.156,80.561l-1.305-0.449l0.836-2.43c0.43,0.16,0.865,0.307,1.305,0.445
		L41.156,80.561z M48.314,81.91l-1.373-0.121l0.227-2.572c0.455,0.053,0.914,0.092,1.373,0.121L48.314,81.91z M54.184,81.717
		l-0.395-2.545c0.461-0.057,0.914-0.125,1.365-0.205l0.393,2.539L54.184,81.717z M61.201,79.916l-0.984-2.359
		c0.43-0.164,0.854-0.34,1.275-0.525l0.98,2.354L61.201,79.916z M67.58,76.488l-1.504-2.037c0.379-0.264,0.75-0.533,1.111-0.816
		l1.502,2.031L67.58,76.488z M72.959,71.633l-1.924-1.594c0.305-0.346,0.6-0.697,0.889-1.057l1.914,1.588L72.959,71.633z
		 M77.016,65.633l-2.203-1.068c0.213-0.406,0.416-0.818,0.611-1.236l2.193,1.061L77.016,65.633z M79.521,58.836l-2.348-0.5
		c0.109-0.445,0.209-0.893,0.297-1.346l2.338,0.496L79.521,58.836z M80.341,51.637L78,51.713c0-0.002,0-0.004,0-0.006
		c0-0.461-0.024-0.918-0.044-1.373l2.34-0.076L80.341,51.637z M79.016,43.125l0.373,1.33l-2.215,0.621
		c-0.109-0.449-0.23-0.893-0.361-1.332L79.016,43.125z M76.078,36.506l0.68,1.199l-1.961,1.111
		c-0.213-0.406-0.439-0.809-0.674-1.203L76.078,36.506z M74.453,43.887l-13.625,8.207c-0.035,0.973-0.199,1.912-0.482,2.803
		l6.451,5.195l0.498,0.402l-8.785-2.18c-0.59,0.732-1.275,1.385-2.037,1.936l1.617,15.018l0.092,0.848l-8.355-13.871
		c-0.152-0.006-0.301-0.018-0.451-0.029l2.703-2.262c3.709-0.801,6.51-4.037,6.643-7.955l4.053-6.855l10.832-1.164L74.453,43.887z"
		/>
	<path style="fill:none;" d="M50.287,49.068c-1.455,0-2.637,1.182-2.637,2.639c0,1.455,1.182,2.637,2.637,2.637
		c1.459,0,2.641-1.182,2.641-2.637C52.928,50.25,51.746,49.068,50.287,49.068z"/>
	<path style="fill:none;" d="M36.709,15.627c0.4,0,0.814-0.051,1.229-0.143c0.342-0.113,0.686-0.229,1.031-0.332
		c0.557-0.238,1.047-0.541,1.4-0.896c0.383-0.389,0.572-0.791,0.502-1.08c-0.107-0.447-0.924-0.924-2.223-0.924
		c-0.436,0-0.885,0.053-1.334,0.16c-1.949,0.467-2.977,1.668-2.828,2.291C34.596,15.152,35.41,15.627,36.709,15.627z"/>
	<path style="fill:#3C3C3B;" d="M34.27,29.119l-1.316-1.779l-1.107,0.82l1.32,1.787C33.529,29.662,33.896,29.387,34.27,29.119z"/>
	<path style="fill:#3C3C3B;" d="M53.594,22.037l-1.371-0.121l-0.191,2.158c0.461,0.027,0.918,0.068,1.373,0.119L53.594,22.037z"/>
	<path style="fill:#3C3C3B;" d="M46.684,24.252l-0.332-2.143l-1.363,0.209l0.332,2.145C45.771,24.381,46.225,24.312,46.684,24.252z"
		/>
	<path style="fill:#3C3C3B;" d="M40.176,25.924l-0.84-2.012l-1.273,0.529l0.84,2.018C39.324,26.27,39.746,26.092,40.176,25.924z"/>
	<path style="fill:#3C3C3B;" d="M23.307,45.479l-2.291-0.488l-0.287,1.35l2.303,0.488C23.111,46.375,23.201,45.924,23.307,45.479z"
		/>
	<path style="fill:#3C3C3B;" d="M29.312,33.633l-1.734-1.439l-0.881,1.062l1.74,1.445C28.723,34.338,29.014,33.982,29.312,33.633z"
		/>
	<path style="fill:#3C3C3B;" d="M25.584,39.193l-2.062-1l-0.602,1.242l2.07,1.004C25.18,40.018,25.377,39.604,25.584,39.193z"/>
	<path style="fill:#3C3C3B;" d="M58.721,51.998c-0.133,3.918-2.934,7.154-6.643,7.955l-2.703,2.262
		c0.15,0.012,0.299,0.023,0.451,0.029l8.355,13.871l-0.092-0.848L56.473,60.25c0.762-0.551,1.447-1.203,2.037-1.936l8.785,2.18
		l-0.498-0.402l-6.451-5.195c0.283-0.891,0.447-1.83,0.482-2.803l13.625-8.207l-0.848,0.092l-10.832,1.164L58.721,51.998z"/>
	<path style="fill:#3C3C3B;" d="M60.684,23.715l-1.303-0.449l-0.703,2.047c0.438,0.141,0.871,0.291,1.303,0.451L60.684,23.715z"/>
	<path style="fill:#3C3C3B;" d="M50,13.545c-2.291,0-4.549,0.211-6.758,0.602c0.143-0.518,0.164-1.041,0.045-1.547
		c-0.412-1.721-2.232-2.83-4.639-2.83c-0.629,0-1.273,0.076-1.91,0.229c-3.145,0.752-5.193,3.07-4.664,5.279
		c0.191,0.812,0.711,1.484,1.445,1.971c-3.896,1.857-7.488,4.385-10.633,7.527c-7.242,7.242-11.229,16.871-11.229,27.111
		c0,10.242,3.986,19.871,11.229,27.113S39.76,90.23,50.002,90.23c10.24,0,19.869-3.988,27.111-11.23s11.229-16.869,11.229-27.111
		s-3.986-19.871-11.229-27.113C69.869,17.533,60.242,13.545,50,13.545z M37.314,12.412c0.449-0.107,0.898-0.16,1.334-0.16
		c1.299,0,2.115,0.477,2.223,0.924c0.07,0.289-0.119,0.691-0.502,1.08c-0.354,0.355-0.844,0.658-1.4,0.896
		c-0.346,0.104-0.689,0.219-1.031,0.332c-0.414,0.092-0.828,0.143-1.229,0.143c-1.299,0-2.113-0.475-2.223-0.924
		C34.338,14.08,35.365,12.879,37.314,12.412z M50,84.025c-17.719,0-32.139-14.416-32.139-32.137S32.281,19.752,50,19.752
		s32.137,14.416,32.137,32.137S67.719,84.025,50,84.025z"/>
	<path style="fill:#3C3C3B;" d="M76.758,37.705l-0.68-1.199l-1.955,1.107c0.234,0.395,0.461,0.797,0.674,1.203L76.758,37.705z"/>
	<path style="fill:#3C3C3B;" d="M22.607,52.111l-2.398,0.078l0.043,1.377l2.408-0.076C22.631,53.033,22.613,52.574,22.607,52.111z"
		/>
	<path style="fill:#3C3C3B;" d="M67.127,27.023l-1.16-0.746l-1.184,1.836c0.393,0.242,0.777,0.492,1.156,0.752L67.127,27.023z"/>
	<path style="fill:#3C3C3B;" d="M79.389,44.455l-0.373-1.33l-2.203,0.619c0.131,0.439,0.252,0.883,0.361,1.332L79.389,44.455z"/>
	<path style="fill:#3C3C3B;" d="M72.592,31.781l-0.947-1.004l-1.611,1.521c0.322,0.328,0.637,0.664,0.943,1.008L72.592,31.781z"/>
	<path style="fill:#3C3C3B;" d="M77.174,58.336l2.348,0.5l0.287-1.35l-2.338-0.496C77.383,57.443,77.283,57.891,77.174,58.336z"/>
	<path style="fill:#3C3C3B;" d="M66.076,74.451l1.504,2.037l1.109-0.822l-1.502-2.031C66.826,73.918,66.455,74.188,66.076,74.451z"
		/>
	<path style="fill:#3C3C3B;" d="M60.217,77.557l0.984,2.359l1.271-0.531l-0.98-2.354C61.07,77.217,60.646,77.393,60.217,77.557z"/>
	<path style="fill:#3C3C3B;" d="M53.789,79.172l0.395,2.545l1.363-0.211l-0.393-2.539C54.703,79.047,54.25,79.115,53.789,79.172z"/>
	<path style="fill:#3C3C3B;" d="M74.812,64.564l2.203,1.068l0.602-1.244l-2.193-1.061C75.229,63.746,75.025,64.158,74.812,64.564z"
		/>
	<path style="fill:#3C3C3B;" d="M23.496,58.713l-2.35,0.658l0.373,1.328l2.357-0.662C23.74,59.602,23.613,59.16,23.496,58.713z"/>
	<path style="fill:#3C3C3B;" d="M71.035,70.039l1.924,1.594l0.879-1.062l-1.914-1.588C71.635,69.342,71.34,69.693,71.035,70.039z"/>
	<path style="fill:#3C3C3B;" d="M46.941,81.789l1.373,0.121l0.227-2.572c-0.459-0.029-0.918-0.068-1.373-0.121L46.941,81.789z"/>
	<path style="fill:#3C3C3B;" d="M78,51.707c0,0.002,0,0.004,0,0.006l2.341-0.076l-0.05-1.379l-2.333,0.076
		C77.979,50.789,78,51.246,78,51.707z"/>
	<path style="fill:#3C3C3B;" d="M29.783,70.311l-1.838,1.734l0.947,1.002l1.842-1.74C30.41,70.982,30.092,70.65,29.783,70.311z"/>
	<path style="fill:#3C3C3B;" d="M39.852,80.111l1.305,0.449l0.836-2.434c-0.439-0.139-0.875-0.285-1.305-0.445L39.852,80.111z"/>
	<path style="fill:#3C3C3B;" d="M41.926,50.582c0.461-3.467,3.025-6.266,6.369-7.076l2.826-2.316
		c-0.275-0.021-0.553-0.033-0.834-0.033c-0.039,0-0.076,0.002-0.117,0.004l-7.801-13.303l-0.145-0.246l1.51,15.83
		c-0.742,0.592-1.408,1.279-1.969,2.049l-8.449-2.203l-0.205-0.055l6.979,5.766c-0.229,0.863-0.352,1.771-0.352,2.709
		c0,0.016,0.002,0.031,0.002,0.049l-13.545,7.941l-0.244,0.143l11.238-1.072L41.926,50.582z"/>
	<path style="fill:#3C3C3B;" d="M23.775,66.121l0.682,1.201l2.172-1.23c-0.24-0.393-0.469-0.789-0.689-1.193L23.775,66.121z"/>
	<path style="fill:#3C3C3B;" d="M33.41,76.801l1.156,0.748l1.387-2.152c-0.393-0.236-0.781-0.486-1.16-0.742L33.41,76.801z"/>
	<path style="fill:#3C3C3B;" d="M69.729,29.148l0.172-0.287L45.854,48.564L30.463,75.172l0.775-0.648l23.059-19.279L69.729,29.148z
		 M50.287,54.344c-1.455,0-2.637-1.182-2.637-2.637c0-1.457,1.182-2.639,2.637-2.639c1.459,0,2.641,1.182,2.641,2.639
		C52.928,53.162,51.746,54.344,50.287,54.344z"/>
</g>
</svg>
