<?xml version="1.0" encoding="utf-8"?>
<!-- Generator: Adobe Illustrator 16.0.0, SVG Export Plug-In . SVG Version: 6.00 Build 0)  -->
<!DOCTYPE svg PUBLIC "-//W3C//DTD SVG 1.1//EN" "http://www.w3.org/Graphics/SVG/1.1/DTD/svg11.dtd">
<svg version="1.1" id="Layer_1" xmlns="http://www.w3.org/2000/svg" xmlns:xlink="http://www.w3.org/1999/xlink" x="0px" y="0px"
	 width="100px" height="100px" viewBox="0 0 100 100" style="enable-background:new 0 0 100 100;" xml:space="preserve">
<path style="fill:#3C3C3B;" d="M15.169,83.825c-0.999,1.005-0.999,2.637-0.001,3.642l4.563,4.458
	c0.999,1.005,2.582,0.582,3.579-0.422l23.544-23.149l-7.216-8.209L15.169,83.825z"/>
<path style="fill:#3C3C3B;" d="M17.062,35.077c4.479-3.476,8.191-1.081,13.149,4.655c0.558,0.643,1.308-0.109,1.731-0.481
	c0.424-0.373,6.964-6.254,7.283-6.532c0.319-0.28,0.704-0.805,0.195-1.396s-2.371-2.997-3.563-4.556
	C27.186,15.42,59.589,7.728,54.608,7.603c-2.531-0.064-12.694-0.182-14.21-0.022c-6.16,0.654-13.885,6.403-17.777,9.079
	c-5.084,3.494-6.986,5.53-7.304,5.81c-1.438,1.258-0.23,4.162-2.838,6.445C9.72,31.338,8,29.511,6.406,30.908
	c-0.796,0.7-3.008,2.358-3.645,2.917c-0.639,0.56-0.751,1.506-0.103,2.257c0,0,6.062,6.7,6.572,7.288
	c0.509,0.592,1.874,1.091,2.723,0.345c0.851-0.745,3.029-2.656,3.399-2.985C15.728,40.407,15.11,36.592,17.062,35.077z"/>
<path style="fill:#3C3C3B;" d="M44.449,37.555c-0.574-0.664-1.285-0.679-1.907-0.134l-6.88,6.002
	c-0.541,0.476-0.612,1.361-0.129,1.919l39.791,45.276c0.929,1.072,2.542,1.187,3.605,0.253l4.657-3.897
	c1.061-0.933,1.172-2.561,0.244-3.634L44.449,37.555z"/>
<path style="fill:#3C3C3B;" d="M97.508,18.282c-0.357-2.37-1.587-1.869-2.221-0.865c-0.635,1.005-3.459,5.281-4.62,7.219
	c-1.153,1.926-3.988,5.713-9.277,1.974c-5.508-3.896-3.592-6.612-2.63-8.442c0.962-1.836,3.923-6.981,4.351-7.627
	c0.427-0.646-0.071-2.53-1.779-1.74c-1.713,0.79-12.104,4.921-13.547,10.838c-1.471,6.032,1.233,11.415-4.078,16.766l-6.439,6.718
	l6.469,7.52l7.938-7.535c1.893-1.902,5.929-3.748,9.585-2.919c7.834,1.774,12.106-1.17,14.681-6.031
	C98.244,29.807,97.863,20.652,97.508,18.282z"/>
</svg>
