<?xml version="1.0" encoding="utf-8"?>
<!-- Generator: Adobe Illustrator 16.0.0, SVG Export Plug-In . SVG Version: 6.00 Build 0)  -->
<!DOCTYPE svg PUBLIC "-//W3C//DTD SVG 1.1//EN" "http://www.w3.org/Graphics/SVG/1.1/DTD/svg11.dtd">
<svg version="1.1" id="Layer_1" xmlns="http://www.w3.org/2000/svg" xmlns:xlink="http://www.w3.org/1999/xlink" x="0px" y="0px"
	 width="100px" height="100px" viewBox="0 0 100 100" style="enable-background:new 0 0 100 100;" xml:space="preserve">
<g>
	<path style="fill:#333333;" d="M24.697,90.585c17.124,0,34.081,0,51.209,0c-1.391-0.912-2.625-1.737-3.881-2.527
		c-0.21-0.131-0.519-0.149-0.781-0.149c-13.995-0.007-27.99-0.007-41.986,0.002c-0.259,0-0.561,0.04-0.771,0.175
		C27.257,88.87,26.048,89.688,24.697,90.585z M33.036,84.743c11.49,0,22.812,0,34.32,0c-1.203-0.776-2.228-1.464-3.282-2.102
		c-0.296-0.18-0.682-0.299-1.026-0.301c-8.692-0.016-17.385-0.012-26.077-0.01c-0.221,0-0.494-0.049-0.651,0.059
		C35.25,83.126,34.206,83.898,33.036,84.743z"/>
	<path style="fill-rule:evenodd;clip-rule:evenodd;fill:#333333;" d="M24.697,90.585c1.351-0.896,2.56-1.715,3.789-2.5
		c0.211-0.135,0.513-0.175,0.771-0.175c13.996-0.009,27.991-0.009,41.986-0.002c0.263,0,0.571,0.019,0.781,0.149
		c1.256,0.79,2.49,1.615,3.881,2.527C58.778,90.585,41.821,90.585,24.697,90.585z"/>
	<path style="fill-rule:evenodd;clip-rule:evenodd;fill:#333333;" d="M33.036,84.743c1.17-0.845,2.214-1.617,3.283-2.354
		c0.157-0.107,0.431-0.059,0.651-0.059c8.692-0.002,17.385-0.006,26.077,0.01c0.345,0.002,0.73,0.121,1.026,0.301
		c1.055,0.638,2.079,1.325,3.282,2.102C55.848,84.743,44.526,84.743,33.036,84.743z"/>
	<path style="fill-rule:evenodd;clip-rule:evenodd;fill:#333333;" d="M24.094,46.659c0-6.193,0-12.386,0-18.578
		c-0.002-6.014,4.645-10.711,10.663-10.723c10.131-0.02,20.262-0.02,30.393,0c6.019,0.011,10.666,4.709,10.666,10.72
		c0,12.484,0,24.968,0,37.452c0,5.666-4.484,10.336-10.144,10.564c-0.371,0.015-0.742,0.018-1.113,0.018
		c-9.858,0-19.718,0.006-29.575-0.004c-5.734-0.006-10.076-3.804-10.844-9.463c-0.046-0.342-0.044-0.691-0.044-1.037
		C24.093,59.291,24.094,52.976,24.094,46.659z M38.299,44.894c2.079,0,4.158,0.012,6.237-0.002c2.304-0.016,4.001-1.652,4.03-3.961
		c0.039-3.044,0.042-6.09-0.001-9.134c-0.033-2.369-1.722-3.97-4.086-3.973c-4.159-0.004-8.317-0.005-12.476,0.001
		c-2.33,0.004-4.026,1.682-4.041,4.029c-0.02,2.994-0.019,5.99-0.001,8.984c0.016,2.38,1.709,4.044,4.099,4.055
		C34.14,44.901,36.219,44.896,38.299,44.894z M61.311,44.746c2.08,0,4.158,0.007,6.238-0.001c2.353-0.01,4.063-1.639,4.095-3.98
		c0.039-3.043,0.042-6.09,0-9.133c-0.034-2.342-1.76-3.955-4.114-3.955c-4.109,0-8.218-0.003-12.327,0
		c-2.491,0.001-4.149,1.633-4.162,4.121c-0.016,2.945-0.014,5.891-0.002,8.837c0.013,2.447,1.672,4.101,4.108,4.11
		C57.202,44.753,59.257,44.746,61.311,44.746z M49.952,20.304c-3.343,0-6.685-0.024-10.026,0.023
		c-0.55,0.008-1.179,0.215-1.624,0.535c-0.801,0.576-1.01,1.957-0.607,2.998c0.347,0.893,1.137,1.395,2.236,1.395
		c6.659,0.002,13.318,0.002,19.977,0c1.579,0,2.492-0.92,2.491-2.492c-0.002-1.57-0.897-2.457-2.496-2.459
		C56.586,20.302,53.269,20.304,49.952,20.304z M67.025,55.529c-2.441,0.017-4.325,1.952-4.311,4.427
		c0.017,2.385,1.97,4.275,4.4,4.258c2.389-0.018,4.304-1.975,4.291-4.384C71.394,57.451,69.419,55.513,67.025,55.529z
		 M37.193,59.897c0.001-2.453-1.93-4.384-4.369-4.368c-2.363,0.015-4.299,1.935-4.322,4.284c-0.022,2.438,1.914,4.397,4.35,4.401
		C35.265,64.219,37.192,62.302,37.193,59.897z"/>
</g>
</svg>
