<?xml version="1.0" encoding="utf-8"?>
<!-- Generator: Adobe Illustrator 16.0.0, SVG Export Plug-In . SVG Version: 6.00 Build 0)  -->
<!DOCTYPE svg PUBLIC "-//W3C//DTD SVG 1.1//EN" "http://www.w3.org/Graphics/SVG/1.1/DTD/svg11.dtd">
<svg version="1.1" id="Layer_1" xmlns="http://www.w3.org/2000/svg" xmlns:xlink="http://www.w3.org/1999/xlink" x="0px" y="0px"
	 width="100px" height="100px" viewBox="0 0 100 100" style="enable-background:new 0 0 100 100;" xml:space="preserve">
<g>
	<g>
		<path style="fill-rule:evenodd;clip-rule:evenodd;fill:#333333;" d="M72,87.613C72,90.036,70.036,92,67.613,92H32.387
			C29.964,92,28,90.036,28,87.613V13.387C28,10.964,29.964,9,32.387,9h35.227C70.036,9,72,10.964,72,13.387V87.613z"/>
		<rect x="31" y="17" style="fill-rule:evenodd;clip-rule:evenodd;fill:#F2F2F2;" width="37" height="64"/>
		<circle style="fill-rule:evenodd;clip-rule:evenodd;fill:#F2F2F2;" cx="49.545" cy="86.439" r="2.961"/>
		<circle style="fill-rule:evenodd;clip-rule:evenodd;fill:#F2F2F2;" cx="35.398" cy="12.637" r="1.535"/>
	</g>
	<g>
		<path style="fill:#3C3C3B;" d="M38.207,46.639c0-0.416,0-0.833,0-1.249c0.009-0.061,0.021-0.12,0.026-0.182
			c0.052-0.876,0.199-1.736,0.491-2.565c0.524-1.493,1.361-2.768,2.662-3.703c1.135-0.818,2.4-1.264,3.807-1.269
			c0.763-0.003,1.48,0.224,2.191,0.473c0.642,0.224,1.282,0.448,1.924,0.671c0.311,0.107,0.618,0.104,0.93-0.006
			c0.582-0.21,1.17-0.402,1.75-0.614c1.216-0.444,2.443-0.749,3.756-0.526c1.125,0.189,2.178,0.543,3.103,1.229
			c0.556,0.411,1.023,0.907,1.417,1.488c-0.049,0.032-0.09,0.062-0.134,0.09c-0.784,0.511-1.473,1.125-1.979,1.92
			c-0.938,1.471-1.095,3.073-0.742,4.743c0.296,1.402,1.07,2.514,2.18,3.402c0.43,0.343,0.891,0.637,1.406,0.837
			c0,0.019,0,0.038,0,0.058c-0.019,0.037-0.041,0.073-0.054,0.113c-0.559,1.692-1.4,3.235-2.472,4.658
			c-0.493,0.653-1.002,1.293-1.651,1.802c-0.785,0.614-1.662,0.897-2.663,0.719c-0.579-0.102-1.13-0.294-1.673-0.519
			c-0.626-0.26-1.272-0.447-1.952-0.505c-0.786-0.066-1.544,0.073-2.282,0.328c-0.486,0.167-0.96,0.37-1.449,0.529
			c-0.339,0.109-0.694,0.169-1.042,0.251c-0.189,0-0.378,0-0.568,0c-0.252-0.071-0.514-0.122-0.757-0.22
			c-0.683-0.272-1.226-0.747-1.708-1.283c-1.534-1.708-2.719-3.63-3.489-5.8c-0.464-1.304-0.808-2.634-0.945-4.013
			C38.259,47.21,38.234,46.925,38.207,46.639z"/>
		<path style="fill-rule:evenodd;clip-rule:evenodd;fill:#3C3C3B;" d="M55.177,30.861c0.038,0.534,0.025,1.067-0.074,1.596
			c-0.232,1.239-0.823,2.294-1.671,3.212c-0.646,0.699-1.399,1.237-2.33,1.496c-0.46,0.127-0.927,0.175-1.403,0.149
			c-0.113-0.006-0.136-0.051-0.143-0.153c-0.097-1.427,0.354-2.677,1.203-3.804c1.009-1.339,2.354-2.127,3.984-2.453
			c0.077-0.017,0.156-0.029,0.234-0.043C55.044,30.861,55.11,30.861,55.177,30.861z"/>
	</g>
</g>
</svg>
