<?xml version="1.0" encoding="utf-8"?>
<!-- Generator: Adobe Illustrator 16.0.0, SVG Export Plug-In . SVG Version: 6.00 Build 0)  -->
<!DOCTYPE svg PUBLIC "-//W3C//DTD SVG 1.1//EN" "http://www.w3.org/Graphics/SVG/1.1/DTD/svg11.dtd">
<svg version="1.1" id="Layer_1" xmlns="http://www.w3.org/2000/svg" xmlns:xlink="http://www.w3.org/1999/xlink" x="0px" y="0px"
	 width="100px" height="100px" viewBox="0 0 100 100" style="enable-background:new 0 0 100 100;" xml:space="preserve">
<path style="fill:none;" d="M5.508,21.398c-11.507,0-13.433,17.122-13.433,30.866C-7.927,64.974-6.896,84.153,5.508,84.152
	c12.584,0,13.717-19.062,13.717-31.888C19.225,37.503,17.016,21.398,5.508,21.398z"/>
<path style="fill:#3C3C3B;" d="M49.854,11.947c-20.787,0-35.729,15.08-35.729,37.699c0,20.127,14.531,38.406,35.734,38.406
	c21.41,0,36.016-18.275,36.016-38.406C85.875,26.848,70.459,11.947,49.854,11.947z M49.857,80.896
	C37.453,80.898,36.424,61.719,36.426,49.01c0-13.744,1.926-30.867,13.432-30.867c11.508,0,13.717,16.105,13.717,30.867
	C63.574,61.836,62.441,80.896,49.857,80.896z"/>
</svg>
