<?xml version="1.0" encoding="utf-8"?>
<!-- Generator: Adobe Illustrator 16.0.0, SVG Export Plug-In . SVG Version: 6.00 Build 0)  -->
<!DOCTYPE svg PUBLIC "-//W3C//DTD SVG 1.1//EN" "http://www.w3.org/Graphics/SVG/1.1/DTD/svg11.dtd">
<svg version="1.1" id="Layer_1" xmlns="http://www.w3.org/2000/svg" xmlns:xlink="http://www.w3.org/1999/xlink" x="0px" y="0px"
	 width="100px" height="100px" viewBox="0 0 100 100" style="enable-background:new 0 0 100 100;" xml:space="preserve">
<g>
	<path style="fill:#3C3C3B;" d="M31.737,63.857c-3.741,4.451-5.793,8.137-4.842,9.086c0.942,0.941,4.576-1.068,8.978-4.752
		c-1.06-0.271-1.94-0.748-2.628-1.438C32.479,65.992,31.989,65.014,31.737,63.857z"/>
	<path style="fill:#3C3C3B;" d="M83.815,28.986c3.461-8.146,4.748-15.451,5.105-17.907c-2.422,0.356-9.547,1.612-17.545,4.959
		c-6,2.509-12.482,6.188-17.852,11.552C38.751,42.368,29.368,60.928,34.22,65.781c0.857,0.854,2.165,1.291,3.887,1.291
		c7.812,0,22.562-8.855,34.306-20.598c5.26-5.261,8.896-11.594,11.401-17.488H83.815z M74.866,31.019
		c0,3.34-2.707,6.047-6.047,6.047c-3.338,0-6.045-2.707-6.045-6.047c0-3.338,2.707-6.045,6.045-6.045
		C72.159,24.974,74.866,27.681,74.866,31.019z"/>
	<path style="fill:#3C3C3B;" d="M49.001,81.34c-6.357,6.359-13.738,9.295-16.48,6.555c3.901-6.801,1.847-11.775,8.207-18.141
		c10.971-2.209,17.828-8.447,17.828-8.447S55.362,74.979,49.001,81.34z"/>
	<path style="fill:#3C3C3B;" d="M18.662,51c-6.362,6.36-9.298,13.739-6.554,16.483c6.801-3.904,11.775-1.85,18.14-8.209
		c2.209-10.969,8.45-17.831,8.45-17.831S25.022,44.636,18.662,51z"/>
</g>
</svg>
