<?xml version="1.0" encoding="utf-8"?>
<!-- Generator: Adobe Illustrator 16.0.0, SVG Export Plug-In . SVG Version: 6.00 Build 0)  -->
<!DOCTYPE svg PUBLIC "-//W3C//DTD SVG 1.1//EN" "http://www.w3.org/Graphics/SVG/1.1/DTD/svg11.dtd">
<svg version="1.1" id="Layer_1" xmlns="http://www.w3.org/2000/svg" xmlns:xlink="http://www.w3.org/1999/xlink" x="0px" y="0px"
	 width="100px" height="100px" viewBox="0 0 100 100" style="enable-background:new 0 0 100 100;" xml:space="preserve">
<g>
	<g>
		<path style="fill:#D41440;" d="M59.731,40.672c0-0.822-0.039-1.629-0.121-2.431l6.036-4.133c-0.425-1.931-1.034-3.79-1.805-5.563
			l-7.323,0.203c-0.818-1.404-1.773-2.721-2.852-3.924l2.451-6.896c-1.457-1.291-3.041-2.444-4.729-3.439l-5.801,4.464
			c-1.468-0.649-3.013-1.157-4.617-1.501l-2.067-7.02c-0.964-0.09-1.938-0.139-2.926-0.139c-0.986,0-1.962,0.049-2.924,0.139
			l-2.068,7.02c-1.604,0.344-3.15,0.852-4.617,1.501l-5.801-4.464c-1.688,0.996-3.271,2.15-4.729,3.439l2.453,6.896
			c-1.08,1.204-2.034,2.52-2.853,3.924l-7.323-0.203c-0.772,1.773-1.381,3.633-1.807,5.563l6.038,4.133
			c-0.081,0.802-0.123,1.608-0.123,2.431c0,0.82,0.042,1.631,0.123,2.43l-6.038,4.138c0.426,1.927,1.034,3.788,1.807,5.56
			l7.322-0.201c0.817,1.404,1.773,2.722,2.854,3.926l-2.453,6.895c1.458,1.291,3.042,2.445,4.729,3.44l5.801-4.463
			c1.467,0.647,3.013,1.157,4.617,1.501l2.068,7.017c0.962,0.095,1.938,0.142,2.924,0.142c0.987,0,1.962-0.047,2.926-0.142
			l2.067-7.017c1.604-0.344,3.149-0.854,4.617-1.501l5.801,4.463c1.688-0.995,3.271-2.149,4.729-3.44l-2.451-6.895
			c1.078-1.204,2.033-2.521,2.852-3.926l7.323,0.201c0.771-1.771,1.38-3.633,1.805-5.56l-6.036-4.138
			C59.692,42.303,59.731,41.492,59.731,40.672z M35.977,56.4c-8.788,0-15.91-7.125-15.91-15.913c0-8.789,7.122-15.913,15.91-15.913
			c8.789,0,15.913,7.125,15.913,15.913S44.766,56.4,35.977,56.4z"/>
	</g>
	<g>
		<path style="fill:#3C3C3B;" d="M93.687,70.176c0.014-0.66-0.002-1.324-0.056-1.996s-0.138-1.33-0.257-1.979l-6.064-1.637
			c-0.373-0.978-0.844-1.903-1.404-2.765l2.242-5.865c-0.922-0.961-1.939-1.828-3.031-2.588l-5.442,3.131
			c-0.938-0.422-1.927-0.743-2.951-0.958l-2.562-5.736c-0.66-0.015-1.324,0.005-1.996,0.058c-0.672,0.051-1.332,0.137-1.979,0.254
			l-1.635,6.066c-0.978,0.371-1.904,0.844-2.765,1.406l-5.865-2.243c-0.963,0.921-1.829,1.938-2.592,3.032l3.134,5.441
			c-0.423,0.938-0.744,1.926-0.959,2.95l-5.736,2.562c-0.014,0.66,0.004,1.324,0.06,1.994c0.052,0.672,0.137,1.332,0.254,1.979
			l6.064,1.638c0.372,0.978,0.846,1.903,1.407,2.766l-2.244,5.863c0.921,0.963,1.938,1.83,3.032,2.59l5.441-3.131
			c0.938,0.422,1.926,0.744,2.951,0.957l2.561,5.737c0.66,0.015,1.326-0.005,1.996-0.059c0.67-0.052,1.33-0.14,1.979-0.253
			l1.637-6.067c0.979-0.371,1.904-0.843,2.767-1.405l5.862,2.243c0.963-0.922,1.83-1.938,2.59-3.03l-3.131-5.443
			c0.422-0.938,0.742-1.926,0.957-2.95L93.687,70.176z M74.464,79.127c-5.184,0.406-9.715-3.467-10.123-8.647
			c-0.403-5.183,3.467-9.716,8.65-10.123c5.182-0.404,9.715,3.467,10.121,8.649C83.518,74.189,79.647,78.721,74.464,79.127z"/>
	</g>
</g>
</svg>
