<?xml version="1.0" encoding="utf-8"?>
<!-- Generator: Adobe Illustrator 16.0.0, SVG Export Plug-In . SVG Version: 6.00 Build 0)  -->
<!DOCTYPE svg PUBLIC "-//W3C//DTD SVG 1.1//EN" "http://www.w3.org/Graphics/SVG/1.1/DTD/svg11.dtd">
<svg version="1.1" id="Layer_1" xmlns="http://www.w3.org/2000/svg" xmlns:xlink="http://www.w3.org/1999/xlink" x="0px" y="0px"
	 width="100px" height="100px" viewBox="0 0 100 100" style="enable-background:new 0 0 100 100;" xml:space="preserve">
<g>
	<g>
		<path style="fill:#009245;" d="M74.973,60.734c0.541,0,1.07-0.024,1.598-0.078l2.713,3.966c1.27-0.276,2.492-0.679,3.658-1.186
			l-0.137-4.811c0.924-0.539,1.791-1.169,2.58-1.875l4.533,1.611c0.848-0.958,1.607-2.001,2.258-3.108l-2.93-3.814
			c0.426-0.964,0.758-1.978,0.988-3.033l4.609-1.358c0.061-0.631,0.094-1.272,0.094-1.923c0-0.648-0.033-1.29-0.094-1.922
			l-4.609-1.357c-0.23-1.056-0.562-2.072-0.988-3.037l2.93-3.811c-0.65-1.107-1.412-2.147-2.258-3.107l-4.533,1.611
			c-0.789-0.708-1.656-1.338-2.58-1.874l0.137-4.812c-1.166-0.509-2.389-0.908-3.658-1.188l-2.713,3.969
			c-0.527-0.051-1.057-0.08-1.598-0.08c-0.539,0-1.072,0.029-1.6,0.08l-2.717-3.969c-1.266,0.28-2.49,0.68-3.654,1.188l0.133,4.811
			c-0.924,0.538-1.789,1.168-2.58,1.876l-4.529-1.611c-0.852,0.96-1.609,2-2.264,3.107l2.934,3.811
			c-0.426,0.965-0.76,1.981-0.984,3.037l-4.613,1.357c-0.061,0.632-0.094,1.273-0.094,1.922c0,0.65,0.033,1.292,0.094,1.923
			l4.613,1.358c0.225,1.056,0.559,2.069,0.984,3.033l-2.934,3.814c0.654,1.107,1.412,2.147,2.264,3.108l4.529-1.611
			c0.791,0.706,1.656,1.336,2.58,1.875l-0.133,4.811c1.164,0.507,2.389,0.909,3.654,1.186l2.717-3.966
			C73.9,60.71,74.434,60.734,74.973,60.734z M64.637,45.125c0-5.774,4.682-10.454,10.457-10.454c5.777,0,10.459,4.68,10.459,10.454
			c0,5.776-4.686,10.456-10.459,10.456C69.318,55.581,64.637,50.901,64.637,45.125z"/>
	</g>
	<g>
		<path style="fill:#D41440;" d="M55.584,83.051c0.432,0.008,0.869-0.003,1.311-0.038c0.441-0.033,0.875-0.09,1.301-0.169
			l1.078-3.985c0.639-0.245,1.25-0.555,1.814-0.924l3.855,1.476c0.631-0.606,1.199-1.275,1.699-1.992l-2.055-3.577
			c0.277-0.616,0.488-1.267,0.627-1.938l3.771-1.686c0.008-0.43-0.004-0.867-0.041-1.311c-0.031-0.441-0.09-0.874-0.164-1.3
			l-3.988-1.076c-0.244-0.643-0.553-1.251-0.922-1.815l1.473-3.854c-0.605-0.633-1.275-1.203-1.994-1.704l-3.576,2.062
			c-0.613-0.279-1.262-0.491-1.938-0.631l-1.686-3.771c-0.432-0.009-0.867,0.004-1.309,0.039c-0.439,0.034-0.875,0.091-1.297,0.165
			l-1.078,3.987c-0.645,0.245-1.25,0.556-1.818,0.924l-3.854-1.474c-0.633,0.604-1.203,1.272-1.701,1.992l2.057,3.578
			c-0.277,0.615-0.486,1.264-0.629,1.938l-3.77,1.681c-0.012,0.435,0.002,0.872,0.037,1.312c0.035,0.441,0.094,0.874,0.168,1.299
			l3.988,1.077c0.24,0.645,0.553,1.253,0.92,1.818l-1.473,3.852c0.607,0.635,1.273,1.203,1.992,1.702l3.576-2.057
			c0.617,0.278,1.266,0.488,1.938,0.629L55.584,83.051z M49.701,70.417c-0.27-3.406,2.277-6.385,5.682-6.652
			c3.406-0.267,6.387,2.277,6.652,5.684c0.268,3.405-2.275,6.384-5.684,6.651C52.945,76.366,49.969,73.824,49.701,70.417z"/>
	</g>
	<g>
		<path style="fill:#3FB4FF;" d="M53.445,33.072c0.428,0.078,0.859,0.139,1.301,0.174c0.441,0.039,0.879,0.053,1.312,0.044
			l1.705-3.76c0.672-0.137,1.324-0.343,1.941-0.616l3.564,2.077c0.725-0.494,1.393-1.063,2.004-1.689l-1.453-3.863
			c0.373-0.563,0.688-1.172,0.934-1.812l3.992-1.052c0.078-0.427,0.139-0.859,0.176-1.302c0.039-0.438,0.053-0.877,0.045-1.31
			l-3.76-1.704c-0.137-0.675-0.346-1.327-0.619-1.943l2.078-3.564c-0.494-0.722-1.062-1.394-1.689-2.004l-3.863,1.455
			c-0.564-0.374-1.17-0.689-1.812-0.937l-1.055-3.992c-0.422-0.078-0.855-0.136-1.297-0.173c-0.439-0.039-0.877-0.052-1.309-0.047
			l-1.707,3.762c-0.674,0.136-1.324,0.347-1.943,0.616l-3.566-2.077c-0.721,0.495-1.389,1.062-2,1.69l1.453,3.864
			c-0.373,0.562-0.688,1.17-0.936,1.81l-3.994,1.052c-0.076,0.426-0.137,0.859-0.17,1.301c-0.041,0.439-0.051,0.879-0.049,1.309
			l3.762,1.708c0.137,0.675,0.344,1.325,0.619,1.942l-2.078,3.563c0.494,0.725,1.062,1.394,1.688,2.002l3.865-1.45
			c0.561,0.373,1.168,0.686,1.811,0.934L53.445,33.072z M49.684,19.652c0.287-3.403,3.281-5.93,6.682-5.644
			c3.404,0.285,5.934,3.278,5.648,6.684c-0.289,3.403-3.281,5.932-6.686,5.645C51.922,26.05,49.396,23.059,49.684,19.652z"/>
	</g>
	<g>
		<path style="fill:#F1861E;" d="M21.516,88.22c0.527,0.116,1.051,0.208,1.578,0.268l1.793,4.459
			c1.299,0.003,2.578-0.124,3.828-0.369l0.908-4.726c1.014-0.329,1.996-0.755,2.922-1.275l4.076,2.553
			c1.037-0.755,2.002-1.608,2.875-2.548l-2.039-4.357c0.625-0.849,1.17-1.769,1.617-2.749l4.797-0.333
			c0.195-0.604,0.365-1.223,0.506-1.855c0.141-0.636,0.246-1.267,0.324-1.897l-4.213-2.32c0.008-1.08-0.098-2.145-0.305-3.179
			l3.684-3.089c-0.396-1.224-0.914-2.402-1.537-3.521l-4.77,0.596c-0.621-0.864-1.33-1.664-2.115-2.387l1.168-4.67
			c-1.029-0.749-2.137-1.403-3.314-1.948l-3.506,3.288c-0.504-0.165-1.014-0.307-1.543-0.423c-0.525-0.116-1.053-0.203-1.576-0.265
			l-1.803-4.463c-1.291,0-2.576,0.125-3.82,0.371l-0.908,4.728c-1.018,0.327-2,0.753-2.926,1.274l-4.076-2.551
			c-1.033,0.754-2,1.604-2.875,2.547l2.039,4.354c-0.623,0.851-1.168,1.771-1.617,2.753l-4.795,0.33
			c-0.199,0.604-0.367,1.222-0.508,1.854c-0.141,0.636-0.246,1.269-0.322,1.9l4.209,2.321c-0.006,1.078,0.1,2.142,0.309,3.176
			l-3.686,3.092c0.398,1.221,0.918,2.401,1.537,3.521l4.771-0.598c0.619,0.863,1.328,1.663,2.115,2.389l-1.168,4.668
			c1.027,0.747,2.137,1.402,3.311,1.946l3.514-3.286C20.473,87.966,20.988,88.104,21.516,88.22z M14.791,70.748
			c1.246-5.64,6.828-9.198,12.467-7.953c5.639,1.246,9.201,6.824,7.955,12.466c-1.248,5.639-6.828,9.2-12.467,7.955
			S13.545,76.388,14.791,70.748z"/>
	</g>
</g>
</svg>
