<?xml version="1.0" encoding="utf-8"?>
<!-- Generator: Adobe Illustrator 16.0.0, SVG Export Plug-In . SVG Version: 6.00 Build 0)  -->
<!DOCTYPE svg PUBLIC "-//W3C//DTD SVG 1.1//EN" "http://www.w3.org/Graphics/SVG/1.1/DTD/svg11.dtd">
<svg version="1.1" id="Layer_1" xmlns="http://www.w3.org/2000/svg" xmlns:xlink="http://www.w3.org/1999/xlink" x="0px" y="0px"
	 width="100px" height="100px" viewBox="0 0 100 100" style="enable-background:new 0 0 100 100;" xml:space="preserve">
<g>
	<path style="fill-rule:evenodd;clip-rule:evenodd;fill:#3C3C3B;" d="M28.445,72.614c0.02,0.238-0.037,0.524,0.075,0.708
		c0.523,0.858,1.075,1.701,1.652,2.525c0.514,0.735,1.071,1.438,1.641,2.195c0.155-0.101,0.3-0.192,0.459-0.295
		c0.288,1.444,1.158,2.528,2.033,3.603c0.129,0.157,0.425,0.298,0.615,0.268c0.598-0.095,0.92,0.165,1.27,0.623
		c0.767,1.002,1.696,1.838,2.953,2.261c-0.193,0.303-0.38,0.592-0.551,0.858c1.492,0.835,2.936,1.645,4.379,2.455
		c0.045-0.062,0.088-0.121,0.133-0.182c-0.088-0.207-0.175-0.415-0.263-0.623c0.031-0.025,0.062-0.05,0.092-0.075
		c0.222,0.211,0.477,0.396,0.661,0.635c1.981,2.556,4.698,3.672,7.812,4.064c1.039,0.13,2.06,0.393,3.089,0.595
		c-0.015,0.091-0.028,0.182-0.042,0.271c-2.405-0.221-4.863-0.199-7.205-0.71c-6.604-1.44-12.19-4.861-17.041-9.488
		c-6.598-6.291-11.106-13.831-13.248-22.729c-0.845-3.512-1.163-7.071-1.018-10.688c0.106-2.635,0.286-5.303-0.002-7.906
		c-0.273-2.484,0.452-4.646,1.265-6.84c0.725-1.959,1.573-3.874,2.385-5.802c0.083-0.199,0.251-0.381,0.422-0.521
		c0.377-0.306,0.816-0.545,1.163-0.881c0.202-0.195,0.301-0.515,0.401-0.794c1.413-3.888,3.832-7.041,6.988-9.672
		c0.896-0.748,1.731-1.571,2.634-2.394c0.08,0.13,0.171,0.277,0.273,0.444c3.725-3.152,8.246-4.793,12.65-6.649
		c0.312-0.13,0.769,0.138,1.142,0.092c0.755-0.092,1.497-0.279,2.246-0.413c0.329-0.059,0.665-0.085,1.036,0.033
		c-0.365,0.206-0.732,0.413-1.159,0.653c1.303,0.083,2.529,0.161,3.876,0.247c-0.341,0.173-0.587,0.297-0.832,0.422
		c0.011,0.062,0.023,0.124,0.035,0.187c1.912-0.128,3.823-0.254,5.784-0.385c0,0.008,0-0.168,0-0.389
		c0.136,0.012,0.244,0.001,0.338,0.033c2.751,0.931,5.583,1.637,8.166,3.04c0.359,0.196,0.931,0.007,1.403-0.017
		c0.591-0.029,1.182-0.132,1.767-0.094c0.489,0.032,0.791,0.362,1.127,0.783c0.584,0.73,1.407,1.272,2.129,1.893
		c0.069-0.072,0.137-0.146,0.204-0.219c-0.264-0.308-0.528-0.614-0.792-0.923c0.057-0.068,0.114-0.139,0.171-0.207
		c1.579,1.211,3.233,2.339,4.724,3.652c3.185,2.806,5.711,6.121,7.249,10.117c0.111,0.294,0.68,0.727-0.037,1.06
		c-0.046,0.021,0.014,0.306,0.047,0.464c0.453,2.175,0.912,4.348,1.367,6.522c0.017,0.077,0.002,0.16,0.002,0.484
		c-0.885-2.808-1.638-5.422-3.065-7.594c-0.477,0.081-0.846,0.123-1.203,0.212c-0.203,0.052-0.562,0.218-0.551,0.272
		c0.135,0.681,0.315,1.352,0.527,2.012c0.014,0.044,0.371-0.022,0.724-0.05c0.758,1.365,0.634,3.077,1.027,4.69
		c-0.282-0.396-0.563-0.793-0.844-1.188c-0.082,0.04-0.163,0.08-0.243,0.121c0.382,0.979,0.765,1.958,1.177,3.014
		c-0.603,0.771-0.268,1.717,0.021,2.626c0.06,0.188,0.48,0.263,0.729,0.388c-0.404,1.461-0.832,3.007-1.235,4.466
		c-0.056-0.12-0.188-0.401-0.32-0.682c-0.068-0.001-0.137-0.003-0.206-0.004c0,1.259,0,2.518,0,3.776c-0.076,0-0.152,0-0.228-0.001
		c-0.029-0.41-0.059-0.822-0.094-1.292c-0.937,2.238-1.836,4.387-2.736,6.538c-0.157-0.181-0.396-0.456-0.698-0.801
		c-0.456,0.822-1.187,1.447-0.681,2.528c0.132,0.28-0.2,0.777-0.489,1.142c-0.022-0.189-0.047-0.381-0.083-0.665
		c-1.063,0.916-2.054,1.788-3.062,2.637c-3.017,2.536-6.406,4.291-10.338,4.895c-3.37,0.518-6.671,0.217-9.91-0.83
		c-0.301-0.098-0.605-0.18-0.908-0.271c-0.068,0.081-0.137,0.162-0.205,0.242c0.367,0.367,0.679,0.825,1.111,1.082
		c1.455,0.862,3.087,1.192,4.748,1.339c1.322,0.117,2.654,0.143,3.935,0.205c-4.133,1.917-14.849-1.513-17.776-7.369
		c1.291,1.192,2.637,2.436,3.981,3.678c0.066-0.067,0.134-0.135,0.201-0.202c-0.579-0.685-1.159-1.37-1.737-2.056
		c0.017-0.015,0.033-0.031,0.05-0.047c0.836,0.685,1.66,1.385,2.514,2.046c0.361,0.28,0.804,0.456,1.183,0.719
		c0.427,0.296,0.74,0.252,1.026-0.307c-0.194-0.17-0.411-0.354-0.625-0.543c-1.347-1.187-2.743-2.32-4.029-3.568
		c-3.343-3.245-4.551-7.271-4.361-11.863c0.099-2.35,1.032-4.433,2.116-6.325c1.482-2.586,3.312-5.025,6.199-6.375
		c4.89-2.284,10.372-1.161,14.147,3.077c-0.238-0.11-0.346-0.142-0.433-0.203c-3.961-2.787-8.176-3.097-12.513-1.087
		c-4.343,2.014-6.606,5.577-7.176,10.272c-0.054,0.432-0.161,0.893-0.066,1.298c0.413,1.747,0.825,3.5,1.366,5.208
		c0.565,1.787,1.627,3.312,2.876,4.702c1.269,1.413,2.757,2.542,4.438,3.419c1.661,0.868,3.429,1.393,5.292,1.529
		c0.78,0.058,1.588,0.021,2.356-0.116c1.314-0.235,2.646-0.479,3.897-0.924c0.895-0.316,1.686-0.945,2.493-1.479
		c0.415-0.275,0.766-0.647,1.22-0.902c-0.178,0.242-0.354,0.482-0.53,0.725c0.042,0.055,0.084,0.11,0.126,0.165
		c0.34-0.187,0.721-0.325,1.016-0.568c1.552-1.282,3.104-2.563,4.601-3.91c0.296-0.267,0.501-0.818,0.476-1.222
		c-0.068-1.052,0.216-1.809,1.26-2.179c0.123-0.044,0.294-0.114,0.335-0.215c0.636-1.57,1.441-3.099,1.377-5.011
		c-0.197,0.23-0.303,0.354-0.519,0.606c0.742-2.979,0.618-5.869,0.341-8.686c-0.543-5.521-3.011-10.205-6.812-14.273
		c-4.635-4.963-10.404-6.557-16.936-6.164c-1.382,0.083-2.758,0.246-4.205,0.379c0.207-0.224,0.386-0.416,0.707-0.759
		c-0.394,0-0.615-0.021-0.832,0.003c-1.792,0.197-3.416,0.778-4.901,1.848c-0.733,0.528-1.652,0.801-2.49,1.182
		c-0.205,0.095-0.42,0.166-0.63,0.247c0.02,0.078,0.042,0.154,0.062,0.232c0.501-0.099,1.002-0.196,1.503-0.296
		c0.021,0.075,0.043,0.149,0.063,0.224c-0.468,0.15-0.93,0.411-1.404,0.433c-2.083,0.097-3.861,0.832-5.309,2.345
		c-0.166,0.172-0.328,0.348-0.623,0.662c0.33-0.077,0.478-0.1,0.616-0.148c0.143-0.053,0.275-0.132,0.511-0.248
		c-0.226,0.617-0.529,0.83-1.098,0.887c-0.55,0.057-1.102,0.299-1.604,0.555c-2.739,1.397-7.825,6.415-9.321,9.176
		c0.184,0.091,0.365,0.18,0.642,0.316c-0.292,0.624-0.537,1.281-0.889,1.877c-1.443,2.44-2.469,4.981-2.543,7.89
		c-0.073,2.879-0.403,5.749-0.524,8.627c-0.059,1.417,0.187,2.818,0.977,4.067c0.116,0.184,0.156,0.481,0.103,0.694
		c-0.312,1.219-0.037,2.31,0.595,3.19c-0.074,0.372-0.225,0.652-0.153,0.851c0.287,0.79,0.55,1.616,1.006,2.308
		c0.292,0.44,0.898,0.682,1.378,0.988c0.488,0.312,1.149,0.483,1.459,0.914c0.654,0.912,1.127,1.953,1.675,2.941
		c-0.066,0.062-0.133,0.127-0.198,0.188c-0.41-0.265-0.818-0.528-1.382-0.893c0.459,1.562,1.302,2.762,2.143,3.951
		c-0.524,0.872-0.46,1.029,0.936,2.329C28.582,72.556,28.514,72.585,28.445,72.614z"/>
</g>
</svg>
