<?xml version="1.0" encoding="utf-8"?>
<!-- Generator: Adobe Illustrator 16.0.0, SVG Export Plug-In . SVG Version: 6.00 Build 0)  -->
<!DOCTYPE svg PUBLIC "-//W3C//DTD SVG 1.1//EN" "http://www.w3.org/Graphics/SVG/1.1/DTD/svg11.dtd">
<svg version="1.1" id="Layer_1" xmlns="http://www.w3.org/2000/svg" xmlns:xlink="http://www.w3.org/1999/xlink" x="0px" y="0px"
	 width="100px" height="100px" viewBox="0 0 100 100" style="enable-background:new 0 0 100 100;" xml:space="preserve">
<g>
	<path style="fill:#3C3C3B;" d="M62,38v0.022c3,3.09,4.818,7.461,4.795,12.152c-0.018,3.798-1.366,7.539-3.722,10.521L47.061,87.929
		c20.976,1.585,39.25-14.242,40.836-35.219C88.271,47.759,87.654,43,86.135,38H62z"/>
	<path style="fill:#3C3C3B;" d="M44.886,33.885C46.459,33.39,48.101,33,49.751,33h34.346c-9.361-18-32.22-26.415-51.059-17.053
		c-4.244,2.11-8.04,5.041-11.211,8.523l11.919,20.635C35.343,39.958,39.354,35.625,44.886,33.885z"/>
	<circle style="fill:#3C3C3B;" cx="50.092" cy="50.21" r="11.851"/>
	<path style="fill:#3C3C3B;" d="M39.077,63.047c-2.461-2.029-4.3-4.71-5.31-7.734L18.465,28.785
		C6.751,46.259,11.42,69.918,28.894,81.631c3.896,2.612,8.23,4.469,12.773,5.501l12.134-20.653
		C48.808,67.653,43.342,66.564,39.077,63.047z"/>
</g>
</svg>
