<?xml version="1.0" encoding="utf-8"?>
<!-- Generator: Adobe Illustrator 16.0.0, SVG Export Plug-In . SVG Version: 6.00 Build 0)  -->
<!DOCTYPE svg PUBLIC "-//W3C//DTD SVG 1.1//EN" "http://www.w3.org/Graphics/SVG/1.1/DTD/svg11.dtd">
<svg version="1.1" id="Layer_1" xmlns="http://www.w3.org/2000/svg" xmlns:xlink="http://www.w3.org/1999/xlink" x="0px" y="0px"
	 width="100px" height="100px" viewBox="0 0 100 100" style="enable-background:new 0 0 100 100;" xml:space="preserve">
<g id="Layer_4">
	<g>
		<g>
			<path style="fill:#333333;" d="M60.652,76.5H37.592l-0.006-1.434c0-0.074-0.131-7.711-6.156-15.768
				c-5.168-6.898-7.898-15.976-7.898-25.125C23.531,19.581,35.137,7.5,49.955,7.5h0.07c7.084,0,13.713,3.325,18.678,8.182
				c5.008,4.898,7.766,11.795,7.766,18.852c0,9.037-2.764,17.66-7.99,24.646c-6.037,8.063-6.27,15.784-6.27,15.86l-0.031,1.46
				H60.652z M40.592,72.5h18.629c0.352-2,1.688-8.809,6.764-15.593c4.822-6.442,7.371-13.984,7.371-22.347
				c0-12.869-10.264-22.824-23.367-22.843C36.9,11.736,26.646,21.895,26.646,34.758c0,8.469,2.516,15.781,7.275,22.143
				C38.99,63.671,40.27,70.5,40.592,72.5z"/>
		</g>
		<g>
			<path style="fill:#333333;" d="M61.809,80.5H38.453c-0.859,0-1.557-0.641-1.557-1.5s0.697-1.5,1.557-1.5h23.355
				c0.859,0,1.559,0.641,1.559,1.5S62.67,80.5,61.809,80.5z"/>
		</g>
		<g>
			<path style="fill:#333333;" d="M61.809,84.5H38.453c-0.859,0-1.557-0.641-1.557-1.5s0.697-1.5,1.557-1.5h23.355
				c0.859,0,1.559,0.641,1.559,1.5S62.67,84.5,61.809,84.5z"/>
		</g>
		<g>
			<path style="fill:#333333;" d="M61.291,88.5H38.453c-0.859,0-1.557-0.641-1.557-1.5s0.697-1.5,1.557-1.5h22.838
				c0.859,0,1.557,0.641,1.557,1.5S62.15,88.5,61.291,88.5z"/>
		</g>
		<g>
			<path style="fill:#333333;" d="M59.732,92.5H40.012c-0.861,0-1.559-0.641-1.559-1.5s0.697-1.5,1.559-1.5h19.723
				c0.859,0,1.557,0.641,1.557,1.5S60.594,92.5,59.732,92.5z"/>
		</g>
		<g>
			<g>
				<g>
					<path style="fill:#3C3C3B;" d="M43.828,45.416c-0.75,0-1.5-0.811-1.5-1.812v-5.435c0-1,0.75-1.812,1.5-1.812
						s1.5,0.812,1.5,1.812v5.435C45.328,44.605,44.578,45.416,43.828,45.416z"/>
				</g>
				<g>
					<path style="fill:#3C3C3B;" d="M51.828,46.322c-0.75,0-1.5-0.812-1.5-1.812v-8.15c0-1,0.75-1.812,1.5-1.812
						s1.5,0.812,1.5,1.812v8.15C53.328,45.511,52.578,46.322,51.828,46.322z"/>
				</g>
				<g>
					<path style="fill:#3C3C3B;" d="M47.828,46.322c-1.002,0-1.5-0.812-1.5-1.812v-8.15c0-1,0.498-1.812,1.5-1.812
						c1,0,1.5,0.812,1.5,1.812v8.15C49.328,45.511,48.828,46.322,47.828,46.322z"/>
				</g>
				<g>
					<path style="fill:#3C3C3B;" d="M55.828,45.416c-0.859,0-1.5-0.811-1.5-1.812v-5.435c0-1,0.641-1.812,1.5-1.812
						c0.857,0,1.5,0.812,1.5,1.812v5.435C57.328,44.605,56.686,45.416,55.828,45.416z"/>
				</g>
			</g>
		</g>
	</g>
</g>
</svg>
