<?xml version="1.0" encoding="utf-8"?>
<!-- Generator: Adobe Illustrator 16.0.0, SVG Export Plug-In . SVG Version: 6.00 Build 0)  -->
<!DOCTYPE svg PUBLIC "-//W3C//DTD SVG 1.1//EN" "http://www.w3.org/Graphics/SVG/1.1/DTD/svg11.dtd">
<svg version="1.1" id="Layer_1" xmlns="http://www.w3.org/2000/svg" xmlns:xlink="http://www.w3.org/1999/xlink" x="0px" y="0px"
	 width="100px" height="100px" viewBox="0 0 100 100" style="enable-background:new 0 0 100 100;" xml:space="preserve">
<g>
	<path style="fill:#3C3C3B;" d="M86,13v4H14v-4H9v75h5V77h72v11h5V13H86z M86,22v13H14V22H86z M14,40h72v14H14V40z M14,72V59h72v13
		H14z"/>
	<path style="fill:#009245;" d="M84,42.792C84,43.459,83.459,44,82.792,44h-2.584C79.541,44,79,43.459,79,42.792V31.208
		C79,30.541,79.541,30,80.208,30h2.584C83.459,30,84,30.541,84,31.208V42.792z"/>
	<path style="fill:#009245;" d="M78,42.792C78,43.459,77.459,44,76.792,44h-2.584C73.541,44,73,43.459,73,42.792V31.208
		C73,30.541,73.541,30,74.208,30h2.584C77.459,30,78,30.541,78,31.208V42.792z"/>
	<path style="fill:#D41440;" d="M21,61.792C21,62.459,20.459,63,19.792,63h-2.584C16.541,63,16,62.459,16,61.792V50.208
		C16,49.541,16.541,49,17.208,49h2.584C20.459,49,21,49.541,21,50.208V61.792z"/>
	<path style="fill:#D41440;" d="M63,61.792C63,62.459,62.459,63,61.792,63h-2.584C58.541,63,58,62.459,58,61.792V50.208
		C58,49.541,58.541,49,59.208,49h2.584C62.459,49,63,49.541,63,50.208V61.792z"/>
	<path style="fill:#D41440;" d="M57,61.792C57,62.459,56.459,63,55.792,63h-2.584C52.541,63,52,62.459,52,61.792V50.208
		C52,49.541,52.541,49,53.208,49h2.584C56.459,49,57,49.541,57,50.208V61.792z"/>
	<path style="fill:#3FB4FF;" d="M21,42.792C21,43.459,20.459,44,19.792,44h-2.584C16.541,44,16,43.459,16,42.792V31.208
		C16,30.541,16.541,30,17.208,30h2.584C20.459,30,21,30.541,21,31.208V42.792z"/>
	<path style="fill:#3FB4FF;" d="M33,42.792C33,43.459,32.459,44,31.792,44h-2.584C28.541,44,28,43.459,28,42.792V31.208
		C28,30.541,28.541,30,29.208,30h2.584C32.459,30,33,30.541,33,31.208V42.792z"/>
	<path style="fill:#3FB4FF;" d="M27,42.792C27,43.459,26.459,44,25.792,44h-2.584C22.541,44,22,43.459,22,42.792V31.208
		C22,30.541,22.541,30,23.208,30h2.584C26.459,30,27,30.541,27,31.208V42.792z"/>
	<path style="fill:#F1861E;" d="M72,79.792C72,80.459,71.459,81,70.792,81h-2.584C67.541,81,67,80.459,67,79.792V68.208
		C67,67.541,67.541,67,68.208,67h2.584C71.459,67,72,67.541,72,68.208V79.792z"/>
	<path style="fill:#F1861E;" d="M84,79.792C84,80.459,83.459,81,82.792,81h-2.584C79.541,81,79,80.459,79,79.792V68.208
		C79,67.541,79.541,67,80.208,67h2.584C83.459,67,84,67.541,84,68.208V79.792z"/>
	<path style="fill:#F1861E;" d="M78,79.792C78,80.459,77.459,81,76.792,81h-2.584C73.541,81,73,80.459,73,79.792V68.208
		C73,67.541,73.541,67,74.208,67h2.584C77.459,67,78,67.541,78,68.208V79.792z"/>
</g>
</svg>
