<?xml version="1.0" encoding="utf-8"?>
<!-- Generator: Adobe Illustrator 16.0.0, SVG Export Plug-In . SVG Version: 6.00 Build 0)  -->
<!DOCTYPE svg PUBLIC "-//W3C//DTD SVG 1.1//EN" "http://www.w3.org/Graphics/SVG/1.1/DTD/svg11.dtd">
<svg version="1.1" id="Layer_1" xmlns="http://www.w3.org/2000/svg" xmlns:xlink="http://www.w3.org/1999/xlink" x="0px" y="0px"
	 width="100px" height="100px" viewBox="0 0 100 100" style="enable-background:new 0 0 100 100;" xml:space="preserve">
<g>
	<path style="fill:#3C3C3B;" d="M15.351,55.48c0-1.265,0-2.532,0-3.798c0.026-0.185,0.064-0.365,0.08-0.553
		c0.157-2.664,0.605-5.28,1.493-7.802c1.595-4.541,4.141-8.416,8.097-11.261c3.451-2.49,7.3-3.844,11.577-3.858
		c2.318-0.009,4.502,0.681,6.664,1.438c1.95,0.68,3.898,1.363,5.851,2.039c0.943,0.328,1.879,0.319,2.827-0.018
		c1.77-0.638,3.558-1.223,5.321-1.867c3.698-1.351,7.432-2.278,11.423-1.601c3.421,0.576,6.622,1.651,9.436,3.735
		c1.689,1.251,3.112,2.76,4.309,4.526c-0.147,0.099-0.272,0.188-0.406,0.273c-2.385,1.553-4.479,3.422-6.021,5.839
		c-2.851,4.473-3.33,9.346-2.257,14.424c0.899,4.266,3.255,7.646,6.629,10.348c1.307,1.042,2.708,1.937,4.276,2.546
		c0,0.056,0,0.115,0,0.174c-0.058,0.113-0.125,0.224-0.163,0.346c-1.699,5.146-4.259,9.838-7.517,14.166
		c-1.501,1.986-3.048,3.932-5.022,5.479c-2.389,1.867-5.055,2.729-8.099,2.185c-1.762-0.309-3.437-0.893-5.087-1.576
		c-1.905-0.789-3.871-1.36-5.938-1.536c-2.391-0.201-4.695,0.223-6.94,0.999c-1.479,0.507-2.92,1.125-4.407,1.609
		c-1.03,0.332-2.112,0.513-3.17,0.763c-0.575,0-1.148,0-1.728,0c-0.767-0.217-1.562-0.371-2.302-0.668
		c-2.075-0.829-3.728-2.272-5.194-3.902c-4.665-5.193-8.269-11.039-10.611-17.639c-1.41-3.965-2.456-8.01-2.875-12.202
		C15.509,57.219,15.434,56.351,15.351,55.48z"/>
	<path style="fill-rule:evenodd;clip-rule:evenodd;fill:#3C3C3B;" d="M66.957,7.5c0.116,1.624,0.078,3.246-0.226,4.853
		c-0.707,3.769-2.503,6.977-5.08,9.769c-1.966,2.126-4.257,3.763-7.087,4.549c-1.398,0.387-2.817,0.531-4.268,0.455
		c-0.344-0.018-0.413-0.154-0.434-0.466c-0.294-4.34,1.075-8.142,3.659-11.568c3.068-4.072,7.16-6.469,12.116-7.46
		c0.235-0.051,0.476-0.089,0.713-0.131C66.554,7.5,66.756,7.5,66.957,7.5z"/>
</g>
</svg>
