<?xml version="1.0" encoding="utf-8"?>
<!-- Generator: Adobe Illustrator 16.0.0, SVG Export Plug-In . SVG Version: 6.00 Build 0)  -->
<!DOCTYPE svg PUBLIC "-//W3C//DTD SVG 1.1//EN" "http://www.w3.org/Graphics/SVG/1.1/DTD/svg11.dtd">
<svg version="1.1" xmlns="http://www.w3.org/2000/svg" xmlns:xlink="http://www.w3.org/1999/xlink" x="0px" y="0px" width="50px"
	 height="60px" viewBox="0 0 50 60" style="enable-background:new 0 0 50 60;" xml:space="preserve">
<g id="Layer_2">
</g>
<g id="Layer_1">
	<g>
		<path style="fill-rule:evenodd;clip-rule:evenodd;fill:#3C3C3B;" d="M25.8,46.18c-0.21-0.234-0.415-0.473-0.631-0.701
			c-0.811-0.86-1.62-1.717-2.432-2.575c-0.017-0.016-0.035-0.03-0.069-0.059c-1.24,1.103-2.481,2.204-3.72,3.305
			c-0.012-0.005-0.023-0.012-0.034-0.018c0.04-0.259,0.077-0.517,0.118-0.775c0.345-2.177,0.688-4.354,1.034-6.53
			c0.397-2.506,0.799-5.01,1.196-7.516c0.027-0.17,0.045-0.343,0.083-0.511c0.011-0.046,0.08-0.082,0.128-0.113
			c0.021-0.013,0.057-0.001,0.087-0.001c2.766,0,5.531,0,8.297,0c0.057,0,0.112,0,0.188,0c0.071,0.383,0.143,0.76,0.211,1.138
			c0.33,1.821,0.66,3.644,0.991,5.466c0.341,1.879,0.68,3.759,1.021,5.638c0.181,1.001,0.363,2.004,0.548,3.005
			c0.007,0.037,0.025,0.072,0.039,0.11c-0.013,0.046-0.023,0.091-0.035,0.138c-0.043-0.044-0.083-0.092-0.13-0.133
			c-0.874-0.757-1.75-1.516-2.626-2.273c-0.356-0.309-0.713-0.615-1.106-0.955c-0.037,0.058-0.063,0.109-0.104,0.15
			c-0.712,0.762-1.426,1.521-2.138,2.281c-0.286,0.309-0.564,0.621-0.847,0.93C25.847,46.18,25.823,46.18,25.8,46.18z"/>
		<path style="fill-rule:evenodd;clip-rule:evenodd;fill:#3C3C3B;" d="M21.34,13.504c0.351,0.062,0.702,0.119,1.051,0.189
			c1.06,0.215,1.978,0.726,2.836,1.367c0.873,0.654,1.535,1.482,2.062,2.429c0.388,0.7,0.777,1.396,1.04,2.157
			c0.411,1.195,0.723,2.412,0.894,3.664c0.067,0.491,0.13,0.981,0.192,1.472c0.013,0.103,0.015,0.206,0.021,0.327
			c-2.389,0-4.764,0-7.138,0c0.055-0.637,0.116-1.277,0.164-1.917c0.071-0.956,0.006-1.903-0.336-2.807
			c-0.337-0.89-0.907-1.581-1.889-1.773c-0.966-0.19-1.836,0.021-2.435,0.867c-0.376,0.533-0.49,1.129-0.172,1.742
			c0.184,0.354,0.521,0.506,0.844,0.406c0.242-0.073,0.393-0.288,0.375-0.534c-0.02-0.275-0.189-0.469-0.458-0.498
			c-0.124-0.015-0.249-0.004-0.377-0.004c-0.042-0.476,0.37-0.995,0.897-1.106c0.933-0.196,1.748,0.257,2.075,1.154
			c0.464,1.27-0.185,2.854-1.402,3.429c-0.696,0.328-1.424,0.349-2.163,0.206c-1.85-0.358-2.872-1.569-3.372-3.306
			c-0.062-0.213-0.097-0.435-0.144-0.653c0-0.472,0-0.944,0-1.418c0.012-0.042,0.028-0.085,0.034-0.129
			c0.114-0.722,0.321-1.42,0.7-2.045c1.052-1.749,2.612-2.757,4.621-3.077c0.356-0.058,0.717-0.096,1.076-0.143
			C20.672,13.504,21.005,13.504,21.34,13.504z"/>
		<path style="fill-rule:evenodd;clip-rule:evenodd;fill:#3C3C3B;" d="M25.75,28.861c-1.77,0-3.539,0.001-5.308,0
			c-0.479-0.002-0.875-0.332-0.961-0.787c-0.089-0.46,0.161-0.911,0.607-1.081c0.109-0.042,0.235-0.065,0.352-0.065
			c3.516-0.004,7.03-0.006,10.546-0.006c0.57-0.001,0.961,0.312,1.046,0.828c0.093,0.573-0.343,1.104-0.925,1.111
			c-0.482,0.007-0.967,0-1.451,0C28.354,28.861,27.052,28.861,25.75,28.861L25.75,28.861z"/>
		<path style="fill-rule:evenodd;clip-rule:evenodd;fill:#3C3C3B;" d="M25.732,30.417c-1.452,0-2.904,0.001-4.354,0
			c-0.429,0-0.69-0.27-0.663-0.677c0.019-0.271,0.229-0.502,0.496-0.54c0.058-0.009,0.115-0.012,0.173-0.012
			c2.902-0.001,5.804,0,8.707-0.002c0.274,0,0.484,0.1,0.598,0.352c0.109,0.239,0.076,0.474-0.095,0.678
			c-0.128,0.152-0.295,0.204-0.491,0.204C28.646,30.417,27.188,30.417,25.732,30.417z"/>
		<path style="fill-rule:evenodd;clip-rule:evenodd;fill:#3C3C3B;" d="M25.813,25.396c1.369,0,2.74,0,4.11,0
			c0.353-0.002,0.621,0.264,0.621,0.621c0,0.356-0.266,0.626-0.618,0.626c-2.644-0.003-5.287-0.005-7.929-0.005
			c-0.104,0-0.207,0.005-0.312,0.005c-0.342-0.003-0.611-0.272-0.615-0.614c-0.005-0.35,0.269-0.633,0.613-0.633
			C23.061,25.396,24.438,25.396,25.813,25.396z"/>
	</g>
	<path style="fill:none;stroke:#3C3C3B;stroke-miterlimit:10;" d="M42.584,34.26c0,10.461-8.636,18.82-18.04,18.82
		C15.137,53.08,6.5,44.478,6.5,34.017V7.5h36.148L42.584,34.26z"/>
</g>
</svg>
