<?xml version="1.0" encoding="utf-8"?>
<!-- Generator: Adobe Illustrator 16.0.0, SVG Export Plug-In . SVG Version: 6.00 Build 0)  -->
<!DOCTYPE svg PUBLIC "-//W3C//DTD SVG 1.1//EN" "http://www.w3.org/Graphics/SVG/1.1/DTD/svg11.dtd">
<svg version="1.1" id="Layer_1" xmlns="http://www.w3.org/2000/svg" xmlns:xlink="http://www.w3.org/1999/xlink" x="0px" y="0px"
	 width="260px" height="178px" viewBox="0 0 260 178" style="enable-background:new 0 0 260 178;" xml:space="preserve">
<g>
	<path style="fill-rule:evenodd;clip-rule:evenodd;fill:#3C3C3B;" d="M255.532,150.73c-0.429-0.798-1.123-1.525-1.305-2.369
		c-0.3-1.38-0.569-2.878-0.335-4.237c0.609-3.537-2.133-5.222-3.821-7.483c-0.316-0.421-0.959-0.641-1.491-0.853
		c-3.587-1.435-7.412-2.375-9.592-6.164c-0.611-1.061-2.176-1.635-3.386-2.271c-1.573-0.828-3.31-1.361-4.836-2.262
		c-4.245-2.5-7.21-6.25-9.85-10.329c-0.765-1.182-1.802-2.402-3.014-3.029c-1.518-0.785-1.899-1.72-1.557-3.21
		c-0.202,0-0.401,0-0.601,0c-0.508,0.963-1.017,1.926-1.519,2.877c-0.528,0-1.301-0.22-1.522,0.036
		c-1.258,1.461-2.404,3.022-3.537,4.586c-0.162,0.224-0.185,0.773-0.026,0.949c0.226,0.251,0.703,0.45,1.033,0.399
		c1.413-0.208,2.89-0.317,4.197-0.834c1.684-0.666,2.373,0.024,2.976,1.426c2.804,6.524,6.8,12.237,12.029,17.035
		c1.288,1.182,1.159,2.301,0.356,3.4c-1.166,1.594-0.921,3.072-0.073,4.613c0.932,1.695,1.292,3.404,0.471,5.281
		c-0.881,2.014-1.662,4.071-2.453,6.12c-0.232,0.601-0.406,1.232-0.516,1.863c-0.518,2.997-0.948,6.013-1.53,8.996
		c-0.216,1.1-0.761,2.136-1.184,3.278c0.845,0,1.595,0,2.305,0c0.802-6.909,2.569-13.283,6.8-19.256
		c0.372,1.539,0.673,2.678,0.92,3.826c0.845,3.943,1.714,7.883,2.467,11.846c0.142,0.748-0.188,1.597-0.347,2.391
		c-0.092,0.459-0.281,0.899-0.428,1.347c0.514,0.074,1.028,0.213,1.538,0.198c0.312-0.008,0.617-0.254,0.844-0.355
		c-0.732-7.104-1.453-14.104-2.207-21.411c0.638,0,1.254-0.07,1.851,0.013c2.286,0.319,4.623,1.439,6.72-0.54
		c0.029-0.027,0.097-0.014,0.38-0.041c0.811,2.979,1.744,5.969,2.407,9.021c0.39,1.79,0.543,3.681,0.458,5.512
		c-0.115,2.479,0.484,5.119-1.322,7.345c-0.504,0.622-0.069,1.175,0.719,1.158c0.476-0.009,1.245-0.11,1.364-0.391
		c0.392-0.918,0.986-2.09,0.709-2.89c-0.74-2.14-0.142-4.153,0.054-6.208c0.113-1.186,0.385-2.356,0.584-3.533
		c0.491,0.217,0.645,0.408,0.703,0.628c0.484,1.83,1.107,3.645,1.38,5.508c0.294,2.001,1.197,4.086-0.317,6.064
		c-0.178,0.233-0.017,0.758,0.138,1.223c0.646,0,1.293,0,1.939,0c-0.066-0.278-0.036-0.595,0.171-1.005
		c0.432-0.849,0.525-2.089,0.282-3.029c-0.947-3.653-1.697-7.29-1.116-11.096c0.08-0.519-0.204-1.159-0.479-1.654
		c-1.088-1.949-1.54-3.998-1.152-6.208c0.245-1.391,0.511-2.777,0.768-4.167c1.125,4.694,0.13,9.84,2.692,14.066
		c0.121-1.754,0.252-3.607,0.367-5.461C255.651,151.212,255.639,150.934,255.532,150.73z"/>
	<g>
		<circle style="fill:#FFFFFF;" cx="214.321" cy="113.29" r="1.121"/>
		<circle style="fill:#3C3C3B;" cx="214.32" cy="113.29" r="0.597"/>
	</g>
</g>
<g>
	<path style="fill-rule:evenodd;clip-rule:evenodd;fill:#3C3C3B;" d="M89.114,153.942c-0.271,0.655-0.539,1.365-0.867,2.044
		c-0.079,0.162-0.362,0.226-0.579,0.351c-0.033,0.338-0.138,0.736-0.091,1.116c0.042,0.338,0.22,0.675,0.413,0.965
		c0.029,0.044,0.474-0.13,0.682-0.269c0.751-0.501,1.483-1.028,2.385-1.659c-0.17,1.145-0.554,2.008-1.056,2.834
		c-0.11,0.18-0.153,0.401-0.226,0.604c0.233,0.061,0.491,0.219,0.695,0.166c1.048-0.268,2.083-0.589,3.171-0.905
		c-0.022,0.677-0.317,1.275-0.786,1.806c-0.231,0.262-0.451,0.533-0.7,0.777c-0.605,0.59-1.096,1.176-1.111,2.133
		c-0.007,0.49-0.482,0.98-0.771,1.455c-0.058,0.095-0.234,0.178-0.349,0.169c-0.778-0.058-1.556-0.13-2.332-0.216
		c-1.707-0.192-3.065-1.146-4.477-2.065c-1.104,1.052-1.751,2.354-1.849,3.887c-0.021,0.333,0.263,0.69,0.431,1.024
		c0.091,0.183,0.283,0.321,0.347,0.51c0.326,0.952-0.012,1.371-1.018,1.286c-0.3-0.024-0.598-0.089-0.897-0.094
		c-0.852-0.015-1.1-0.415-0.952-1.271c0.12-0.692,0.062-1.413,0.095-2.121c0.024-0.523-0.04-1.081,0.122-1.561
		c0.396-1.171,0.439-1.156-0.764-1.968c-0.454,0.279-0.959,0.468-1.274,0.823c-0.209,0.237-0.282,0.759-0.179,1.075
		c0.241,0.737,0.288,1.431,0.086,2.184c-0.2,0.748-0.039,1.466,0.387,2.132c0.507,0.793,0.313,1.294-0.604,1.359
		c-0.772,0.054-1.561-0.057-2.331-0.173c-0.133-0.02-0.323-0.458-0.282-0.662c0.074-0.375,0.31-0.717,0.459-1.08
		c0.125-0.304,0.221-0.62,0.352-0.995c-0.517,0-0.901,0.032-1.278-0.006c-1.101-0.115-1.102-0.162-1.034-1.237
		c0.025-0.397,0.003-0.894-0.21-1.192c-0.512-0.713-0.563-1.459-0.413-2.256c0.065-0.351-0.004-0.548-0.354-0.7
		c-0.46-0.199-0.888-0.473-1.536-0.826c0.216,0.762,0.386,1.346,0.546,1.933c0.176,0.645,0.316,1.3,0.521,1.936
		c0.169,0.526,0.391,1.036,0.62,1.539c0.276,0.608,0.005,1.28-0.642,1.301c-0.581,0.02-1.18-0.128-1.743-0.295
		c-0.109-0.033-0.212-0.571-0.107-0.754c0.53-0.92,0.285-1.692-0.208-2.546c-0.4-0.692-0.573-1.514-0.883-2.262
		c-0.388-0.937-0.73-1.905-1.243-2.772c-0.969-1.636-1.749-3.241-1.304-5.259c0.187-0.846,0.011-1.774,0.695-2.471
		c0.272-0.278,0.585-0.524,0.902-0.751c0.544-0.395,1.085-0.801,1.667-1.132c0.88-0.502,1.776-0.983,2.703-1.386
		c0.271-0.119,0.682,0.021,1.01,0.112c0.514,0.144,1.01,0.348,1.515,0.525c0.978,0.344,1.849,0.373,2.697-0.44
		c0.736-0.705,1.504-0.622,2.501-0.006c1.786,1.104,3.21,2.602,4.564,4.179c0.478,0.555,0.946,1.139,1.517,1.584
		c0.334,0.26,0.898,0.443,1.294,0.358C87.745,154.627,88.398,154.244,89.114,153.942z"/>
	<g>
		<circle style="fill:#FFFFFF;" cx="84.785" cy="159.049" r="1.347"/>
		<circle style="fill:#3C3C3B;" cx="84.785" cy="159.049" r="0.717"/>
	</g>
</g>
<g>
	<path style="fill-rule:evenodd;clip-rule:evenodd;fill:#3C3C3B;" d="M191.805,167.973c-0.634,0.443-1.287,0.8-2.226,0.387
		c1.426-3.46,1.539-6.876-0.79-10.069c-0.037,0.012-0.138,0.023-0.141,0.045c-0.214,1.994-0.467,3.985-0.611,5.986
		c-0.085,1.203-0.03,2.341-1.017,3.329c-0.4,0.402-0.414,1.238-1.117,1.508c-0.277,0.106-0.576,0.152-0.866,0.226
		c-0.042-0.366-0.232-0.8-0.101-1.083c0.355-0.762,0.848-1.459,1.285-2.183c0.046-0.075,0.103-0.157,0.115-0.24
		c0.191-1.386,0.568-2.78,0.509-4.155c-0.055-1.271-0.725-2.449-1.608-3.438c-0.873-0.976-1.689-2.006-2.627-2.912
		c-0.293-0.283-0.914-0.358-1.363-0.312c-0.429,0.043-0.844,0.346-1.239,0.575c-1.278,0.747-2.562,0.532-3.865,0.086
		c-0.318-0.108-0.666-0.13-1.124-0.213c0,0.896,0.058,1.674-0.017,2.44c-0.067,0.707-0.389,1.398-0.394,2.1
		c-0.007,1.041,0.056,2.11,0.3,3.117c0.173,0.708,0.143,2.985-0.292,3.445c0.167,0.407,0.33,0.803,0.517,1.26
		c-0.398,0.11-0.756,0.104-0.939,0.279c-0.779,0.749-0.844,0.027-0.815-0.436c0.03-0.482,0.406-0.941,0.439-1.424
		c0.058-0.868-0.013-1.751-0.064-2.626c-0.011-0.178-0.231-0.338-0.263-0.522c-0.237-1.368-0.45-2.742-0.678-4.113
		c-0.012-0.071-0.088-0.135-0.408-0.271c-0.205,0.68-0.344,1.388-0.625,2.034c-0.804,1.851-0.348,3.812-0.597,5.702
		c-0.141,1.063-0.691,2.073-1.092,3.205c-0.297-0.195-0.449-0.238-0.472-0.319c-0.14-0.5-1.334,0.139-0.947-0.846
		c0.159-0.406,0.593-0.699,0.785-1.1c0.278-0.585,0.574-1.206,0.644-1.835c0.113-1.039,0.331-2.195,0.003-3.127
		c-0.613-1.747-0.319-3.499-0.497-5.24c-0.103-1.015-0.808-1.633-1.858-1.671c-0.953-0.035-1.484-0.799-1.804-1.383
		c-0.896-1.64-2.352-2.703-3.594-3.985c-0.75-0.774-1.358-1.595-1.368-2.729c-0.01-1.269-0.425-2.429-0.93-3.57
		c-0.103-0.233-0.076-0.529-0.082-0.796c-0.011-0.531-0.003-1.062-0.003-1.572c-2.698-0.285-3.546-1.923-2.281-4.125
		c-1.359-0.681-2.432-1.663-3.285-2.931c-0.731-1.087-0.62-2.936,0.493-4.536c0.106,0.495,0.184,0.857,0.267,1.249
		c1.091-0.839,1.206-1.592,0.644-2.704c-0.211-0.417-0.136-0.979-0.19-1.477c0.111-0.018,0.223-0.036,0.334-0.054
		c0.075,0.309,0.082,0.657,0.242,0.911c0.152,0.244,0.461,0.388,0.808,0.66c0.698-0.867,1.401-1.741,2.136-2.656
		c0.112,1.754-1.54,2.689-2.117,4.25c0.667,0,1.08-0.015,1.493,0.01c0.113,0.008,0.284,0.118,0.311,0.215
		c0.023,0.083-0.095,0.266-0.194,0.313c-0.579,0.278-1.169,0.531-2.015,0.905c0.131,0.589,0.299,1.336,0.464,2.082
		c0.026,0.117,0.085,0.239,0.069,0.351c-0.212,1.473,1.018,2.134,1.753,3.057c0.138,0.173,0.559,0.116,0.911,0.176
		c0.065-0.59,0.124-1.124,0.182-1.654c0.084-0.01,0.169-0.018,0.253-0.026c0.062,0.19,0.166,0.378,0.176,0.57
		c0.046,0.877,0.462,1.559,1.049,2.175c0.769,0.806,2.31,0.678,2.743-0.307c0.294-0.67,0.42-1.415,0.604-2.133
		c0.062-0.241,0.068-0.498,0.1-0.749c0.083-0.008,0.165-0.016,0.247-0.024c0.094,0.458,0.187,0.916,0.323,1.585
		c0.317-0.104,0.699-0.138,0.959-0.334c1.919-1.446,1.617-3.503,1.511-5.459c-0.921-0.315-1.787-0.611-2.652-0.908
		c0.009-0.095,0.02-0.19,0.029-0.286c0.698-0.046,1.396-0.095,2.148-0.145c-0.474-1.271-2.058-1.68-2.252-3.312
		c1.007,0.423,1.469,1.809,2.708,1.077c0.066-0.283,0.144-0.62,0.222-0.958c0.125,0.009,0.251,0.018,0.376,0.026
		c0,0.623,0,1.245,0,1.866c0.002,0.42-0.052,0.852,0.031,1.254c0.046,0.225,0.29,0.475,0.509,0.574
		c0.118,0.054,0.359-0.221,0.564-0.282c0.168-0.047,0.488-0.06,0.529,0.02c0.233,0.464,0.397,0.961,0.598,1.442
		c0.11,0.265,0.242,0.52,0.254,0.546c-0.251,2.763-2.051,4.243-4.015,5.617c0.402,0.211,0.838,0.302,1.036,0.569
		c0.424,0.574-0.084,2.009-0.836,2.413c-0.561,0.3-1.172,0.501-2,0.847c0.215,0.961,0.463,2.087,0.726,3.208
		c0.022,0.089,0.154,0.218,0.236,0.22c0.995,0.014,1.935,0.246,2.979-0.275c0.769-0.385,1.601-0.987,2.874-0.407
		c1.142,0.519,2.777,0.579,4.114-0.2c0.05-0.029,0.103-0.061,0.158-0.07c1.086-0.208,2.221-0.278,3.25-0.649
		c1.323-0.478,2.667-0.603,4.001-0.443c0.977,0.116,1.916,0.591,2.86,0.934c0.491,0.177,0.951,0.435,1.439,0.62
		c1.171,0.439,1.783,1.349,2.398,2.399c0.812,1.389,0.452,2.805,0.405,4.195c-0.025,0.735-0.562,1.445-0.818,2.185
		c-0.115,0.324-0.226,0.729-0.131,1.035c0.231,0.744,0.609,1.441,0.879,2.176c0.271,0.741,0.463,1.512,0.73,2.254
		c0.116,0.323,0.33,0.611,0.499,0.917c0,0.36,0,0.72,0,1.08c-0.164,0.11-0.461,0.213-0.47,0.333
		c-0.044,0.647-0.047,1.303,0.008,1.949c0.013,0.152,0.3,0.281,0.461,0.422C191.805,164.729,191.805,166.352,191.805,167.973z
		 M169.384,131.157c-0.094,0.038-0.188,0.076-0.281,0.114c0,0.295-0.026,0.593,0.006,0.883c0.047,0.408,0.138,0.81,0.211,1.215
		c0.148-0.334,0.255-0.696,0.453-0.998C170.249,131.656,169.518,131.557,169.384,131.157z M155.146,133.906
		c0.622-0.223,0.674-1.281,0-2.097C155.146,132.604,155.146,133.25,155.146,133.906z"/>
	<g>
		<g>
			<circle style="fill:#FFFFFF;" cx="161.403" cy="140.911" r="1.059"/>
			<circle style="fill:#3C3C3B;" cx="161.403" cy="140.911" r="0.564"/>
		</g>
		<g>
			<circle style="fill:#FFFFFF;" cx="163.676" cy="140.942" r="0.926"/>
			<circle style="fill:#3C3C3B;" cx="163.676" cy="140.942" r="0.493"/>
		</g>
	</g>
</g>
<g>
	<path style="fill-rule:evenodd;clip-rule:evenodd;fill:#3C3C3B;" d="M156.528,58.562c0.095,0.005,0.226,0.062,0.278,0.018
		c0.39-0.337,0.702-1.484,0.409-1.894c-0.484-0.678-1.002-1.285-1.974-1.425c-0.935-0.129-1.703,0.059-2.504,0.485
		c-0.427,0.224-0.805,0.47-1.159,0.791c-0.245,0.221-0.583,0.33-0.872,0.505c-0.226,0.14-0.469,0.27-0.66,0.446
		c-0.576,0.554-1.312,0.771-2.053,0.903c-0.603,0.106-1.233,0.094-1.849,0.102c-0.16-0.001-0.333-0.107-0.482-0.194
		c-0.418-0.243-0.835-0.488-1.236-0.751c-0.841-0.554-1.312-1.386-1.394-2.341c-0.056-0.649,0.179-1.328,0.302-2.114
		c-0.183-0.046-0.476-0.071-0.726-0.193c-0.267-0.122-0.498-0.33-0.732-0.516c-0.119-0.094-0.209-0.226-0.317-0.338
		c-0.226-0.233-0.45-0.471-0.685-0.701c-0.187-0.179-0.346-0.296-0.655-0.104c-0.588,0.364-1.235,0.638-1.848,0.961
		c-0.39,0.211-0.759,0.456-1.152,0.661c-0.177,0.089-0.387,0.108-0.537,0.144c-0.215-0.457-0.463-0.873-0.61-1.331
		c-0.117-0.355-0.132-0.755-0.148-1.132c-0.008-0.246,0.009-0.522,0.122-0.722c0.111-0.196,0.381-0.471,0.534-0.444
		c0.348,0.062,0.235,0.457,0.279,0.715c0.062,0.365,0.062,0.737,0.133,1.101c0.023,0.112,0.192,0.196,0.306,0.306
		c0.424-0.448,0.796-0.904,1.237-1.288c0.607-0.523,1.286-0.99,2.101-1.062c0.365-0.037,0.755,0.179,1.13,0.291
		c0.145,0.042,0.28,0.121,0.362,0.152c0.084-0.441,0.195-0.847,0.223-1.256c0.014-0.231-0.041-0.575-0.195-0.684
		c-0.563-0.401-1.172-0.731-1.779-1.061c-0.136-0.076-0.333-0.022-0.495-0.063c-0.495-0.123-0.803-0.753-0.672-1.305
		c0.074-0.306,0.118-0.621,0.156-0.938c0.01-0.073-0.062-0.16-0.105-0.267c0.359-0.103,0.697-0.184,0.515-0.677
		c-0.044-0.115,0.109-0.318,0.194-0.469c0.174-0.308,0.388-0.594,0.538-0.912c0.059-0.123-0.017-0.304-0.031-0.457
		c0.153-0.249,0.306-0.493,0.458-0.743c0.271,0.193,0.732,0.277,0.548,0.762c-0.119,0.307-0.342,0.571-0.568,0.937
		c1.156,0.561,2.262,1.097,3.365,1.634c0.04-0.033,0.08-0.072,0.118-0.109c-0.166-0.239-0.359-0.462-0.495-0.719
		c-0.274-0.524-0.578-1.043-0.756-1.6c-0.191-0.585-0.277-1.21-0.353-1.824c-0.026-0.227,0.099-0.479,0.165-0.718
		c0.054-0.19,0.124-0.379,0.203-0.619c0.693,0.134-0.037-0.732,0.489-0.821c0.141,0.482,0.432,0.941-0.002,1.47
		c-0.3,0.365-0.155,0.684,0.173,1.026c0.38,0.403,0.811,0.837,0.988,1.344c0.207,0.595,0.711,0.81,1.118,0.884
		c0.54,0.09,0.935,0.37,1.39,0.578c0.17,0.076,0.337,0.162,0.408,0.201c0.22-0.445,0.321-0.973,0.644-1.23
		c0.435-0.354,1.019-0.598,1.573-0.698c0.476-0.088,0.833,0.554,0.642,1.045c0.166,0.104,0.338,0.212,0.512,0.317
		c0.457,0.271,0.548,0.61,0.278,1.076c-0.169,0.29-0.321,0.604-0.539,0.857c-0.245,0.281-0.523,0.568-0.846,0.739
		c-0.498,0.262-0.999,0.937-1.027,1.495c-0.006,0.178-0.114,0.352-0.183,0.525c-0.228,0.593-0.561,1.169-0.662,1.777
		c-0.151,0.91-0.395,1.779-0.965,2.494c-0.354,0.446-0.84,0.779-1.267,1.166c-0.072,0.063-0.135,0.137-0.206,0.2
		c-0.227,0.205-0.493,0.386-0.673,0.626c-0.155,0.212-0.247,0.483-0.312,0.741c-0.075,0.301-0.098,0.619-0.13,0.933
		c-0.05,0.45,0.267,0.733,0.538,0.992c0.264,0.253,0.612,0.409,0.92,0.618c0.708,0.48,1.472,0.412,2.226,0.189
		c0.572-0.168,1.14-0.381,1.675-0.65c0.32-0.157,0.551-0.48,0.852-0.689c0.463-0.322,0.964-0.583,1.421-0.907
		c0.443-0.318,0.938-0.414,1.453-0.533c0.514-0.113,1-0.029,1.502-0.024c0.798,0.006,1.285,0.558,1.898,0.882
		c0.861,0.457,0.979,1.349,1.206,2.169c-0.435,0.452-0.074,1.305-0.872,1.616c-0.32,0.128-0.422,0.613-0.884,0.729
		c-0.676,0.176-1.529-0.239-1.93-0.838c-0.491-0.729-0.2-1.268,0.195-1.83c0.428-0.607,1.83-0.521,2.105,0.153
		c0.102,0.251,0.001,0.602-0.065,0.895c-0.041,0.173-0.193,0.322-0.298,0.481c-0.15-0.076-0.301-0.157-0.472-0.245
		c0.143-0.266,0.277-0.511,0.416-0.769c-0.26-0.16-0.475-0.294-0.646-0.396c-0.247,0.159-0.451,0.295-0.659,0.434
		c0.004,0.133,0.058,0.303,0.001,0.415c-0.132,0.266-0.038,0.419,0.176,0.553c0.15,0.092,0.3,0.182,0.449,0.279
		C156.107,58.988,156.368,58.963,156.528,58.562z M139.808,45.326c0.568,0.13,1.01,0.299,1.46,0.312
		c0.503,0.021,0.988,0.019,1.434,0.291c0.149,0.089,0.342,0.257,0.467,0.219c0.542-0.155,0.61,0.292,0.793,0.576
		c0.06,0.094,0.054,0.238,0.099,0.471c0.3-0.488,0.539-0.876,0.782-1.269c-0.406-0.02-0.792,0.046-1.119-0.062
		c-0.975-0.326-1.533-1.227-2.338-1.8c-0.031-0.023-0.03-0.089-0.059-0.117c-0.186-0.209-0.373-0.414-0.663-0.722
		C140.358,43.979,140.117,44.572,139.808,45.326z"/>
	<g>
		<circle style="fill:#FFFFFF;" cx="149.92" cy="43.094" r="0.527"/>
		<circle style="fill:#3C3C3B;" cx="149.92" cy="43.093" r="0.282"/>
	</g>
</g>
<g>
	<path style="fill-rule:evenodd;clip-rule:evenodd;fill:#3C3C3B;" d="M209.311,93.542c0.296-0.379,0.596-0.737,0.905-1.081
		c-0.814-0.152-1.708-0.433-2.533-0.469c0.019,0.611,0.08,1.201,0.08,1.713c-1.258,0.929-2.675,1.614-3.527,2.692
		c-1.254,1.587-2.854,1.96-4.621,1.664c-3.79-0.647-7.538-1.488-11.159-2.218c4.327-3.18,9.089-5.715,14.599-6.99
		c3.43-0.787,6.346-2.465,7.12-6.039c0.156-0.006,0.305-0.031,0.458-0.052c-0.494-0.438-1.211-0.75-1.825-1.032
		c0.292,1.951-0.694,3.46-2.348,4.246c-3.165,1.51-6.58,2.564-10.443,4.015c0.792-1.699,1.293-2.646,1.669-3.63
		c0.282-0.744,0.501-1.512,0.722-2.275c-0.585-0.172-1.002-0.524-1.416-0.929c-0.684,2.864-1.832,3.944-5.275,5.374
		c-5.879,2.456-12.087,4.211-18.019,6.227c1.529-3.41,2.925-6.517,4.36-9.719c-0.686-0.183-1.163-0.636-1.58-1.205
		c-0.224,1.377-0.434,2.781-0.667,4.27c-0.735-0.311-1.449-0.611-2.163-0.911c0.142,2.156,1.143,4.241-1.274,4.457
		c0.3,0.149,0.605,0.301,0.894,0.465c-1.703,2.722-5.012,3.258-8.108,4.079c-5.729,1.525-11.544,2.836-16.237,7.206
		c0.953-5.588,2.667-10.63,5.727-15.002c3.001-4.301,6.463-8.406,10.284-12.081c3.912-3.764,8.746-6.458,14.138-8.221
		c5.174-1.689,10.54-1.378,15.925-1.185c-0.009-0.394-0.013-0.79-0.022-1.187c-3.951-0.404-7.9-0.813-12.03-1.238
		c2.351-5.039,9.591-5.697,11.831-10.771c-0.546-0.287-0.954-0.823-1.456-1.219c0,0.042-0.003,0.084-0.003,0.13
		c0.02,0.785-0.885,1.597-1.189,2.107c-0.442-0.297-0.871-0.576-1.288-0.848c-0.331,1.438-0.936,2.658-2.541,3.303
		c0.291,0.066,0.595,0.13,0.921,0.173c-1.127,0.712-1.988,1.118-2.661,1.713c-1.546,1.371-3.362,2.644-4.377,4.322
		c-0.772,1.276-1.581,1.868-2.932,2.106c-17.995,3.235-30.2,13.134-37.264,28.882c-1.067,2.381-1.801,4.896-2.856,7.806
		c-0.125-0.722-0.237-0.982-0.205-1.226c0.76-6.19,2.503-12.05,6.221-17.312c4.983-7.049,11.832-12.35,18.399-17.962
		c6.07-5.188,12.205-10.405,17.579-16.206c3.155-3.404,4.846-8.007,7.276-12.027c1.663-2.756,3.271-5.594,6.364-7.454
		c0.038,0.247,0.08,0.486,0.134,0.722c0.341-0.229,0.781-0.331,1.221-0.445c-0.394-0.265-0.844-0.567-1.398-0.918
		c2.944-0.814,5.105-1.412,7.263-2.014c-0.081-0.234-0.165-0.474-0.248-0.709c-2.74-0.031-5.428,0.544-7.583,2.214
		c-2.122,1.644-3.888,3.697-5.645,5.403c0.107-1.8,0.223-3.783,0.342-5.857c0.19,0.052,0.37,0.088,0.55,0.124
		c-0.244-1.252-0.53-2.421-0.565-3.605c-0.098,0.054-0.196,0.106-0.295,0.163c-0.717-2.755-1.37-5.239-2.024-7.746
		c0.471-0.01,0.896-0.039,1.286-0.096c-0.17-1.488-1.441-2.038-2.518-2.619c-0.497,0.955-0.708,2.05-0.587,3.348
		c-0.359-0.11-0.71-0.213-1.058-0.312c0.355,1.441,0.76,2.884,0.728,4.325c0.194-0.015,0.386-0.027,0.589-0.05
		c0.79,2.713,0.08,9.633-1.428,13.911c-2.818,8.015-8.43,14.063-15.296,19.204c-2.675,2.001-5.446,3.88-8.287,5.897
		c1.933-3.714,3.74-7.178,5.565-10.674c0.273,0.06,0.533,0.109,0.781,0.146c0.043-1.541-0.399-3.181-0.036-4.677
		c-0.674-1.618-1.08-3.122-1.851-4.252c-0.545,0.994-0.778,2.114-0.813,3.252c0.399-0.047,0.823-0.119,1.271-0.227
		c-0.425,2.398-0.785,4.42-1.202,6.761c-0.471-0.194-0.932-0.389-1.387-0.579c0.032,1.695,0.061,3.855-1.129,4.445
		c0.088,0.023,0.171,0.051,0.262,0.074c-2.095,4.913-4.717,7.791-9.79,11.305c-7.33,5.089-14.049,10.748-17.443,19.03
		c-1.019,2.485-1.662,5.109-2.58,7.996c-1.699-8.088-1.783-15.871-0.435-23.823c0.441,0.157,0.868,0.271,1.279,0.343
		c0.108-1.287-0.419-2.746,0.068-4.079c-0.1,0.055-0.203,0.112-0.303,0.169c4.378-18.44,12.565-34.441,28.171-46.34
		c0.015,0.011,0.028,0.02,0.044,0.034c0.072-0.645,0.274-1.271,0.542-1.854c-5.556,2.934-11.155,5.727-15.169,10.359
		c1.556-3.74,3.182-7.645,4.842-11.628c0.369,0.067,0.728,0.091,1.075,0.076c0-1.562,0-3.265,0-4.843
		c-0.697,0.384-1.391,0.765-2.094,1.152c-0.377-0.819-0.655-1.429-0.936-2.036c-0.279,0.03-0.558,0.058-0.837,0.085
		c0.607,3.585,1.328,7.182-0.538,10.761c-0.623-0.266-1.238-0.527-1.858-0.791c-0.373,1.617-0.669,3.189-1.512,4.615
		c0.295,0.234,0.592,0.466,0.886,0.706c-8.963,13.636-17.014,28.15-20.122,44.702c-0.213-0.027-0.425-0.062-0.637-0.091
		c-2.327-5.675-4.653-11.35-7.231-17.635c0.483,0.243,0.918,0.398,1.323,0.501c0.412-1.429,0.113-2.856,0.061-4.284
		c-0.369,0.194-0.739,0.392-1.107,0.584c-0.24-0.136-0.485-0.273-0.727-0.409c1.161-5.102,2.326-10.206,3.487-15.304
		c0.711,0.044,1.395-0.046,2.027-0.239c-0.623-1.318-0.883-2.748-1.194-4.126c-0.582,0.339-1.162,0.673-1.735,1.004
		c-0.59-0.613-1.169-1.215-1.746-1.814c-0.303,0.666-0.514,1.296-0.25,2.084c-0.263-0.788-0.052-1.418,0.25-2.084
		c-0.114-0.117-0.224-0.229-0.335-0.349c-0.374,0.641-0.636,1.36-1.12,1.931c2.071,0.612,2.993,2.093,2.535,4.479
		c-1.005,5.221-2.272,10.399-3.251,14.804c-2.812-3.482-6.035-7.475-9.255-11.469c-0.188-0.234-0.387-0.474-0.5-0.741
		c-0.876-2.072-1.736-4.147-2.663-6.373c0.108-0.084,0.213-0.173,0.315-0.261c-1.682-0.238-3.15-1.187-4.279-2.465
		c-0.306,0.187-0.618,0.369-0.932,0.556c-1.93-1.145-4.077-2.426-6.452-3.836c0.231-0.096,0.45-0.201,0.662-0.312
		c-1.109-0.345-2.009-1.324-3.006-2.014c-0.113,0.604-0.042,1.297,0.289,2.137c-0.396-0.21-0.791-0.42-1.186-0.63
		c0.388,1.856,1.902,3.324,2.125,5.153c1.01-0.146,2.132-0.615,3.447-1.417c3.791,2.315,8.425,3.741,10.575,8.727
		c-8.857-5.387-17.824-6.331-20.832-2.324c0.396,0.105,0.754,0.308,1.072,0.262c6.374-0.833,11.522,1.422,15.946,5.549
		c4.703,4.39,7.561,9.864,10.071,15.489c4.242,9.511,6.779,19.515,9.227,29.537c0.602,2.47,1.1,4.955,1.729,7.833
		c-16.392-11.244-20.707-17.058-22.218-25.81c0.266-0.049,0.525-0.113,0.776-0.183c-0.558-1.434-1.056-2.864-1.127-4.3
		c-0.227,0.093-0.464,0.184-0.713,0.286c0.528-1.491,0.713-2.548,1.245-3.419c1.249-2.048,1.353-2.843-0.164-3.636
		c-1.076,1.423-2.081,2.765-3.391,3.775c0.29,0.092,0.587,0.164,0.903,0.219c0.646,4.23,1.259,8.204,1.909,12.435
		c-3.942-6.023-7.557-12.133-11.784-17.84c-4.194-5.661-9.009-10.917-13.607-16.418c0.34-0.208,0.664-0.433,0.978-0.675
		c-1.344-0.767-2.087-2.137-2.892-3.448c-0.739,0.321-1.471,0.645-2.201,0.958c-0.555-0.625-1.088-1.289-1.64-1.956
		c-0.318,0.607-0.722,1.174-1.264,1.672c0.982,0.437,1.714,1.188,2.575,1.957c1.321,1.187,2.862,2.159,4.205,3.327
		c1.026,0.898,1.9,1.957,3.076,3.181c-7.378-3.775-13.312-5.168-15.929-3.52c12.651,1.023,16.458,10.825,22.564,18.762
		c-4.107-1.522-7.766-2.879-10.902-4.044c-0.064-0.215-0.118-0.426-0.166-0.64c-1.922-0.018-3.724-0.109-5.48-0.589
		c0.313,0.439,0.667,0.892,1.065,1.359c-1.923-0.252-3.671,0.688-5.516,0.412c0.087,0.803,0.219,1.598,0.443,2.364
		c0.649-0.433,1.311-0.907,2.001-1.286c0.094,0.784,0.238,1.52,0.443,2.204c1.374,0.101,2.785,0.221,3.861-0.571
		c-0.935-0.365-1.87-0.74-2.809-1.104c0.078-0.333,0.152-0.666,0.229-1.002c2.074,0.143,4.184,0.099,6.218,0.455
		c7.682,1.342,12.771,5.606,16.423,12.123c4.466,7.967,9.386,15.718,17.752,20.891c2.87,1.773,4.927,4.465,5.261,8.012
		c-3.171-2.409-6.121-4.941-9.371-7.062c-13.255-8.673-28.082-13.573-43.941-15.913c-3.111-0.464-6.386-0.536-8.515-3.377
		c-3.679-4.904-4.865-10.469-5.321-16.269c0.345-0.067,0.667-0.159,0.977-0.267c-0.583-0.971-1.64-1.572-2.381-2.419
		c-0.097,0.415-0.157,0.857-0.229,1.251c-0.085,0.472,0.185,1.003,0.296,1.507c-0.175-0.146-0.33-0.294-0.483-0.438
		c0.36,1.675,0.131,3.349,0.095,5.021c0.303-0.009,0.617-0.029,0.95-0.071c0.974,5.087,2.363,10.043,6.452,13.858
		c-3.525,0-6.778,0-10.365,0c0.387-0.521,0.674-1.023,0.853-1.499c-1.292,0-2.372,0-3.605,0c0.274,0.262,0.551,0.527,0.829,0.791
		c-0.189,0.176-0.375,0.354-0.561,0.531c-0.637,0.081-1.271,0.161-1.904,0.236c-0.034,0.264-0.064,0.525-0.097,0.788
		c1.478,0.225,2.957,0.449,4.33,0.658c0,0.477-0.017,0.936-0.035,1.393c0.724,0,1.512,0,2.26,0c-0.353-0.421-0.734-0.875-1.165-1.37
		c15.713,0.071,51.073,12.787,55.798,20.151c-2.029-0.421-4.069-0.908-5.827-1.863c-3.752-2.046-7.438-4.103-11.938-4.285
		c-0.27-0.012-0.534-0.096-0.798-0.209c0,0.654,0,1.314,0,2.005c1.403-0.228,2.813,0.256,4.68,0.517
		c-0.683,0.573-1.329,1.114-1.951,1.637c1.229,1.159,2.968,1.842,4.518,1.702c0.332-0.533,0.619-1.123,0.839-1.775
		c1.453,0.81,2.811,1.814,4.351,2.353c1.894,0.658,4.034,1.489,5.905,1.228c2.539-0.35,4.259,0.143,5.818,1.916
		c0.546,0.625,1.393,1.01,2.02,1.586c5.545,5.08,10.405,10.616,12.456,17.848c0.611,2.145,0.824,4.393,1.319,7.149
		c-6.749-5.039-9.333-6.358-16.856-7.622c-2.405-0.407-3.43-1.459-3.871-2.784c0.299-0.27,0.616-0.513,0.926-0.746
		c-0.602-1.14-0.859-2.366-1.376-3.385c-0.162,0.346-0.321,0.694-0.492,1.058c-2.553-4.646-4.166-5.882-7.703-5.638
		c1.806,1.052,3.222,1.874,4.785,2.78c-0.154,0.042-0.307,0.078-0.461,0.12c0.601,0.506,1.105,1.073,1.361,1.743
		c0.011-0.019,0.024-0.028,0.036-0.043c0.719,1.935,1.418,3.804,2.22,5.955c-6.264-0.834-12.21-1.699-17.749-4.139
		c-5.717-2.522-9.465-6.981-12.753-11.969c-1.227,4.784,0.942,8.343,3.85,11.858c-4.13-1.524-8.259-3.045-11.821-4.362
		c-0.335-0.299-0.634-0.598-0.922-0.893c-0.596,0.559-1.065,1.215-1.496,1.97c0.635,0.201,1.269,0.405,1.909,0.609
		c-0.428,0.55-0.867,1.061-1.273,1.579c0.626,0.231,1.273,0.439,1.93,0.62c-0.167-1.98,0.696-2.454,2.905-1.683
		c3.535,1.245,6.611,3.75,10.726,3.42c0.387-0.032,0.799,0.462,1.229,0.649c4.468,1.957,8.947,3.896,13.422,5.847
		c0.407,0.178,0.799,0.388,1.083,0.525c-3.237,0.31-6.429,0.613-9.618,0.92c-0.07,0.229-0.143,0.464-0.214,0.692
		c-0.53-0.766-1.02-1.562-1.555-2.332c-0.682,0.919-0.201,2.251-0.292,3.276c1.259,0.217,2.603,0.098,4.021-0.412
		c0.78-0.285,1.651-0.347,2.48-0.509c0.086,0.238,0.17,0.479,0.255,0.721c-0.586,0.292-1.185,0.568-1.778,0.853
		c0.593,0.354,1.292,0.314,2.022,0.266c0.253-0.691,0.501-1.4,0.782-2.109c11.456,0.344,21.854,3.596,30.668,10.747
		c2.855,2.317,4.591,5.257,4.656,9.041c0.123,6.921-4.2,23.646-4.124,30.567h34.917c0.092-12.029-4.384-37.96-3.856-49.979
		c0.103-2.369,1.109-4.867,2.309-6.999c3.489-6.188,9.507-9.586,16.207-11.952c9.274-3.276,18.968-2.92,28.63-2.631
		c1.782,0.045,3.552,0.249,6.1,0.44c-0.206,0.143-0.389,0.271-0.56,0.393c0.545,0.121,1.005,0.448,1.449,0.797
		c0.135-0.362,0.273-0.727,0.417-1.092c0.094,0.011,0.409,0.045,0.722,0.083c3.85,0.508,5.918,1.748,6.536,4.098
		c0.752,0.047,1.568,0.278,2.333,0.059c-1.134-1.915-2.544-3.648-4.848-4.727c-0.794-0.373-1.518-0.883-1.696-0.984
		c0.757-0.959,1.305-2.276,2.315-2.803c1.649-0.872,3.603-1.23,5.425-1.802c0.039,0.118,0.075,0.244,0.111,0.367
		c0.518-0.379,0.902-0.962,1.336-1.463C211.648,93.551,210.594,93.425,209.311,93.542z"/>
	<g>
		<path style="fill-rule:evenodd;clip-rule:evenodd;fill:#3FB4FF;" d="M45.352,46.657c3.379-1.129,4.839-4.44,3.451-7.734
			c-1.74,1.312-3.598,2.539-5.207,4.018c-0.332,0.303-0.506,0.782-0.625,1.297C43.712,45.088,44.77,45.685,45.352,46.657z"/>
		<path style="fill-rule:evenodd;clip-rule:evenodd;fill:#3FB4FF;" d="M42.555,46.556c-0.644-0.607-1.128-1.252-1.435-1.966
			c-0.391-0.908-0.522-1.917-0.78-2.935c-2.353,1.309-3.214,4.309-2.18,7.003c0.785,2.044,2.194,2.984,4.49,2.925
			C42.687,49.908,42.915,48.232,42.555,46.556z"/>
		<path style="fill-rule:evenodd;clip-rule:evenodd;fill:#3FB4FF;" d="M39.41,60.582c-1.987-1.449-5.484-1.564-6.701-0.74
			c1.359,1.297,2.787,2.66,4.226,4.025c1.233,0,2.313,0,3.605,0C41.01,62.619,40.723,61.535,39.41,60.582z"/>
		<path style="fill-rule:evenodd;clip-rule:evenodd;fill:#3FB4FF;" d="M39.571,71.238c0.348,2.212,1.499,4.083,4.032,4.48
			c0.914,0.149,2.218-0.304,2.876-0.926c0.368-0.345,0.02-1.751-0.442-2.4c-0.6-0.841-1.707-1.335-2.469-2.095
			c-0.611-0.612-1.17-1.27-1.812-2.031c-0.748,0-1.536,0-2.26,0C39.459,69.295,39.421,70.279,39.571,71.238z"/>
		<path style="fill-rule:evenodd;clip-rule:evenodd;fill:#3FB4FF;" d="M80.555,84.85c-1.696,1.427-3.207,2.694-4.694,3.951
			c3.373,1.989,7.21,0.974,9.212-2.252C83.523,86.686,81.785,86.006,80.555,84.85z"/>
		<path style="fill-rule:evenodd;clip-rule:evenodd;fill:#3FB4FF;" d="M100.146,103.54c0.602-2.064,0.021-4.146-1.481-5.67
			c-0.693,1.494-1.349,2.913-2.061,4.443c0.518,1.017,0.775,2.246,1.376,3.385C98.969,104.952,99.913,104.339,100.146,103.54z"/>
		<path style="fill-rule:evenodd;clip-rule:evenodd;fill:#3FB4FF;" d="M80.689,115.531c-1.008,0.476-2.006,0.967-2.924,1.565
			c-0.641,0.421-0.865,1.41-1.276,2.136c0.899,0.362,1.856,1.092,2.69,0.981c0.854-0.116,1.89-0.893,2.317-1.649
			c0.493-0.87,0.861-1.801,1.215-2.769C81.981,115.848,81.282,115.884,80.689,115.531z"/>
		<path style="fill-rule:evenodd;clip-rule:evenodd;fill:#3FB4FF;" d="M76.002,111.607c-0.332-0.475-0.679-0.934-1.068-1.36
			c-0.653-0.721-1.649-1.253-2.605-1.599c-0.269-0.101-1.343,0.77-1.33,1.175c0.03,1.054,0.099,2.45,0.796,3.076
			c1.174,1.051,2.489,1.731,3.915,1.983C75.801,113.856,75.32,112.523,76.002,111.607z"/>
		<path style="fill-rule:evenodd;clip-rule:evenodd;fill:#3FB4FF;" d="M55.366,103.959c-1.493,2.392-1.155,5.021,0.822,6.268
			c0.548,0.347,1.454,0.67,1.95,0.468c0.451-0.183,0.834-1.116,0.785-1.68c-0.155-1.64-0.583-3.252-0.834-4.882
			c-0.031-0.202-0.052-0.389-0.065-0.565c-0.656-0.184-1.304-0.393-1.93-0.624C55.832,103.277,55.582,103.609,55.366,103.959z"/>
		<path style="fill-rule:evenodd;clip-rule:evenodd;fill:#3FB4FF;" d="M56.954,98.787c-0.78-0.799-1.429-1.511-2.25-1.816
			c-1.92-0.719-5.002,0.451-5.945,1.646c2.18,0.697,4.429,1.414,6.699,2.139C55.889,100.001,56.358,99.344,56.954,98.787z"/>
		<path style="fill-rule:evenodd;clip-rule:evenodd;fill:#3FB4FF;" d="M92.732,100.635c-3.274,0.847-6.2,1.604-9.019,2.327
			c2.582,3.378,7.146,3.279,10.38-0.585C93.838,101.707,93.333,101.145,92.732,100.635z"/>
		<path style="fill-rule:evenodd;clip-rule:evenodd;fill:#3FB4FF;" d="M76.67,80.126c-2.724-1.186-5.447-2.371-8.832-3.845
			c0.656,1.856,0.949,3.39,1.71,4.68c1.493,2.526,4.524,3.658,6.639,2.35c0.563-0.347,1.1-0.536,1.638-0.619
			c0-0.688,0-1.349,0-2.004C77.441,80.521,77.055,80.289,76.67,80.126z"/>
	</g>
	<g>
		<path style="fill-rule:evenodd;clip-rule:evenodd;fill:#009245;" d="M102.941,23.346c2.39-2.007,3.361-4.741,2.12-6.294
			c-2.081,1.246-4.141,2.478-6.399,3.832C99.791,22.159,101.259,23.111,102.941,23.346z"/>
		<path style="fill-rule:evenodd;clip-rule:evenodd;fill:#009245;" d="M94.418,9.144c-0.886,1.005-1.611,2.218-2.696,2.974
			c-1.326,0.919-2.535,1.79-2.789,3.163c0.998,0.685,1.897,1.665,3.006,2.008C95.36,15.46,96.615,11.072,94.418,9.144z"/>
		<path style="fill-rule:evenodd;clip-rule:evenodd;fill:#009245;" d="M104.296,51.959c-0.899,0.752-1.659,1.558-2.585,2.11
			c-0.797,0.474-1.713,0.78-2.885,1.234c0.072,1.433,0.569,2.867,1.127,4.297C103.443,58.6,105.424,55.357,104.296,51.959z"/>
		<path style="fill-rule:evenodd;clip-rule:evenodd;fill:#009245;" d="M99.194,48.534c-0.396-0.21-0.898-0.416-1.523-0.646
			c-1.673-0.613-3.249-1.456-4.865-2.203c-0.456-0.21-0.896-0.437-1.342-0.659c-0.122,0.529-0.442,1.103-0.333,1.581
			c0.671,2.85,2.238,4.931,4.672,5.699C97.114,51.297,98.118,49.954,99.194,48.534z"/>
		<path style="fill-rule:evenodd;clip-rule:evenodd;fill:#009245;" d="M74.202,30.029c1.763-1.356,3.022-3.244,2.922-5.975
			c-2.02,0.876-3.939,1.712-5.813,2.525C72.115,27.889,72.858,29.258,74.202,30.029z"/>
		<path style="fill-rule:evenodd;clip-rule:evenodd;fill:#009245;" d="M70.762,43.66c-1.536-2.025-3.34-3.874-5.021-5.782
			c-1.902,2.082-1.834,4.647,0.409,7.808c1.757,0.478,3.559,0.569,5.48,0.589C71.402,45.289,71.275,44.344,70.762,43.66z"/>
		<path style="fill-rule:evenodd;clip-rule:evenodd;fill:#009245;" d="M64.586,50.74c0.678,2.257,2.05,3.918,4.671,4.71
			c1.828,0.546,3.632,0.14,4.26-1.492c0.669-1.735-1.056-2.354-2.559-2.865c-0.845-0.288-1.678-0.604-2.511-0.924
			C67.372,50.961,65.96,50.847,64.586,50.74z"/>
		<path style="fill-rule:evenodd;clip-rule:evenodd;fill:#009245;" d="M59.918,46.761c-1.964-1.311-4.441-1.946-6.691-2.88
			c-0.212,0.074-0.422,0.153-0.631,0.228c0.692,1.577,1.042,3.445,2.18,4.648c1.108,1.163,3.053,2.288,4.59,2.24
			c0.926-0.021,1.837-0.555,2.775-1.178c-0.224-0.759-0.356-1.561-0.443-2.359C61.119,47.37,60.527,47.165,59.918,46.761z"/>
		<path style="fill-rule:evenodd;clip-rule:evenodd;fill:#009245;" d="M118.149,45.916c1.989,0.489,3.108-0.58,3.973-1.742
			c1.185-1.588,1.983-3.432,1.476-5.404c-1.916,1.017-3.665,1.946-5.389,2.862C118.262,43.058,118.562,44.489,118.149,45.916z"/>
		<path style="fill-rule:evenodd;clip-rule:evenodd;fill:#009245;" d="M111.465,15.317c-0.247-0.261-0.267-0.698-0.46-1.018
			c-0.176-0.285-0.435-0.702-0.69-0.724c-0.289-0.029-0.732,0.249-0.916,0.511c-1.937,2.811,0.924,8.358,4.378,8.517
			c0.749,0.035,1.406,0.138,1.983,0.305c0.484-0.568,0.747-1.286,1.12-1.932C115.044,19.071,113.245,17.197,111.465,15.317z"/>
		<path style="fill-rule:evenodd;clip-rule:evenodd;fill:#009245;" d="M67.47,25.585c-0.864-1.05-1.764-2.093-2.833-2.944
			c-1.761-1.403-3.97-2.311-5.985-3.432c-0.794,3.896,1.64,8.021,5.01,7.695c1.055-0.108,1.859,0.045,2.544,0.351
			C66.748,26.753,67.152,26.188,67.47,25.585z"/>
		<path style="fill-rule:evenodd;clip-rule:evenodd;fill:#009245;" d="M84.208,14.755c-0.731,2.383,0.197,4.621,2.624,6.335
			c1.044,0.745,2.105,1.03,3.329,0.851c-0.223-1.829-1.737-3.301-2.125-5.156C86.756,16.108,85.479,15.432,84.208,14.755z"/>
		<path style="fill-rule:evenodd;clip-rule:evenodd;fill:#009245;" d="M125.525,19.336c-1.613,0.94-3.234,1.874-4.829,2.803
			c0.311,1.379,0.571,2.807,1.194,4.125C124.754,25.373,126.581,22.246,125.525,19.336z"/>
	</g>
	<g>
		<path style="fill-rule:evenodd;clip-rule:evenodd;fill:#D41440;" d="M199.447,27.915c1.091,0.25,2.504-0.714,3.77-1.121
			c-0.731-0.818-1.323-1.834-2.228-2.412c-0.948-0.604-2.237-0.721-3.302-1.193c-0.506-0.225-0.978-0.527-1.57-0.921
			c-0.44,0.113-0.88,0.215-1.221,0.443C195.443,25.326,196.757,27.288,199.447,27.915z"/>
		<path style="fill-rule:evenodd;clip-rule:evenodd;fill:#D41440;" d="M162.271,42.685c-2.513-1.047-4.784-1.996-7.041-2.939
			c-1.042,3.039,1.389,6.153,5.912,7.381C162.332,46.537,162.303,44.379,162.271,42.685z"/>
		<path style="fill-rule:evenodd;clip-rule:evenodd;fill:#D41440;" d="M163.92,32.867c-1.673-1.75-3.978-2.955-6.241-4.561
			c-1.281,1.731-0.46,3.622,0.391,5.398c1.026,2.141,2.715,3.329,5.519,3.02c0.035-1.136,0.268-2.258,0.813-3.253
			C164.253,33.26,164.099,33.054,163.92,32.867z"/>
		<path style="fill-rule:evenodd;clip-rule:evenodd;fill:#D41440;" d="M187.8,9.226c1.969-0.277,2.926-1.215,3.264-3.321
			c0.26-1.643,0.898-3.544-0.76-4.904c-1.032,1.223-1.681,2.399-2.693,3.111c-1.037,0.729-1.827,1.543-2.329,2.499
			C186.359,7.192,187.63,7.736,187.8,9.226z"/>
		<path style="fill-rule:evenodd;clip-rule:evenodd;fill:#D41440;" d="M165.48,12.611c2.153-1.644,3.135-4.659,2.233-6.484
			c-2.165,1.398-4.458,2.637-6.755,3.853c-0.268,0.585-0.471,1.212-0.542,1.854C162.703,13.454,164.141,13.631,165.48,12.611z"/>
		<path style="fill-rule:evenodd;clip-rule:evenodd;fill:#D41440;" d="M138.326,10.099c0.501,1.604,0.543,3.096,1.343,3.988
			c1.215,1.354,2.746,2.46,4.261,3.646c0.843-1.428,1.14-2.996,1.512-4.612C143.211,12.172,140.95,11.213,138.326,10.099z"/>
		<path style="fill-rule:evenodd;clip-rule:evenodd;fill:#D41440;" d="M132.435,62.048c1.669,0.291,3.071-0.169,4.045-1.689
			c1.071-1.673,1.988-3.449,1.312-5.378c-1.909,1.082-3.607,2.037-5.289,2.989C132.016,59.307,132.543,60.766,132.435,62.048z"/>
		<path style="fill-rule:evenodd;clip-rule:evenodd;fill:#D41440;" d="M194.232,18.24c0.85-1.54,1.624-3.116,0.857-4.686
			c-2.265,1.211-4.281,2.293-6.257,3.349c0.035,1.187,0.321,2.352,0.565,3.604C191.677,20.934,193.221,20.081,194.232,18.24z"/>
		<path style="fill-rule:evenodd;clip-rule:evenodd;fill:#D41440;" d="M166.29,42.402c2.162,0.327,3.428-0.314,4.645-2.562
			c0.799-1.472,1.674-3.093,0.689-4.604c-1.995,1.158-3.708,2.161-5.15,3.002c-0.078-0.173-0.15-0.346-0.221-0.518
			C165.89,39.219,166.333,40.861,166.29,42.402z"/>
		<path style="fill-rule:evenodd;clip-rule:evenodd;fill:#D41440;" d="M156.091,1.537c-1.454,0.799-2.918,1.602-4.385,2.409
			c0,1.576,0,3.278,0,4.846C154.557,8.681,156.573,5.796,156.091,1.537z"/>
		<path style="fill-rule:evenodd;clip-rule:evenodd;fill:#D41440;" d="M183.637,9.645c-1.105-0.313-2.146-0.593-3.118-1.016
			c-1.186-0.519-2.244-1.305-3.547-2.085c-0.136,5.016,2.789,7.753,7.393,7.424C184.397,12.525,183.992,11.084,183.637,9.645z"/>
	</g>
	<g>
		<path style="fill-rule:evenodd;clip-rule:evenodd;fill:#F1861E;" d="M207.565,97.204c0.304,1.153,0.265,2.571-0.098,4.31
			c-0.135,0.655-0.141,1.347-0.108,2.021c0.065,1.477,1.021,1.922,2.441,1.729c1.952-0.267,3.172-2.189,2.119-4.185
			c-0.665-1.266-1.285-2.577-2.022-3.815C209.133,97.479,208.318,97.249,207.565,97.204z"/>
		<path style="fill-rule:evenodd;clip-rule:evenodd;fill:#F1861E;" d="M212.542,85.851c-0.435,0.502-0.818,1.082-1.336,1.462
			c0.344,1.166,0.72,2.328,0.982,3.515c0.139,0.648-0.172,1.411,0.047,2.017c0.349,0.967,0.973,1.85,1.48,2.77
			c0.93-0.584,1.872-1.153,2.785-1.754c0.229-0.148,0.371-0.406,0.553-0.615c0-0.754,0-1.511,0-2.262
			C216.059,88.701,214.868,86.649,212.542,85.851z"/>
		<path style="fill-rule:evenodd;clip-rule:evenodd;fill:#F1861E;" d="M212.947,81.711c1.017-0.966,1.633-2.272,0.264-3.056
			c-0.915-0.525-2.874-0.589-3.578-0.007c-1.002,0.829-1.474,2.394-1.809,3.724c-0.136,0.523-0.156,1.075-0.142,1.607
			c0.826,0.036,1.719,0.315,2.533,0.466C211.098,83.457,212.024,82.587,212.947,81.711z"/>
		<path style="fill-rule:evenodd;clip-rule:evenodd;fill:#F1861E;" d="M196.451,94.667c-0.828,0.442-1.972,0.564-2.537,1.186
			c-0.67,0.735-0.866,1.856-1.268,2.809c1.09,0.387,2.201,1.108,3.268,1.052c0.823-0.043,1.887-0.916,2.319-1.68
			c0.687-1.223,1.151-2.556,1.657-3.922c-0.444-0.347-0.904-0.67-1.449-0.795C197.563,93.942,197.036,94.357,196.451,94.667z"/>
		<path style="fill-rule:evenodd;clip-rule:evenodd;fill:#F1861E;" d="M198.656,75.219c3.968,0.946,6.134-1.344,6.595-7.233
			c-2.577,1.323-4.394,3.962-7.583,3.068c-0.224,1.691-0.418,3.019-0.676,4.092c0.414,0.401,0.83,0.758,1.416,0.928
			C198.486,75.787,198.571,75.497,198.656,75.219z"/>
		<path style="fill-rule:evenodd;clip-rule:evenodd;fill:#F1861E;" d="M178.057,77.027c0.142-0.317,0.285-0.631,0.426-0.946
			c3.571-0.002,6.025-2.97,5.365-7.36c-2.281,1.352-4.515,2.606-6.647,4.003c-0.385,0.249-0.389,1.074-0.487,1.643
			c-0.08,0.486-0.158,0.965-0.237,1.451C176.894,76.394,177.372,76.844,178.057,77.027z"/>
		<path style="fill-rule:evenodd;clip-rule:evenodd;fill:#F1861E;" d="M173.648,79.183c-2.393-1.008-4.728-1.987-7.473-3.141
			c0.936,2.151,1.298,4.043,2.44,5.312c0.917,1.014,2.368,1.603,3.758,2.287C174.791,83.423,173.79,81.334,173.648,79.183z"/>
		<path style="fill-rule:evenodd;clip-rule:evenodd;fill:#F1861E;" d="M194.817,45.606c1.377-0.165,3.052-0.354,3.61-1.198
			c0.997-1.511,1.375-3.405,1.888-5.168c0.117-0.393-0.275-0.914-0.432-1.378c-0.401,0.333-0.793,0.678-1.199,1.009
			c-0.594,0.482-1.136,1.058-1.81,1.421c-1.799,0.963-3.559,1.808-3.556,4.189c0.502,0.396,0.91,0.931,1.456,1.224
			C194.786,45.674,194.803,45.639,194.817,45.606z"/>
		<path style="fill-rule:evenodd;clip-rule:evenodd;fill:#F1861E;" d="M190.837,45.877c-1.018-0.666-1.972-1.278-2.878-1.948
			c-1.263-0.926-2.437-1.956-4.156-3.352c-0.119,1.21-0.471,2.293-0.278,3.29c0.496,2.557,1.749,4.598,4.771,5.309
			C189.902,48.534,190.507,47.31,190.837,45.877z"/>
		<path style="fill-rule:evenodd;clip-rule:evenodd;fill:#F1861E;" d="M215.797,67.457c-2.241,1.229-4.494,2.361-6.595,3.703
			c-0.462,0.294-0.662,1.414-0.498,2.044c0.043,0.173,0.077,0.346,0.104,0.517c0.614,0.283,1.332,0.589,1.825,1.03
			C214.125,74.291,216.117,71.476,215.797,67.457z"/>
	</g>
</g>
<path style="fill-rule:evenodd;clip-rule:evenodd;fill:#3C3C3B;" d="M3,168v9h254v-9.292l-0.896-4l-0.698,4l-0.574-1l-0.436,1
	l-0.785-2.823l0.088,2.115h-0.526l-0.603-3.812l-0.155,4.344l-0.102-0.119l-0.487-3.748l-0.306,2.437l-0.62-5.82l0.07,6.691
	l-0.129-0.267l-0.027,0.072l-0.366-2.069l-0.311,1.976l-0.445-1.444l0.057,1.256l-0.147-0.787l-0.345,1.856l-0.023-0.165
	l0.043-4.691l-0.341,2.629l-0.26-1.796l-0.155,4.167l-0.419-0.854l-0.401-3.146l-0.012,3.004l-0.682-6.421l0.077,7.309l-0.012,0.038
	l-0.517-2.93l-0.466,2.968l-0.708-4.619l0.003-0.349l-0.026,0.2l-0.146-0.95l0.082,1.089l-0.56,3.953h-0.182l-0.513-3.646
	l-0.116,1.09l-0.116-0.824l-0.008,1.932l-0.198,1.582l-0.153-0.436l-0.149,0.519l-0.245-0.511l-0.13,0.336l-0.323-0.916l0.062,1.57
	l-0.757-2.456l0.035,0.782l-0.623-4.418l0.325,5.396h-0.011h-0.141l-0.603-3.812l-0.155,4.344l-0.204-0.353l-0.171-2.835
	l-0.278,3.016l-0.073,0.321l-0.788-7.403l0.077,7.424l-0.529-2.997l-0.221,1.409l-0.064-0.215l0.024,0.47l-0.21,1.339l-0.375-2
	l-0.125,0.672l-0.221-1.529l0.02-2.312l-0.559,4.159l-0.299-2.329l-0.296,2.34l-0.087-0.652l-0.542-5.104l0.066,6.322l-0.217-0.607
	l-0.044,0.155l-0.257-1.453l-0.241,1.534l-0.306-0.957l0.032,0.735l-0.241-0.781l0.057,1.256l-0.147-0.787l-0.14,0.754l-0.208-1.353
	l0.022-2.401l-0.179,1.378l-0.48-3.128l0.203,3.589l-0.146-1.006l-0.155,4.167l-0.419-0.854l-0.401-3.146l-0.012,3.004l-0.682-6.421
	l0.077,7.309l-0.011,0.038l-0.517-2.93l-0.466,2.968l-0.708-4.619l0.003-0.349l-0.026,0.2l-0.145-0.95l0.082,1.26l-0.56,4.123
	h-0.182l-0.513-3.816l-0.116,1.004l-0.116-0.866l-0.008,1.911l-0.198,1.57l-0.153-0.441l-0.149,0.517l-0.245-0.513l-0.13,0.336
	l-0.323-0.917l0.062,1.57l-0.757-2.456l0.035,0.782l-0.623-4.247l0.325,5.566h-0.011h-0.141l-0.603-3.983l-0.155,4.259l-0.491-0.954
	l-0.235,1.022l-0.788-7.405l0.078,7.423l-0.53-2.997l-0.471,3.001l-0.375-1.999l-0.372,2.001l0.046-5l-0.523,4.027l-0.366-3.027
	l-0.338,2.748l-0.35-2.748l-0.014,3.553l-0.26-0.553l-0.045,0.116l-0.04-0.116l-0.265,0.908l-0.031,0.08l-0.063-0.182l-0.699-2.459
	l0.113,2.285h-0.304l-0.881-5.566l0.11,2.042l-0.053-0.321l-0.155,4.189l-0.102-0.195l-0.487-3.787l-0.306,2.418l-0.62-5.83
	l0.07,6.687l-0.129-0.269l-0.028,0.071l-0.365-2.071l-0.311,1.976l-0.445-1.444l0.057,1.256l-0.147-0.787l-0.345,1.856l-0.023-0.165
	l0.043-4.691l-0.341,2.629l-0.26-1.796l-0.155,4.167l-0.419-0.854l-0.401-3.146l-0.012,3.004l-0.682-6.421l0.077,7.309l-0.012,0.038
	l-0.517-2.93l-0.466,2.968l-0.708-4.619l0.003-0.349l-0.026,0.2l-0.146-0.95l0.082,1.26l-0.56,4.123h-0.182l-0.513-3.816
	l-0.116,1.004l-0.116-0.866l-0.008,1.911l-0.198,1.57l-0.153-0.441l-0.149,0.517l-0.245-0.513l-0.13,0.336l-0.323-0.917l0.061,1.57
	l-0.756-2.456l0.035,0.782l-0.623-4.247l0.324,5.566h-0.011h-0.141l-0.603-3.983l-0.155,4.259l-0.491-0.954l-0.235,1.022
	l-0.788-7.405l0.077,7.423l-0.529-2.997l-0.146,0.933l-0.466-4.013l-0.499,4.271l-0.087-0.196l0.027-2.992l-0.307,2.362
	l-0.107-0.241l-0.385,1.067l-0.76-2.729l0.046,1.038l-0.064-0.681L201.942,166h-0.389l-0.603-4.17l-0.155,4.587l-0.102-0.151
	l-0.486-4.016l-0.306,2.597l-0.62-6.218l0.07,7.144l-0.128-0.286l-0.028,0.077l-0.366-2.21l-0.31,2.109l-0.445-1.543l0.056,1.341
	l-0.147-0.84l-0.345,1.981l-0.024-0.176l0.043-5.009l-0.341,2.807l-0.26-1.917l-0.155,4.448l-0.419-0.911l-0.401-3.359l-0.012,3.207
	l-0.682-6.854l0.076,7.803l-0.011,0.041l-0.517-3.128l-0.466,3.168l-0.708-4.932l0.003-0.372l-0.026,0.214l-0.146-1.015l0.082,1.263
	l-0.56,4.32h-0.182l-0.514-3.992l-0.115,1.113l-0.117-0.905l-0.007,2.05l-0.198,1.683l-0.153-0.469l-0.149,0.553l-0.246-0.546
	l-0.13,0.358l-0.322-0.979l0.061,1.677l-0.757-2.623l0.035,0.836l-0.623-4.617l0.325,5.861h-0.011h-0.141l-0.603-4.17l-0.155,4.587
	l-0.491-0.998l-0.235,1.103l-0.788-7.901l0.078,7.927l-0.529-3.198l-0.472,3.204l-0.375-2.133l-0.372,2.136l0.046-5.616L185.328,166
	h-0.312l-0.249-2.898l-0.104,1.148l-0.263-2.104l-0.016,4.341l-0.343-1.033l-0.291,1.085l-0.557-1.959l0.062,1.421h-0.04
	l-0.423-1.541l0.074,1.541h-0.074l-0.881-5.955l0.316,6.065l-0.441-3.143l-0.155,4.519l-0.102-0.187l-0.487-4.032l-0.306,2.588
	l-0.62-6.223l0.07,7.142l-0.129-0.287l-0.027,0.077l-0.366-2.211l-0.31,2.109l-0.445-1.543l0.057,1.341l-0.147-0.84l-0.344,1.981
	l-0.024-0.176l0.043-5.009l-0.341,2.807l-0.26-1.917l-0.155,4.448l-0.419-0.911l-0.401-3.359l-0.012,3.207l-0.682-6.854l0.077,7.803
	l-0.011,0.041l-0.517-3.128l-0.466,3.168l-0.708-4.932l0.003-0.372l-0.026,0.214l-0.145-1.015l0.082,1.263l-0.56,4.32h-0.182
	l-0.513-3.992l-0.116,1.113l-0.116-0.905l-0.008,2.05l-0.198,1.683l-0.153-0.469l-0.149,0.553l-0.245-0.546l-0.13,0.358
	l-0.323-0.979l0.062,1.677l-0.757-2.623l0.035,0.836l-0.623-4.617l0.325,5.861h-0.011h-0.141l-0.603-4.17l-0.051,1.565l-0.179-1.156
	l-0.433,3.28l-0.194,0.9l-0.045-0.089l-0.768-7.702l0.075,7.623l-0.032,0.087l-0.495-2.987l-0.167,1.141l-0.188-0.666l0.062,1.336
	l-0.15,0.838h-0.061l-0.341-1.763l-0.112,0.735l-0.232-1.633l0.019-2.24l-0.157,1.279l-0.052-0.371l-0.038,1.109l-0.305,2.471
	l-0.4-3.315l-0.302,2.554l-0.038-0.312l-0.585-5.88l0.07,7.141l-0.092-0.206l-0.034-0.104l-0.018,0.064l-0.013,0.035l-0.365-2.211
	l-0.286,1.943l-0.167-0.531l0.009,0.238l-0.312-1.084l0.057,1.341l-0.147-0.84l-0.157,0.904l-0.192-1.337l0.024-2.771l-0.193,1.591
	l-0.37-2.58l0.187,3.533l-0.224-1.654l-0.155,4.448l-0.419-0.911l-0.401-3.359l-0.012,3.207l-0.682-6.854l0.077,7.803l-0.012,0.041
	l-0.517-3.128l-0.466,3.168l-0.708-4.932l0.003-0.372l-0.026,0.214l-0.146-1.015l0.082,1.263l-0.56,4.32h-0.182l-0.513-3.992
	l-0.116,1.113l-0.116-0.905l-0.008,2.05l-0.198,1.683l-0.153-0.469l-0.149,0.553l-0.245-0.546l-0.13,0.358l-0.323-0.979l0.061,1.677
	l-0.756-2.623l0.035,0.836l-0.623-4.617l0.325,5.861h-0.011h-0.141l-0.603-4.17l-0.155,4.587l-0.491-0.998l-0.235,1.103
	l-0.788-7.901l0.077,7.927l-0.529-3.198l-0.472,3.204l-0.375-2.133l-0.371,2.136l0.046-5.433l-0.63,5.086l-0.471-3.924l-0.229,1.926
	l-0.247-2.02l-0.015,4.226l-0.008,0.068l-0.335-1.021l-0.061,0.226l-0.09-0.202l-0.252,0.695l-0.444-1.418l0.03,0.793l-0.482-1.916
	l0.111,2.357h-0.061l-0.881-5.955l0.268,5.158l-0.454-3.235l-0.155,4.519l-0.102-0.187l-0.487-4.032l-0.306,2.588l-0.62-6.223
	l0.07,7.142l-0.129-0.287l-0.027,0.077l-0.366-2.211l-0.311,2.109l-0.445-1.543l0.057,1.341l-0.147-0.84l-0.345,1.981l-0.023-0.176
	l0.043-5.009l-0.341,2.807l-0.26-1.917l-0.155,4.448l-0.419-0.911l-0.401-3.359l-0.012,3.207l-0.682-6.854l0.077,7.803l-0.012,0.041
	l-0.517-3.128l-0.466,3.168l-0.708-4.932l0.003-0.372l-0.026,0.214l-0.146-1.015l0.082,1.263l-0.56,4.32h-0.182l-0.513-3.992
	l-0.116,1.113l-0.116-0.905l-0.008,2.05l-0.198,1.683l-0.153-0.469l-0.149,0.553l-0.245-0.546l-0.13,0.358l-0.323-0.979l0.062,1.677
	l-0.757-2.623l0.035,0.836l-0.623-4.617l0.324,5.861h-0.011h-0.141l-0.603-4.17l-0.155,4.587l-0.491-0.998l-0.235,1.103
	l-0.788-7.901l0.077,7.927l-0.529-3.198l-0.472,3.204l-0.375-2.133l-0.33,1.898l0.264-4.701l-0.279,1.829l0.02-2.507L131.753,167
	h-0.391l0.023-0.399l-0.09,0.349l-0.47-3.804l-0.016,4.341l-0.343-1.033l-0.269,1.003l-0.012-3.092l-0.29,2.286l-0.277-1.069
	l0.062,1.419h-0.463l-0.881-5.955l0.318,5.912l0.001,0.043H129v1.29l-0.529-1.923l-0.46,2l-0.513-3l-0.548,3l0.066-7.417
	l-0.79,7.417l-0.236-1l-0.489,1l-0.155-4.351l-0.6,3.983h-0.14h-0.011l0.323-5.566l-0.619,4.155l0.035-0.736l-0.752,2.479
	l0.061-1.56l-0.321,0.924l-0.129-0.332l-0.244,0.515l-0.148-0.513l-0.152,0.448l-0.197-1.56l-0.008-1.888l-0.116,0.912l-0.115-1.096
	l-0.51,3.816h-0.181l-0.556-4.123l0.081-1.352l-0.145,0.996l-0.025-0.178l0.003,0.36l-0.705,4.625l-0.463-2.965l-0.514,2.931
	l-0.012-0.037l0.076-7.308l-0.678,6.421l-0.012-3.004l-0.398,3.146l-0.417,0.854l-0.154-4.167l-0.259,1.796l-0.339-2.629
	l0.043,4.691l-0.023,0.165l-0.343-1.856l-0.146,0.787l0.056-1.256l-0.442,1.444l-0.131-0.84l0.218-3.886l-0.576,3.776l-0.184,1.045
	l-0.027-0.071l-0.128,0.27l0.069-6.687l-0.616,5.832l-0.305-2.415l-0.4,3.141l-0.195,0.572l-0.11-2.981l-0.003-0.731l-0.019,0.148
	l-0.011-0.499l-0.6,3.983h-0.292l-0.183-1.233l0.035-0.96l-0.121,0.428l-0.376-2.891l0.037,3.995l-0.113,0.36l-0.247-1.335
	l-0.251,1.351l-0.155-0.349l-0.097,0.166l-0.338-2.165l-0.343,1.955l-0.164-0.893l0.057-5.479l-0.388,3.668l-0.045-0.251
	l-0.856,3.559l-0.216,0.441l-0.155-4.351L108.319,168h-0.14h-0.011l0.323-5.566l-0.619,4.155l0.035-0.736l-0.752,2.479l0.061-1.56
	l-0.321,0.924l-0.129-0.332l-0.244,0.515l-0.148-0.513l-0.152,0.448l-0.197-1.56l-0.008-1.888l-0.116,0.912l-0.115-1.096
	l-0.51,3.816h-0.181l-0.556-4.123l0.081-1.352l-0.145,0.996l-0.025-0.178l0.003,0.36l-0.705,4.625l-0.463-2.965l-0.514,2.931
	l-0.012-0.037l0.076-7.308l-0.678,6.421l-0.012-3.004l-0.398,3.146l-0.417,0.854l-0.154-4.167l-0.259,1.796l-0.339-2.629
	l0.043,4.691l-0.023,0.165l-0.343-1.856l-0.146,0.787l0.056-1.256l-0.442,1.444l-0.309-1.976l-0.364,2.071l-0.027-0.071l-0.128,0.27
	l0.069-6.687l-0.616,5.832l-0.305-2.415l-0.484,3.793l-0.101,0.207l-0.154-4.351l-0.6,3.983H96.18l0.078-2.285l-0.788,2.561
	l-0.272-0.559l0.289-5.123l-0.811,5.332l-0.259,0.436l-0.222-1.164l0.016-0.414l-0.062,0.177l-0.494-2.593l-0.634,2.478l-0.01-2.661
	L92.505,168h-0.415l-0.646-4.816l0.046,5.092l-0.369-1.954l-0.373,2.022l-0.469-2.988l-0.526,3.006l0.077-7.414l-0.784,7.418
	l-0.233-0.999l-0.488,1.001l-0.155-4.351L87.572,168h-0.14H87.42l0.323-5.566l-0.619,4.155l0.035-0.736l-0.752,2.479l0.061-1.56
	l-0.321,0.924l-0.129-0.332l-0.244,0.515l-0.148-0.513l-0.152,0.448l-0.197-1.56l-0.008-1.888l-0.116,0.912l-0.115-1.096L84.528,168
	h-0.181l-0.556-4.123l0.081-1.352l-0.145,0.996l-0.025-0.178l0.003,0.36L83,168.329l-0.463-2.965l-0.514,2.931l-0.012-0.037
	l0.076-7.308l-0.678,6.421l-0.012-3.004l-0.399,3.146l-0.417,0.854l-0.154-4.167l-0.259,1.796l-0.339-2.629l0.043,4.691
	l-0.023,0.165l-0.343-1.856l-0.146,0.787l0.056-1.256l-0.442,1.444l-0.309-1.976l-0.364,2.071l-0.027-0.071l-0.128,0.27l0.069-6.687
	l-0.616,5.832l-0.305-2.415l-0.484,3.793l-0.102,0.207l-0.154-4.351l-0.6,3.983h-0.522l0.088-2.285l-0.444,1.501l-0.541-3.977
	l-0.538,4.294l-0.493-1.057l-0.055,0.155l-0.389-2.268l-0.37,1.696l-0.346-1.235l0.1,2.184L72.407,167h-0.48l-0.603-4.17
	l-0.155,4.587l-0.102-0.151l-0.487-4.016l-0.306,2.597l-0.62-6.218l0.07,7.144l-0.129-0.286l-0.027,0.077l-0.366-2.21l-0.311,2.109
	l-0.445-1.543l0.057,1.341l-0.147-0.84l-0.344,1.981l-0.024-0.176l0.043-5.009l-0.341,2.807l-0.26-1.917l-0.155,4.448l-0.419-0.911
	l-0.401-3.359l-0.012,3.207l-0.682-6.854l0.077,7.803l-0.011,0.041l-0.517-3.128l-0.466,3.168l-0.708-4.932l0.003-0.372
	l-0.026,0.214l-0.146-1.015l0.082,1.263l-0.56,4.32h-0.182l-0.513-3.992l-0.116,1.113l-0.116-0.905l-0.008,2.05l-0.198,1.683
	l-0.153-0.469l-0.098,0.363l-0.291-0.946l0.031,0.671l-0.037-0.08l-0.13,0.358l-0.323-0.979l0.062,1.677l-0.27-0.935l-0.349-2.408
	l-0.039,1.063l-0.1-0.344l0.035,0.836l-0.623-4.434l0.293,5.466l-0.311-2.421l-0.107,0.85l-0.305-2.203l-0.072,2.089l-0.441-4.152
	l0.062,5.929l-0.194-0.414l-0.069,0.318l-0.25-1.416l-0.082,0.517l-0.623-6.252l0.065,6.645l-0.116-0.378l0.054,1.203l-0.455-2.75
	l-0.026,0.176l0.011-1.16l-0.341,2.629l-0.26-1.796l-0.078,2.087l-0.152-0.866l-0.353,2.028l-0.017-0.129l0.044-5.197l-0.349,2.812
	l-0.072-0.568l-0.005,1.191l-0.107,0.868l-0.582-5.66L55.303,167h-0.019l-0.51-3.992l-0.009,2.384l-0.217,1.431l-0.132-0.381
	l-0.246,0.921l-0.561-3.652l0.003-0.346l-0.026,0.202l-0.146-0.95l0.082,1.444l-0.395,3.039l-0.843-5.871l0.294,5.565l-0.312-2.427
	l-0.115,0.912l-0.117-0.912l-0.007,1.888l-0.198,1.56l-0.153-0.447l-0.149,0.514l-0.246-0.514l-0.13,0.335l-0.323-0.918l0.061,1.57
	l-0.756-2.456l0.035,0.782l-0.623-4.247L49.872,168h-0.011H49.72l-0.603-3.983l-0.155,4.259l-0.491-0.954l-0.235,1.022l-0.788-7.405
	l0.077,7.423l-0.529-2.997l-0.472,3.001l-0.375-1.999l-0.307,1.654l-0.059-0.321l0.04-4.332l-0.345,2.654l-0.3-1.654l-0.508,3.316
	l-0.423-3.316l-0.013,3.376l-0.2-0.376l-0.08,0.192l-0.065-0.192l-0.28,0.964l-0.763-2.616L42.945,168h-0.304l-0.881-5.566
	l0.11,2.042l-0.053-0.321l-0.155,4.189l-0.102-0.195l-0.487-3.787l-0.306,2.418l-0.62-5.83l0.07,6.687l-0.129-0.269l-0.027,0.071
	l-0.366-2.071l-0.31,1.976l-0.445-1.444l0.057,1.256l-0.147-0.787l-0.345,1.856l-0.024-0.165l0.043-4.691l-0.341,2.629l-0.26-1.796
	l-0.155,4.167l-0.419-0.854l-0.401-3.146l-0.012,3.004l-0.682-6.421l0.077,7.309l-0.011,0.038l-0.517-2.93l-0.466,2.968
	l-0.708-4.619l0.003-0.349l-0.026,0.2l-0.145-0.95l0.082,1.26L33.98,168h-0.182l-0.513-3.816l-0.115,1.004l-0.117-0.866
	l-0.008,1.911l-0.198,1.57l-0.153-0.441l-0.149,0.517l-0.245-0.513l-0.13,0.336l-0.323-0.917l0.062,1.57l-0.757-2.456l0.035,0.782
	l-0.623-4.247L30.889,168h-0.011h-0.141l-0.603-3.983l-0.155,4.259l-0.491-0.954l-0.235,1.022l-0.788-7.405l0.078,7.423l-0.53-2.997
	l-0.471,3.001l-0.375-1.999l-0.372,2.001l0.046-5.184L26.193,168h-0.417l-0.51-3.816l-0.01,2.479l-0.306-2.341l-0.461,3.661
	l-0.429-1.21l0.033,0.856l-0.128-0.265l-0.33,0.853l-0.858-5.601l0.218,3.86l-0.178-0.762L22.928,168h-0.525l-0.603-3.983
	l-0.155,4.259l-0.102-0.161l-0.487-3.771l-0.306,2.427l-0.62-5.826l0.07,6.689l-0.129-0.269l-0.028,0.072l-0.365-2.07l-0.311,1.976
	l-0.445-1.444l0.057,1.256l-0.147-0.787l-0.345,1.856l-0.024-0.165l0.043-4.691l-0.341,2.629l-0.26-1.796l-0.155,4.167l-0.419-0.854
	l-0.401-3.146l-0.012,3.004l-0.682-6.421l0.076,7.309l-0.011,0.038l-0.517-2.93l-0.466,2.968l-0.708-4.619l0.003-0.349l-0.026,0.2
	l-0.146-0.95l0.082,1.26L13.964,168h-0.182l-0.514-3.816l-0.115,1.004l-0.117-0.866l-0.007,1.911l-0.198,1.57l-0.153-0.441
	l-0.149,0.517l-0.246-0.513l-0.13,0.336l-0.323-0.917l0.061,1.57l-0.757-2.456l0.036,0.782l-0.623-4.247L10.872,168h-0.011h-0.141
	l-0.603-3.983l-0.155,4.259l-0.491-0.954l-0.235,1.022l-0.788-7.405l0.078,7.423l-0.529-2.997l-0.472,3.001l-0.375-1.999
	l-0.371,2.001l0.046-5.184L6.176,168H5.759l-0.51-3.816l-0.016,4.092l-0.343-0.954l-0.291,1.022l-0.557-1.755L4.104,168H3.641
	l-0.881-5.75L3.084,168H3z M245.368,164.676l0.125,2.21l-0.153,0.822L245.368,164.676z M230.279,165.335l0.125,2.21l-0.152,0.822
	L230.279,165.335z M211.296,165.335l0.125,2.21l-0.153,0.822L211.296,165.335z M193.747,163.318l0.125,2.359l-0.152,0.878
	L193.747,163.318z M174.582,164.318l0.125,2.359l-0.152,0.878L174.582,164.318z M159.398,164.318l0.125,2.359l-0.153,0.878
	L159.398,164.318z M140.172,164.318l0.125,2.359l-0.153,0.878L140.172,164.318z M120.894,165.335l0.027,3.032l-0.151-0.822
	L120.894,165.335z M104.466,165.335l0.027,3.032l-0.151-0.822L104.466,165.335z M83.719,165.335l0.027,3.032l-0.151-0.822
	L83.719,165.335z M64.12,164.318l0.125,2.359l-0.028,0.158l-0.11-0.918L64.12,164.318z M53.594,165.335l0.036,0.629l-0.04-0.128
	L53.594,165.335z M53.586,166.239l0.043,1.128h-0.054L53.586,166.239z M52.72,167.367v0.526l-0.067-0.526H52.72z M34.612,165.335
	l0.125,2.21l-0.152,0.822L34.612,165.335z M14.595,165.335l0.125,2.21l-0.152,0.822L14.595,165.335z"/>
<path style="fill-rule:evenodd;clip-rule:evenodd;fill:#3C3C3B;" d="M111.498,160.248c-0.869,0.393-1.666-0.473-2.442,0.322
	c0.196,0.23,0.386,0.489,0.613,0.713c1.795,1.769,1.653,3.877-0.367,5.394c-1.108,0.834-2.353,1.336-3.71,1.531
	c0.284,1.078,1.424,0.602,2.096,1.215c-0.202,0.01-0.286,0.027-0.366,0.015c-0.089-0.013-0.174-0.056-0.308-0.099
	c0.054,0.143,0.09,0.238,0.138,0.363c-0.832-0.183-1.643-0.362-2.449-0.54c0.359-0.716,0.28-0.856-0.504-0.947
	c-1.815-0.211-3.553-0.666-5.208-1.484c-0.551-0.271-1.239-0.253-1.853-0.41c-0.41-0.104-0.798-0.282-1.196-0.433
	c0.02-0.056,0.04-0.112,0.06-0.168c0.976-0.302,1.951-0.606,2.928-0.908c-0.021-0.076-0.041-0.154-0.062-0.229
	c-0.312,0.041-0.624,0.086-0.936,0.128c-0.013-0.038-0.025-0.073-0.038-0.11c0.267-0.122,0.533-0.247,0.883-0.409
	c-0.533-0.062-0.973-0.118-1.412-0.168c-0.005-0.062-0.011-0.125-0.017-0.186c0.704-0.082,1.418-0.105,2.108-0.254
	c1.157-0.242,2.296-0.576,3.447-0.848c1.108-0.258,2.215-0.562,3.34-0.71c0.783-0.102,0.895-0.181,0.773-1
	c-0.095-0.645-0.196-1.348-0.042-1.958c0.322-1.267,1.518-1.709,2.665-1.086c0.182,0.101,0.425,0.252,0.462,0.419
	C110.286,159.209,110.506,159.971,111.498,160.248z"/>
<g>
	<path style="fill-rule:evenodd;clip-rule:evenodd;fill:#3C3C3B;" d="M59.291,139.934c-0.178-0.737-0.275-1.515-0.266-2.271
		c0.021-1.58,0.625-2.092,2.189-2.211c0.995-0.077,1.977-0.313,3.34-0.54c-1.014-0.596-2.002-0.872-2.063-1.285
		c-0.087-0.586,0.51-1.273,0.921-2.144c-1.19,0.502-2.216,0.971-3.268,1.369c-2.957,1.121-4.458,3.388-4.32,6.559
		c0.044,1.004,0.182,2.024,0.061,3.012c-0.195,1.574-0.48,3.256-2.181,3.939c-1.583,0.634-2.87-0.329-4.044-1.246
		c-0.788-0.615-1.456-1.384-2.189-2.07c-0.733-0.688-1.39-1.526-2.246-1.998c-1.058-0.581-2.379-1.341-3.42-1.145
		c-1.659,0.312-2.851-0.242-4.16-0.928c-0.375-0.197-1.102-0.383-1.267-0.204c-0.762,0.826-1.561,0.36-2.386,0.302
		c-1.426-0.103-3.077-0.578-4.249-0.047c-3.312,1.504-6.72,1.24-10.146,1.249c-0.144,0-0.289,0.012-0.431,0.034
		c-3.557,0.582-6.763,1.846-8.24,5.425c-1.448,3.515-1.772,7.222-0.956,10.979c0.624,2.874,0.416,5.491-1.938,7.657
		c-0.784,0.721-1.254,1.778-1.868,2.682c0,0.383,0,0.767,0,1.15c1.545,1.756,3.546,2.376,5.789,2.119
		c0.745-0.085,1.44-0.605,2.158-0.928c-0.433-0.554-0.867-1.108-1.519-1.943c1.857-1.694,3.865-3.526,5.871-5.358
		c0.134,0.103,0.27,0.204,0.404,0.306c-0.383,0.957-0.74,1.923-1.156,2.865c-0.58,1.311-0.27,2.625,0.949,3.006
		c1.497,0.469,3.056,0.797,4.613,0.983c0.639,0.076,1.419-0.253,1.994-0.619c0.83-0.53,0.696-1.32-0.18-1.764
		c-1.485-0.751-1.654-1.162-1.048-2.644c0.217-0.532,0.472-1.048,0.708-1.57c1.517-3.356,1.516-3.306,5.183-3.256
		c1.348,0.019,1.789,0.576,1.72,1.818c-0.125,2.288-0.102,4.55-1.447,6.631c-1.01,1.56-0.344,2.67,1.545,2.845
		c1.371,0.126,2.767,0.074,4.144-0.021c0.48-0.032,0.935-0.434,1.776-0.853c-2.528-1.025-1.889-2.347-0.58-4.158
		c1.132,1.308,2.258,2.527,3.281,3.828c0.392,0.499,0.796,1.199,0.76,1.782c-0.086,1.399,0.453,1.961,1.8,1.917
		c0.301-0.01,2.011,0.168,3.734,0.146c0.224-0.128,1.592-0.265,1.856-0.416c-0.864-0.528-0.635-0.787-1.088-1.188
		c-0.458-0.404-1.08-0.922-1.127-1.436c-0.201-2.216-1.333-3.78-2.922-5.225c-1.878-1.709-3.651-3.57-4.449-6.081
		c-0.172-0.539-0.12-1.189-0.022-1.764c0.115-0.687,0.376-1.352,0.599-2.019c0.231-0.694,0.492-1.381,0.784-2.195
		c0.93,0.675,1.642,1.19,2.541,1.841c-0.066-0.98-0.115-1.706-0.168-2.478c2.788-0.468,4.088,1.442,5.639,3.562
		c0.126-1.035,0.201-1.652,0.289-2.382c3.527,2.097,7.176,2.676,11.023,1.361c-1.535-0.316-3.098-0.407-4.632-0.673
		c-2.994-0.514-3.361-0.713-4.118-1.731c3.578,1.159,7.138,2.459,10.967,1.66c0.025-0.143,0.051-0.284,0.076-0.428
		c-2.451-0.429-4.901-0.86-7.677-1.349C59.365,148.901,60.645,145.524,59.291,139.934z"/>
	<g>
		<circle style="fill:#FFFFFF;" cx="44.544" cy="145.766" r="1.674"/>
		<circle style="fill:#3C3C3B;" cx="44.544" cy="145.766" r="0.891"/>
	</g>
</g>
<g>
	<path style="fill-rule:evenodd;clip-rule:evenodd;fill:#3C3C3B;" d="M19.376,137.646c0.06-0.108,0.11-0.199,0.176-0.317
		c0.384,0.285-0.195,1.112,0.704,1.006c0.008-0.011,0.085-0.115,0.161-0.215c0.167,0.084,0.303,0.206,0.444,0.215
		c0.572,0.032,0.579,0.499,0.655,0.869c0.067,0.317,0.077,0.665,0.019,0.983c-0.029,0.157-0.266,0.275-0.397,0.4
		c0.564,0,1.144,0,1.724,0c0.005-0.056,0.009-0.113,0.014-0.171c-0.101-0.042-0.203-0.125-0.304-0.122
		c-0.397,0.007-0.703-0.003-0.735-0.556c-0.043-0.71,0.089-1.339,0.515-1.491c0.207-0.075,0.474,0.003,0.711,0.034
		c0.39,0.051,0.864,0.288,1.147,0.145c0.552-0.28,0.667,0.449,1.125,0.296c-0.437-1.166-1.378-0.749-2.124-0.649
		c0.282-0.332,0.574-0.665,0.854-1.007c0.768-0.945,0.91-1.981,0.36-3.066c-0.262-0.518,0.004-0.889,0.214-1.322
		c-0.281-0.242-0.557-0.543-0.892-0.744c-0.156-0.092-0.427,0.005-0.646,0.016c0.018,0.158,0.049,0.319,0.048,0.479
		c-0.001,0.103-0.053,0.205-0.079,0.311c-0.068,0.282-0.184,0.563-0.194,0.85c-0.024,0.662-0.353,1.098-0.913,1.395
		c-0.43,0.228-0.864,0.447-1.303,0.675c-1.621-1.911-3.956-2.831-5.325-2.037c0.349,0,0.653,0,1.038,0
		c-0.292,0.083-0.513,0.146-0.732,0.206c0.001,0.023,0.002,0.047,0.004,0.069c0.35,0.026,0.701,0.051,1.143,0.083
		c-0.123,0.229-0.218,0.407-0.324,0.607c0.142,0,0.299,0,0.506,0c-0.063,0.152-0.109,0.264-0.165,0.4c1,0.2,0.896,0.981,0.904,1.807
		c0.183-0.215,0.299-0.352,0.492-0.575c-0.069,0.39-0.119,0.668-0.168,0.946c0.039,0.016,0.077,0.029,0.115,0.044
		c0.132-0.151,0.263-0.304,0.442-0.512c0.013,0.244,0.022,0.429,0.032,0.614C18.995,137.05,19.204,137.14,19.376,137.646z"/>
	<g>
		<circle style="fill:#FFFFFF;" cx="23.792" cy="132.717" r="0.288"/>
		<circle style="fill:#3C3C3B;" cx="23.792" cy="132.717" r="0.153"/>
	</g>
</g>
<g>
	<path style="fill-rule:evenodd;clip-rule:evenodd;fill:#3C3C3B;" d="M221.964,166.363c-0.957,0.691-2.032,1.107-3.18,1.326
		c-1.131,0.217-2.168-0.361-2.865-1.538c-0.072-0.121-0.136-0.246-0.19-0.344c-0.263,0.646-0.547,1.278-0.775,1.93
		c-0.226,0.644-0.644,1.045-1.28,1.268c-0.619,0.219-1.207,0.551-1.839,0.696c-0.668,0.154-1.374,0.146-2.066,0.209
		c-0.123-0.219,0.011-0.645-0.514-0.409c0.25-0.604,0.695-0.721,1.149-0.836c0.613-0.155,1.222-0.323,1.833-0.485
		c-0.009-0.06-0.019-0.117-0.029-0.176c-0.436,0-0.873,0-1.309,0c-0.434,0-0.867,0-1.293,0c-0.164,0.511-0.319,0.99-0.429,1.331
		c-0.65,0.164-1.196,0.302-1.742,0.439c0.006-0.033,0.013-0.066,0.019-0.101c-0.13-0.03-0.275-0.109-0.389-0.079
		c-0.176,0.048-0.332,0.173-0.496,0.265c-0.049-0.027-0.098-0.055-0.146-0.082c0.055-0.149,0.066-0.372,0.173-0.437
		c0.366-0.221,0.77-0.376,1.147-0.579c0.148-0.08,0.264-0.222,0.387-0.328c-0.825,0.074-1.585,0.142-2.346,0.21
		c-0.027-0.067-0.055-0.135-0.082-0.202c0.365-0.216,0.712-0.475,1.099-0.634c0.342-0.142,0.426-0.261,0.299-0.637
		c-0.258-0.757-0.436-1.541-0.647-2.313c-0.029-0.104-0.03-0.264-0.099-0.305c-0.685-0.403-1.358-0.836-2.079-1.166
		c-1.093-0.502-2.243-0.156-3.371-0.112c-0.819,0.03-1.638,0.063-2.456,0.124c-0.387,0.029-0.534-0.131-0.531-0.491
		c0.001-0.129-0.008-0.258-0.007-0.386c0.004-0.699,0.081-0.726,0.791-0.71c0.469,0.011,0.965-0.048,1.406-0.2
		c0.955-0.33,1.886-0.735,2.822-1.12c0.719-0.296,0.731-0.354,0.625-1.11c-0.079-0.565-0.119-1.137-0.177-1.706
		c0.063-0.025,0.128-0.051,0.192-0.077c0.255,0.416,0.51,0.831,0.799,1.302c0.139-0.484,0.284-0.935,0.395-1.395
		c0.128-0.536,0.545-0.783,0.98-0.988c0.338-0.159,0.525,0.034,0.538,0.484c0.035,1.181,0.037,2.349-1.188,3.079
		c0.034,0.039,0.068,0.077,0.103,0.116c0.477-0.132,0.952-0.264,1.429-0.395c0.479-0.132,0.964-0.249,1.438-0.398
		c0.24-0.075,0.491-0.17,0.69-0.318c2.198-1.637,5.922-1.083,7.575,1.231c0.957,1.339,1.601,2.857,1.774,4.532
		c0.031,0.305,0.074,0.607,0.122,0.909c0.118,0.742,0.423,0.931,1.168,0.818c0.854-0.127,1.716-0.208,2.573-0.309
		C221.964,166.3,221.964,166.331,221.964,166.363z M209.573,167.096c1.355,0.071,1.609-0.1,1.393-0.893c-0.459,0-0.919,0-1.393,0
		C209.573,166.506,209.573,166.789,209.573,167.096z"/>
	<g>
		<circle style="fill:#FFFFFF;" cx="203.833" cy="161.192" r="0.793"/>
		<circle style="fill:#3C3C3B;" cx="203.833" cy="161.192" r="0.422"/>
	</g>
</g>
</svg>
