<?xml version="1.0" encoding="utf-8"?>
<!-- Generator: Adobe Illustrator 16.0.0, SVG Export Plug-In . SVG Version: 6.00 Build 0)  -->
<!DOCTYPE svg PUBLIC "-//W3C//DTD SVG 1.1//EN" "http://www.w3.org/Graphics/SVG/1.1/DTD/svg11.dtd">
<svg version="1.1" id="Layer_1" xmlns="http://www.w3.org/2000/svg" xmlns:xlink="http://www.w3.org/1999/xlink" x="0px" y="0px"
	 width="260px" height="178px" viewBox="0 0 260 178" style="enable-background:new 0 0 260 178;" xml:space="preserve">
<rect x="31" y="87" style="fill:#3FB4FF;" width="21" height="21"/>
<rect x="183" y="65" style="fill:#009245;" width="37" height="21"/>
<rect x="80" y="87" style="fill:#D41440;" width="20" height="21"/>
<rect x="194" y="5" style="fill:#009245;" width="20" height="21"/>
<path style="fill:#009245;" d="M31,153v20h6.572c-0.002,0-0.014-0.464-0.014-0.553c0-6.113,5.204-11.216,11.624-11.216
	c6.419,0,11.623,5.174,11.623,11.288c0,0.088-0.012,0.48-0.014,0.48H68v-20H31z"/>
<polygon style="fill:#3FB4FF;" points="54,86.909 75.33,108 54,108 "/>
<polygon style="fill:#3FB4FF;" points="32,64.825 53.246,86 32,86 "/>
<polygon style="fill:#D41440;" points="101,86.909 121.822,108 101,108 "/>
<polygon style="fill:#D41440;" points="80,64.825 100.9,86 80,86 "/>
<rect x="193" y="27" style="fill:#009245;" width="20" height="37"/>
<rect x="180" y="87" style="fill:#009245;" width="21" height="21"/>
<rect x="202" y="87" style="fill:#009245;" width="21" height="21"/>
<circle style="fill:#3FB4FF;" cx="88.697" cy="130.786" r="10.461"/>
<circle style="fill:#D41440;" cx="128.052" cy="130.786" r="10.461"/>
<circle style="fill:#F1861E;" cx="166.571" cy="130.786" r="10.46"/>
<g>
	<path style="fill:#3C3C3B;" d="M71,109v21h6.216c-0.002,0-0.014-0.225-0.014-0.318c0-6.419,5.204-11.645,11.623-11.645
		s11.623,5.235,11.623,11.655c0,0.093-0.012,0.308-0.014,0.308H108v-21H71z"/>
	<path style="fill:#3C3C3B;" d="M149,109v21h6.091c-0.002,0-0.014-0.225-0.014-0.318c0-6.419,5.204-11.645,11.623-11.645
		s11.623,5.235,11.623,11.655c0,0.093-0.012,0.308-0.014,0.308H186v-21H149z"/>
	<path style="fill:#3C3C3B;" d="M110,109v21h6.572c-0.002,0-0.014-0.225-0.014-0.318c0-6.419,5.204-11.645,11.624-11.645
		c6.419,0,11.623,5.235,11.623,11.655c0,0.093-0.012,0.308-0.014,0.308H147v-21H110z"/>
	<path style="fill:#3C3C3B;" d="M184,152v-21h-5.949c0.001,0,0.014,0.22,0.014,0.312c0,6.42-5.204,11.643-11.623,11.643
		c-6.419,0-11.623-5.23-11.623-11.652c0-0.092,0.012-0.303,0.014-0.303H147v21H184z"/>
	<path style="fill:#3C3C3B;" d="M146,152v-21h-6.467c0.001,0,0.014,0.22,0.014,0.312c0,6.42-5.204,11.643-11.624,11.643
		c-6.419,0-11.623-5.23-11.623-11.652c0-0.092,0.012-0.303,0.014-0.303H109v21H146z"/>
	<path style="fill:#3C3C3B;" d="M107,152v-21h-6.823c0.001,0,0.013,0.22,0.013,0.312c0,6.42-5.204,11.643-11.623,11.643
		c-6.419,0-11.623-5.23-11.623-11.652c0-0.092,0.012-0.303,0.014-0.303H70v21H107z"/>
	<rect x="147" y="153" style="fill:#3C3C3B;" width="37" height="20"/>
	<rect x="70" y="153" style="fill:#3C3C3B;" width="37" height="20"/>
	<rect x="108" y="153" style="fill:#3C3C3B;" width="37" height="20"/>
	<rect x="186" y="153" style="fill:#3C3C3B;" width="37" height="20"/>
	<rect x="32" y="109" style="fill:#3C3C3B;" width="37" height="21"/>
	<rect x="30" y="131" style="fill:#3C3C3B;" width="37" height="21"/>
	<rect x="187" y="109" style="fill:#3C3C3B;" width="37" height="21"/>
	<rect x="187" y="131" style="fill:#3C3C3B;" width="37" height="21"/>
</g>
<rect x="125" y="87" style="fill:#F1861E;" width="20" height="21"/>
<polygon style="fill:#F1861E;" points="147,86.909 168.152,108 147,108 "/>
<polygon style="fill:#F1861E;" points="126,64.825 146.068,86 126,86 "/>
</svg>
