<?xml version="1.0" encoding="utf-8"?>
<!-- Generator: Adobe Illustrator 16.0.0, SVG Export Plug-In . SVG Version: 6.00 Build 0)  -->
<!DOCTYPE svg PUBLIC "-//W3C//DTD SVG 1.1//EN" "http://www.w3.org/Graphics/SVG/1.1/DTD/svg11.dtd">
<svg version="1.1" id="Layer_1" xmlns="http://www.w3.org/2000/svg" xmlns:xlink="http://www.w3.org/1999/xlink" x="0px" y="0px"
	 width="260px" height="172.001px" viewBox="0 0 260 172.001" style="enable-background:new 0 0 260 172.001;" xml:space="preserve"
	>
<g>
	<g>
		<path style="fill:#3FB4FF;" d="M28.464,67.369c-3.838,4.612-10.69,5.249-15.305,1.413c-4.612-3.837-5.241-10.695-1.402-15.308
			c3.834-4.611,10.689-5.241,15.302-1.402C31.673,55.909,32.298,62.759,28.464,67.369z"/>
	</g>
	<g>
		<g>
			<path style="fill:#3C3C3B;" d="M196.56,56.607c-0.586-0.652-0.941-1.472-1.091-2.417c-3.238,3.439-5.069,6.34-4.338,7.151
				c0.72,0.808,3.759-0.661,7.498-3.45C197.782,57.624,197.087,57.196,196.56,56.607z"/>
			<path style="fill:#3C3C3B;" d="M244.245,13.941c-1.981,0.18-7.818,0.88-14.46,3.234c-4.982,1.765-10.409,4.46-15.001,8.567
				c-12.656,11.324-21.107,25.962-17.388,30.118c0.659,0.731,1.697,1.146,3.095,1.223c6.339,0.353,18.705-6.168,28.763-15.163
				c4.505-4.035,7.742-9.01,10.042-13.679C242.471,21.787,243.843,15.918,244.245,13.941z"/>
		</g>
		<circle style="fill:#F2F2F2;" cx="227.036" cy="29.215" r="4.913"/>
		<g>
			<path style="fill:#3C3C3B;" d="M208.687,69.15c-5.447,4.874-11.567,6.925-13.669,4.575c3.474-5.342,2.029-9.471,7.479-14.347
				c9-1.298,14.845-6.053,14.845-6.053S214.135,64.274,208.687,69.15z"/>
			<g>
				<path style="fill:#3C3C3B;" d="M185.439,43.168c-5.451,4.873-8.163,10.727-6.062,13.076c5.696-2.862,9.638-0.969,15.088-5.844
					c2.287-8.799,7.661-14.083,7.661-14.083S190.887,38.289,185.439,43.168z"/>
			</g>
		</g>
	</g>
	<g>
		<path style="fill-rule:evenodd;clip-rule:evenodd;fill:#3C3C3B;" d="M84.205,52.482c1.316-0.256,2.635-0.511,3.955-0.764
			c0.014-0.177,0.029-0.352,0.043-0.526c-0.713-0.262-1.423-0.519-2.287-0.832c-0.004,0.552-0.006,0.885-0.009,1.314
			c-1.65-0.008-3.215-0.018-5.151-0.03c0.708-0.62,1.211-1.066,1.806-1.589c-0.438-0.725-0.422-1.112,0.786-1.365
			c6.367-1.31,12.633-0.865,19.02,0.141c12.702,2.005,23.116,8.046,31.908,17.138c6.693,6.921,11.269,15.125,13.933,24.38
			c0.136,0.477-0.091,1.051-0.102,1.579c-0.011,0.491-0.073,1.023,0.085,1.47c0.427,1.212,1.193,2.346,1.411,3.583
			c5.639,32.066-16.251,61.882-47.105,67.364c-12.933,2.298-25.129-0.06-37.089-5.141c-6.12-2.602-10.726-6.89-14.904-11.693
			c-1.545-1.781-1.973-4.553-2.82-6.901c-0.128-0.356,0.232-0.887,0.369-1.344c-1.224-0.184-1.606,0.151-1.262,1.425
			c0.378,1.397,0.897,2.758,1.172,4.226c-4.15-4.116-6.961-9.097-9.219-14.379c-5.207-12.183-6.36-24.787-3.296-37.68
			c5.872-24.697,26.416-40.042,43.117-43.16c-2.379,1.423-5.806,0.852-7.459,4.169c1.182-0.319,2.216-0.598,3.23-0.873
			c-0.069-0.345-0.062-0.422-0.093-0.44c-0.129-0.085-0.27-0.158-0.463-0.264c0.398-0.192,0.777-0.375,1.269-0.611
			c0.107,0.988,0.072,1.709-0.869,2.385c-1.252,0.899-2.305,2.077-3.438,3.134c-0.414-0.167-0.996-0.596-1.218-0.455
			c-0.892,0.566-1.672,1.308-2.617,2.086c1.953,0.707,2.5-1.065,3.673-1.503c-0.047,0.259-0.096,0.517-0.142,0.774
			c0.388-0.101,0.963-0.067,1.142-0.318c1.375-1.925,3.538-2.77,5.365-4.067c0.258-0.183,0.353-0.597,0.517-0.908
			c0.625-1.204,1.436-2.176,2.871-2.366c-0.108,0.752-0.217,1.516-0.323,2.262c1.184,0.009,2.184,0.015,3.18,0.021
			c-0.792,0.408-1.583,0.813-2.375,1.221c-1.25,0.648-2.514,1.279-3.753,1.95c-1.18,0.637-2.417,1.207-3.484,1.999
			c-1.47,1.094-2.929,2.261-4.131,3.627c-0.395,0.447,0.025,1.614,0.092,2.795c3.444-2.908,7.211-3.764,11.218-3.908
			c0.406-0.015,0.854-0.275,1.178-0.547c0.229-0.187,0.645-0.418,0.732-0.372c2.383-1.81,4.682-3.553,6.902-5.239
			c-0.167-0.449-0.365-0.985-0.653-1.76c0.501,0.248,0.85,0.417,1.198,0.584c0.391,0.42,0.783,0.843,1.215,1.305
			c2.482-0.148,5.058-0.303,7.582-0.455c-0.036,0.098-0.141,0.4-0.305,0.875c0.674-0.175,1.168-0.299,1.763-0.451
			c-0.191-0.371-0.348-0.666-0.542-1.043c0.963-0.469,1.831-1.078,2.789-1.309c0.978-0.237,2.041-0.105,3.067-0.135
			c-0.005-0.17-0.007-0.338-0.012-0.506c-1.446-0.127-2.891-0.268-4.338-0.368c-0.178-0.01-0.436,0.129-0.547,0.277
			c-1.287,1.755-3.066,1.532-4.938,1.453c-1.902-0.08-3.821,0.229-5.735,0.366c-0.032-0.34-0.004-0.95-0.107-0.973
			c-0.509-0.111-1.246-0.294-1.542-0.034C87.098,53.256,85.745,53.587,84.205,52.482z M64.296,60.961
			c0.833-1.026,1.667-2.055,2.5-3.083c-0.188-0.168-0.375-0.334-0.563-0.499c-1.135,0.994-2.272,1.987-3.729,3.262
			c0.958,0.145,1.404,0.21,1.847,0.275c-0.954,0.68-1.902,1.366-2.862,2.037c-0.417,0.294-0.851,0.565-1.287,0.834
			c-0.748,0.465-1.499,0.928-2.261,1.371c-0.339,0.196-0.691,0.4-1.063,0.502c-0.933,0.259-1.883,0.461-2.825,0.685
			c0.121,0.119,0.24,0.242,0.359,0.363c-0.18,0.582-0.184,1.454-0.573,1.692c-1.318,0.805-2.711,1.692-4.188,1.986
			c-3.127,0.62-4.12,3.532-6.116,5.326c-1.063,0.952-1.473,2.639-2.156,4.003c-0.175,0.349-0.268,0.735-0.402,1.104
			c0.997-1.124,1.554-2.466,2.419-3.565c0.86-1.093,2.292-1.783,3.004-2.938c1.302-2.114,3.517-2.742,5.408-3.91
			c0.245-0.15,0.849-0.221,0.883-0.146c0.78,1.757,1.797,0.161,2.762,0.426c-0.403-1.058,0.591-3.801,1.355-4.068
			c0.18-0.063,0.486,0.034,0.65,0.164c1.812,1.402,3.137,1.029,4.271-1.041c0.66-1.205,1.561-2.28,2.372-3.396
			c0.319-0.445,0.697-0.849,1.138-1.378C64.808,60.964,64.552,60.962,64.296,60.961z M83.642,72.453
			c-0.439-0.514-0.877-1.028-1.314-1.542c-0.678,0.652-1.441,1.241-1.989,1.988c-0.241,0.326-0.046,0.98-0.049,1.482
			c0.216,0.089,0.432,0.176,0.649,0.266c0.919-0.75,1.84-1.496,2.759-2.247c-0.189,0.683-0.278,1.419-0.587,2.042
			c-0.668,1.354-0.041,1.304,1.002,1.107c0.629-0.12,1.302-0.015,1.953-0.011c0.014,0.163,0.027,0.324,0.038,0.488
			c-1.149,0.29-2.3,0.581-3.715,0.94c0.474,0.428,0.833,0.828,1.265,1.123c1.076,0.742,0.741,1.728,0.454,2.662
			c-0.1,0.329-0.517,0.816-0.764,0.801c-0.992-0.057-1.994-0.204-2.953-0.465c-1.924-0.526-1.916-0.531-2.442,1.463
			c-0.231,0.89-0.842,1.699-0.97,2.591c-0.208,1.443,0.333,2.61,2.182,2.851c-0.386,0.447-0.533,0.659-0.721,0.824
			c-1.62,1.447-3.75,2.448-4.087,4.996c-0.052,0.39-0.697,0.92-1.141,1.006c-2.651,0.512-3.748,2.705-5.176,4.565
			c-0.913,1.19-1.709,2.294-1.058,3.983c0.265,0.688-0.092,1.659-0.291,2.472c-0.29,1.177-0.783,2.31-1.015,3.492
			c-0.118,0.601,0.037,1.316,0.268,1.901c0.278,0.703,0.891,1.284,1.144,1.991c0.882,2.458,2.448,4.39,4.319,6.16
			c1.328,1.255,2.782,1.765,4.605,1.557c1.13-0.13,2.296,0.127,3.441,0.061c1.136-0.066,2.27-0.279,3.39-0.501
			c0.871-0.172,1.708-0.534,2.583-0.647c0.383-0.049,1.116,0.237,1.184,0.503c0.487,1.893,1.818,1.938,3.354,1.724
			c0.971-0.134,1.732,0.237,1.739,1.285c0.006,0.885-0.027,1.911-0.46,2.622c-0.891,1.468-0.182,2.503,0.738,3.349
			c2.33,2.151,3.075,4.967,3.607,7.894c0.066,0.355-0.095,0.846-0.321,1.145c-2.299,3.033-2.31,4.023-0.198,7.134
			c0.474,0.699,0.692,1.578,0.99,2.387c0.36,0.981,0.594,2.021,1.046,2.956c0.453,0.93,1.315,1.691,1.626,2.646
			c0.497,1.53,1.218,1.98,2.693,1.444c1.028-0.376,2.127-0.626,3.213-0.759c3.273-0.4,5.292-2.598,7.268-4.889
			c0.48-0.556,0.896-1.31,1.512-1.565c1.129-0.466,1.717-1.339,1.511-2.317c-0.375-1.772,0.737-2.439,1.854-3.225
			c0.691-0.487,1.371-0.987,2.054-1.489c2.096-1.546,2.61-3.776,1.948-6.304c-0.417-1.599-0.804-3.602-0.199-4.981
			c1.126-2.571,2.69-5.102,4.61-7.141c2.7-2.865,3.775-6.272,4.545-9.902c0.174-0.822,0.036-1.708,0.042-2.716
			c-0.737,0.432-1.262,0.752-1.801,1.047c-0.553,0.302-1.112,0.594-1.68,0.87c-1.769,0.86-2.683,0.373-2.813-1.495l-0.045,0.042
			c0.451,0.067,0.984,0.322,1.329,0.163c0.658-0.301,1.259-0.779,1.79-1.287c1.437-1.372,2.843-2.728,4.115-4.322
			c1.78-2.231,2.351-4.546,2.508-7.142c0.025-0.412-0.58-0.967-1.02-1.285c-0.73-0.525-1.565-0.912-2.386-1.375
			c-0.375,0.82-0.561,2.212-1.994,2.061c-1.476-1.554-2.821-2.971-4.165-4.389c0.158-0.218,0.318-0.435,0.477-0.652
			c0.519,0.28,1.115,0.474,1.541,0.86c2.167,1.964,2.452,2.049,4.557,0.903c0.523,1.271,1.48,1.253,2.583,0.758
			c0.757-0.343,1.573-0.56,2.302-0.947c0.728-0.381,1.261-0.443,1.883,0.233c0.85,0.926,1.822,1.738,2.863,2.718
			c0.205-0.575,0.33-0.937,0.567-1.613c1.62,3.981,3.147,7.732,4.672,11.485c0.234-11.638-2.99-22.27-9.748-31.602
			c-6.738-9.304-15.692-15.879-26.818-19.39c0.22,0.34,0.44,0.682,0.667,1.036c-0.459,0.146-0.888,0.283-1.533,0.489
			c0.871,0.633,1.568,1.145,2.051,1.495c-1.213,1.06-2.402,2.099-3.692,3.223c-0.243-0.183-0.663-0.498-1.083-0.811
			c-0.056,0.048-0.111,0.103-0.166,0.154c0.188,0.371,0.376,0.745,0.695,1.382c-1.039-0.432-1.793-0.809-2.587-1.062
			c-0.898-0.287-1.863-0.385-2.749-0.701c-2.298-0.822-3.512-0.417-5.098,1.467c-1.13,1.342-2.369,2.646-3.771,3.685
			c-0.974,0.724-1.322,1.399-1.054,2.508c0.275,1.144,0.784,1.97,1.948,1.658c-0.127,0.938-0.253,1.857-0.36,2.64
			c-1.333,0.659-2.633,1.302-3.893,1.924c-0.28-0.34-0.673-0.695-0.918-1.136c-0.449-0.808-1.345-1.895-1.104-2.456
			c0.616-1.429-0.475-1.67-1.124-2.503c-0.492,0.511-1.301,0.987-1.266,1.386c0.086,0.956,0.568,1.88,0.904,2.86
			C84.151,72.506,83.897,72.475,83.642,72.453z M48.972,139.672c0.27-0.004,0.539-0.006,0.808-0.006
			c0.009-1.481,0.337-3.054-0.047-4.427c-0.58-2.077,0.015-3.646,0.953-5.423c0.482-0.908,0.519-2.524,0.015-3.389
			c-1.363-2.344-2.838-4.721-5.508-5.921c-0.236-0.105-0.364-0.449-0.547-0.68c-0.63-0.789-1.209-1.631-1.906-2.356
			c-0.668-0.691-1.312-1.129-1.052-2.407c0.459-2.231-0.111-4.43-1.473-6.302c-1.421-1.956-1.971-4.104-1.85-6.493
			c0.026-0.479-0.307-0.977-0.479-1.466c-0.161,0.058-0.326,0.114-0.487,0.176c-0.369,2.542,0.19,4.91,1.458,7.151
			c0.277,0.494,0.781,1.019,0.75,1.5c-0.183,3.146,0.452,6.115,1.3,9.136c1.668,5.935,3.888,11.56,7.594,16.545
			c0.388,0.523,0.4,1.368,0.468,2.078C49.045,138.142,48.977,138.908,48.972,139.672z M128.13,135.122
			c-1.539,1.316-3.033,2.569-4.487,3.867c-0.298,0.267-0.484,0.688-0.641,1.071c-0.505,1.234-1.089,2.456-1.407,3.737
			c-0.189,0.77,0.063,1.647,0.118,2.477c0.719-0.335,1.444-0.66,2.155-1.017c0.124-0.062,0.188-0.246,0.268-0.384
			c0.848-1.458,1.848-2.851,2.502-4.39C127.368,138.761,128.621,137.118,128.13,135.122z M72.979,54.352
			c-0.036-0.13-0.072-0.256-0.109-0.384c-2.855,0.178-5.887-0.325-8.399,1.504c-2.707,1.969-5.219,4.203-7.802,6.34
			c-0.108,0.09-0.069,0.355-0.12,0.654c1.395-0.809,2.922-1.29,3.852-2.312c2.092-2.3,4.34-4.228,7.384-5.073
			c0.121-0.032,0.274,0.064,0.409,0.1c-0.17,0.368-0.321,0.694-0.457,0.984C69.546,55.54,71.262,54.946,72.979,54.352z
			 M80.991,64.871c0.812-0.633,1.412-1.107,2.016-1.579c-0.636-0.307-1.261-0.823-1.911-0.856c-0.493-0.027-1.016,0.562-1.525,0.878
			C79.985,63.769,80.399,64.224,80.991,64.871z M59.289,68.51c-0.128-0.104-0.253-0.206-0.382-0.31
			c-0.789,0.22-1.582,0.442-2.496,0.697c0.554,1.049,0.961,1.82,1.525,2.889C58.442,70.56,58.867,69.533,59.289,68.51z
			 M104.464,55.222c-0.206-0.016-0.412-0.032-0.617-0.049c-0.076,0.389-0.354,0.958-0.193,1.137c0.863,0.976,0.871,2.931,3.109,2.71
			C105.699,57.794,103.754,57.325,104.464,55.222z M37.021,100.743c-0.13-1.482-0.239-2.704-0.352-3.991
			C35.284,97.447,35.445,99.39,37.021,100.743z M108.692,50.891c0.029-0.212,0.058-0.423,0.087-0.634
			c-1.301-0.079-2.604-0.159-4.166-0.255C105.92,52.031,107.447,50.421,108.692,50.891z"/>
		<path style="fill-rule:evenodd;clip-rule:evenodd;fill:#3C3C3B;" d="M80.154,88.643c1.116-0.325,2.249-0.604,3.331-1.008
			c0.384-0.147,0.899-0.597,0.924-0.936c0.107-1.468,1.306-1.79,2.175-2.585c1.229-1.123,2.442-1.616,4.037-2.028
			c1.436-0.368,2.206-0.568,3.16,0.709c0.708,0.95,1.796,1.612,2.674,2.445c0.302,0.285,0.477,0.697,0.707,1.053
			c-0.384,0.191-0.749,0.452-1.155,0.562c-0.431,0.114-0.898,0.087-1.544,0.495c0.744,0.519,1.488,1.037,2.389,1.668
			c0.673-1.234,1.243-2.271,1.81-3.312c-0.117-0.114-0.232-0.229-0.351-0.347c0.342,0.128,0.684,0.254,1.29,0.48
			c-1.033-2.44-4.619-2.296-4.853-5.399c1.686,1.078,3.405,1.853,4.668,3.088c1.063,1.043,1.573,2.646,2.384,3.963
			c0.316,0.512,0.792,0.926,1.273,1.472c0.327-0.906,0.546-1.51,0.773-2.143c-0.3-0.424-0.629-0.889-0.946-1.341
			c1.186-1.517,1.485-1.485,2.167,0.171c0.804,1.958,1.892,2.521,4.216,2.428c0.399-0.019,0.827,0.608,1.234,0.944
			c0.301,0.251,0.594,0.515,0.888,0.771c0.12-0.336,0.233-0.675,0.356-1.012c0.142-0.379,0.29-0.756,0.435-1.132
			c0.259,0.242,0.64,0.438,0.758,0.738c0.224,0.584,0.35,1.219,0.432,1.844c0.192,1.49-0.416,2.479-1.895,2.515
			c-2.741,0.067-5.562,0.696-8.155-0.934c-1.006-0.631-1.835-0.026-2.288,0.963c-0.836,1.824-1.094,1.95-2.788,0.959
			c-0.759-0.443-1.414-1.072-2.196-1.465c-0.785-0.396-1.667-0.602-2.429-0.865c-0.047-0.778-0.16-1.414-0.103-2.035
			c0.123-1.32-0.778-1.718-1.715-1.639c-3.301,0.289-6.585,0.738-9.879,1.109c-0.591,0.066-1.192,0.059-1.787,0.086
			C80.15,88.83,80.153,88.736,80.154,88.643z M91.542,86.421c1.336-1.234,1.221-2.939,0.024-4.043
			C91.559,83.853,91.55,85.138,91.542,86.421z"/>
		<path style="fill-rule:evenodd;clip-rule:evenodd;fill:#3C3C3B;" d="M123.485,110.074c-2.522-1.483-4.839-3.054-5.943-6.055
			c-0.733-1.992-2.068-3.762-3.151-5.621c-0.315-0.54-0.679-1.047-1.021-1.568c0.069-0.147,0.14-0.294,0.207-0.443
			c0.392,0.14,0.994,0.163,1.142,0.438c1.11,2.056,3.425,3.269,3.986,5.708c0.077,0.339,0.294,0.748,0.572,0.924
			c2.458,1.564,3.256,4.142,4.161,6.663C123.44,110.116,123.485,110.074,123.485,110.074z"/>
		<path style="fill-rule:evenodd;clip-rule:evenodd;fill:#3C3C3B;" d="M109.804,80.592c0.905-0.651-0.611-2.599,1.567-2.354
			c-0.274,2.789,3.014,2.056,3.95,4.074c-0.944,0.904-2.239,0.772-3.327,0.388c-1.348-0.478-2.434-0.627-3.674,0.31
			c-0.453,0.342-1.396,0.184-2.052,0.016c-0.169-0.043-0.13-0.995-0.14-1.528c-0.004-0.308,0.051-0.628,0.138-0.926
			c0.587-1.99,1.122-2.12,2.586-0.672C109.102,80.15,109.432,80.324,109.804,80.592z"/>
		<path style="fill-rule:evenodd;clip-rule:evenodd;fill:#3C3C3B;" d="M117.403,78.565c0.89-0.609,0.509-2.39,2.366-1.955
			c-0.778,1.384-0.19,2.115,1.02,2.962c0.965,0.674,1.476,1.999,2.175,3.043c0.403,0.601,0.788,1.217,1.182,1.823
			c-1.373,0.659-2.867,0.375-3.084-0.833c-0.303-1.671-1.231-2.702-2.501-3.627C118.151,79.679,117.891,79.176,117.403,78.565z"/>
		<path style="fill-rule:evenodd;clip-rule:evenodd;fill:#3C3C3B;" d="M97.394,68.217c-0.525-0.827-0.996-1.888,0.263-2.765
			c1.046,1.591,2.049,3.118,3.054,4.646c-0.051,0.069-0.102,0.14-0.153,0.21c-0.353-0.293-0.707-0.585-1.053-0.87
			c-0.417,0.912-0.602,2.243-1.304,2.63c-0.949,0.52-2.298,0.309-3.527,0.067c0.65-0.35,1.3-0.699,1.743-0.938
			C96.743,70.201,97.015,69.373,97.394,68.217z"/>
		<path style="fill-rule:evenodd;clip-rule:evenodd;fill:#3C3C3B;" d="M115.897,125.322c-0.127,0.388-0.205,0.802-0.395,1.158
			c-0.201,0.376-0.488,0.721-0.794,1.019c-0.057,0.053-0.586-0.211-0.58-0.301c0.049-0.549,0.071-1.161,0.339-1.609
			c0.189-0.315,0.759-0.398,1.158-0.588C115.718,125.108,115.807,125.213,115.897,125.322z"/>
	</g>
	<g>
		<g>
			<path style="fill:#F1861E;" d="M27.758,112.707L27.758,112.707z"/>
			<circle style="fill:#F1861E;" cx="18.447" cy="120.697" r="0.606"/>
			<circle style="fill:#F1861E;" cx="10.876" cy="130.323" r="1.213"/>
			<circle style="fill:#F1861E;" cx="8.815" cy="142.082" r="1.82"/>
			<circle style="fill:#F1861E;" cx="17.166" cy="150.653" r="2.426"/>
			<circle style="fill:#F1861E;" cx="29.068" cy="153.178" r="2.63"/>
			<circle style="fill:#F1861E;" cx="41.24" cy="151.717" r="2.835"/>
			<circle style="fill:#F1861E;" cx="53.033" cy="148.349" r="3.04"/>
			<circle style="fill:#F1861E;" cx="64.454" cy="143.918" r="3.245"/>
			<circle style="fill:#F1861E;" cx="75.588" cy="138.801" r="3.45"/>
			<circle style="fill:#F1861E;" cx="86.494" cy="133.197" r="3.656"/>
			<circle style="fill:#F1861E;" cx="97.216" cy="127.224" r="3.86"/>
			<circle style="fill:#F1861E;" cx="107.779" cy="120.958" r="4.065"/>
			<circle style="fill:#F1861E;" cx="118.199" cy="114.457" r="4.27"/>
			<circle style="fill:#F1861E;" cx="128.493" cy="107.756" r="4.475"/>
			<circle style="fill:#F1861E;" cx="138.671" cy="100.882" r="4.68"/>
			<circle style="fill:#F1861E;" cx="148.743" cy="93.853" r="4.885"/>
			<circle style="fill:#F1861E;" cx="158.713" cy="86.681" r="5.09"/>
			<circle style="fill:#F1861E;" cx="168.58" cy="79.367" r="5.295"/>
			<circle style="fill:#F1861E;" cx="178.398" cy="71.833" r="5.5"/>
		</g>
	</g>
	<g>
		<path style="fill:#D41440;" d="M208.202,143.965c-5.871,7.063-16.358,8.032-23.417,2.161c-7.055-5.867-8.019-16.361-2.146-23.42
			c5.864-7.051,16.354-8.015,23.41-2.146C213.108,126.431,214.068,136.915,208.202,143.965z"/>
	</g>
</g>
</svg>
