<?xml version="1.0" encoding="utf-8"?>
<!-- Generator: Adobe Illustrator 16.0.0, SVG Export Plug-In . SVG Version: 6.00 Build 0)  -->
<!DOCTYPE svg PUBLIC "-//W3C//DTD SVG 1.1//EN" "http://www.w3.org/Graphics/SVG/1.1/DTD/svg11.dtd">
<svg version="1.1" id="Layer_1" xmlns="http://www.w3.org/2000/svg" xmlns:xlink="http://www.w3.org/1999/xlink" x="0px" y="0px"
	 width="100px" height="60px" viewBox="0 0 100 60" style="enable-background:new 0 0 100 60;" xml:space="preserve">
<g>
	<g>
		<path style="fill:#FCEE21;" d="M88.332,13.909c2.721,8.051,0.717,15.999-1.314,16.688c-2.029,0.684-1.907-6.63-4.628-14.681
			C79.666,7.865,75.6,1.825,77.63,1.136C79.662,0.453,85.609,5.856,88.332,13.909z"/>
		<path style="opacity:0.2;fill:#BDB319;" d="M85.086,16.289c2.723,8.054,1.396,14.346,1.396,14.346s0.736-6.094-1.984-14.144
			c-2.723-8.052-7.274-14.929-7.274-14.929S82.367,8.238,85.086,16.289z"/>
		<path style="opacity:0.2;fill:#BDB319;" d="M87.653,15.423c2.722,8.053-0.488,15.122-0.488,15.122s2.748-6.914,0.026-14.965
			C84.468,7.528,77.95,1.174,77.95,1.174S84.932,7.372,87.653,15.423z"/>
		<polygon style="fill:#FCEE21;" points="86.071,34.355 84.854,33.122 86.32,29.948 87.493,30.199 		"/>
		<polygon style="opacity:0.2;fill:#BDB319;" points="86.071,34.355 85.742,33.478 87.111,30.268 87.621,30.252 		"/>
		<path style="opacity:0.2;fill:#BDB319;" d="M89.197,16.188c2.647,9.68-1.66,14.235-1.66,14.235s3.245-5.821,1.069-14.037
			C85.015,2.834,77.905,1.045,77.905,1.045S85.152,1.405,89.197,16.188z"/>
	</g>
	<path style="fill:#3C3C3B;" d="M92.631,22.945c0.229,1.004-0.411,1.982-2.087,2.36s-3.223-0.125-3.447-1.13
		c-0.227-0.999,0.948-2.12,2.627-2.5C91.4,21.298,92.405,21.944,92.631,22.945z"/>
	<path style="fill:#3C3C3B;" d="M92.722,18.723c0.421,1.32-0.289,2.557-2.599,3.29c-2.308,0.734-4.521,0.259-4.94-1.063
		c-0.421-1.322,1.112-2.989,3.419-3.725C90.912,16.491,92.303,17.4,92.722,18.723z"/>
	<path style="fill:#3C3C3B;" d="M91.431,13.545c0.669,1.075,0.461,2.459-1.526,3.696c-1.986,1.234-4.144,1.367-4.809,0.298
		c-0.671-1.076,0.399-2.95,2.388-4.188C89.472,12.112,90.763,12.472,91.431,13.545z"/>
	<path style="fill:#3C3C3B;" d="M91.569,27.241c-0.265,0.837-1.27,1.248-2.909,0.728c-1.64-0.516-2.757-1.613-2.491-2.45
		c0.264-0.837,1.806-1.097,3.446-0.579C91.255,25.459,91.833,26.405,91.569,27.241z"/>
	<g>
		<path style="fill:#3C3C3B;" d="M39.365,16.511c-1.011,0.562-1.609,1.61-1.722,2.786c-2.605-2.304-5.829-2.951-8.918-1.839
			c-0.528,0.192-2.691-0.261-3.209,0.034c-0.54,0.308,0.567,1.37,0.049,1.793c-0.232,0.189-1.166-0.529-1.394-0.314
			c-0.527,0.131-0.322,1.207-0.798,1.386c-0.584,0.224-1.94-0.971-2.443-0.678c-0.238,0.137,0.35,1.742,0.127,1.889
			c-7.314,4.792-2.528,17.008,2.929,17.771c-0.555,1.594-0.464,3.272,0.501,5.002c1.928,3.456,5.667,4.215,9.844,3.084
			c0.33-0.091,1.55,0.702,1.55,0.702s0.464-1.37,0.981-1.594c0.348-0.151,1.468,0.283,1.468,0.283s0.317-1.145,0.69-1.352
			c0.275-0.154,1.833,0.588,1.833,0.588s-0.075-1.647,0.31-1.914c0.343-0.237,1.272,0.113,1.272,0.113s0.431-1.471,0.818-1.84
			c3.122-2.96,4.452-6.539,2.543-9.963c-0.965-1.731-2.344-2.692-3.992-3.056c0.277-1.595,0.079-3.338-0.717-5.217
			c0.807,0.182,1.644,0.09,2.379-0.318c1.76-0.984,2.268-3.425,1.136-5.453C43.472,16.374,41.125,15.525,39.365,16.511z"/>
		<g>
			<g>
				<path style="fill:#FFFFFF;" d="M28.707,27.667c0.999,1.79,0.357,4.047-1.43,5.045c-1.787,0.997-4.046,0.358-5.044-1.431
					c-0.999-1.785-0.356-4.046,1.431-5.043C25.452,25.24,27.709,25.881,28.707,27.667z"/>
				<path style="fill:#3C3C3B;" d="M27.195,28.513c0.529,0.954,0.188,2.156-0.762,2.688c-0.954,0.53-2.156,0.189-2.688-0.762
					c-0.53-0.951-0.188-2.154,0.762-2.687C25.46,27.22,26.663,27.561,27.195,28.513z"/>
			</g>
			<g>
				<path style="fill:#FFFFFF;" d="M35.95,23.755c0.869,1.561,0.31,3.535-1.251,4.404c-1.563,0.874-3.535,0.315-4.406-1.246
					c-0.871-1.563-0.311-3.537,1.25-4.408C33.104,21.634,35.078,22.191,35.95,23.755z"/>
				<circle style="fill:#3C3C3B;" cx="33.122" cy="25.333" r="1.725"/>
			</g>
		</g>
		<g>
			<path style="fill:#FFFFFF;" d="M35.613,38.988c3.847-2.147,6.778-4.611,8.093-5.332c-0.01-0.021-0.021-0.043-0.034-0.064
				c-1.664-2.984-6.791-3.294-11.447-0.695c-4.405,2.457-6.813,6.637-5.657,9.607C28.011,41.938,31.812,41.108,35.613,38.988z"/>
			<path style="fill:#FFFFFF;" d="M36.462,40.509c-3.821,2.133-7.71,2.841-9.495,2.763c1.816,2.731,6.771,2.947,11.286,0.427
				c4.199-2.343,6.585-6.256,5.795-9.188C43.025,35.913,40.207,38.417,36.462,40.509z"/>
		</g>
	</g>
	<g>
		<path style="fill:none;" d="M23.391,54.207c-3.493,0.149-4.343,1.1-4.343,1.1s0.52,1.904,0.054,4.039
			c-0.05,0.228-0.12,0.44-0.188,0.654h5.74c0.439-2.312,1.433-3.935,1.433-3.935S26.16,54.088,23.391,54.207z"/>
		<path style="fill:none;" d="M52.816,25.278c-0.043-0.301-0.098-0.604-0.158-0.907c-0.061-0.306-0.127-0.611-0.205-0.919
			c-0.095-0.383-0.204-0.767-0.325-1.151c-0.056-0.178-0.11-0.355-0.172-0.534c-0.18-0.52-0.384-1.041-0.611-1.562
			c-0.056-0.128-0.116-0.255-0.174-0.383c-0.259-0.568-0.538-1.137-0.855-1.706C44.571,7.828,33.471,4.679,23.181,10.421
			c-10.288,5.742-11.067,15.521-5.324,25.812c0.317,0.568,0.653,1.103,1,1.612c0.024,0.035,0.047,0.073,0.071,0.107
			c0.343,0.498,0.702,0.965,1.071,1.407c0.026,0.031,0.051,0.063,0.078,0.095c0.377,0.447,0.768,0.865,1.168,1.258
			c0.015,0.015,0.03,0.029,0.045,0.044c0.413,0.401,0.838,0.775,1.273,1.121c0,0.001,0,0.001,0,0.001
			c5.875,4.677,13.58,4.396,19.171,1.789c7.463-3.48,11.475-9.552,11.264-16.403c0,0,0,0,0,0c-0.012-0.385-0.039-0.773-0.077-1.163
			C52.895,25.827,52.857,25.554,52.816,25.278z"/>
		<path style="fill:#3C3C3B;" d="M83.337,18.269c-0.185-1.088-0.896-2.221-0.896-2.221s-1.361,0.718-2.305,1.081
			c-0.947,0.368-0.908,2.241-2.086,2.432c-2.351,0.383-3.508,2.332-3.508,2.332s-2.749-0.327-4.374,0.209
			c-1.627,0.535-2.534,1.785-2.534,1.785s-1.75-0.262-3.794,0.382c-2.044,0.647-3.786,2.704-3.786,2.704s-2.187-0.662-4.4-0.428
			c-0.185-3.347-1.11-6.701-2.85-9.82C46.678,5.752,32.767,1.805,21.792,7.932c-10.976,6.126-14.92,20.037-8.796,31.013
			c1.103,1.976,2.461,3.72,4.005,5.223c-2.903,1.076-5.696,2.487-6.496,4.578c-1.261,3.299-0.54,5.292-0.54,5.292
			s-2.318,2.029-2.196,5.119C7.782,59.464,7.798,59.74,7.817,60h11.097c0.068-0.214,0.138-0.427,0.188-0.654
			c0.466-2.135-0.054-4.039-0.054-4.039s0.851-0.95,4.343-1.1c2.769-0.119,2.695,1.858,2.695,1.858S25.093,57.688,24.654,60h40.601
			c0.423-1.163,0.775-3.008-0.125-4.966c-1.495-3.255-4.477-3.08-4.477-3.08s1.844-2.789,0.769-5.865
			c-1.073-3.075-4.598-2.775-4.598-2.775l-0.497-2.332c0,0,3.819-1.199,5.245-1.811c1.424-0.608,2.023-2.406,2.023-2.406
			s1.205-0.139,3.722-0.8c2.518-0.663,3.537-2.285,3.537-2.285s0.457,0.24,3.303-0.976c2.85-1.22,3.71-3.13,3.71-3.13
			s1.463-0.068,2.616-0.773c1.117-0.681,4.136-0.659,4.593-1.499c0.333,0.12-0.528-3.262-0.567-3.79
			c1.899,0.239,3.571-0.997,3.548-2.345C88.012,18.671,85.237,18.506,83.337,18.269z M52.998,27.264
			c0.21,6.852-3.801,12.923-11.264,16.403c-5.591,2.607-13.295,2.888-19.171-1.789c0,0,0,0,0-0.001
			c-0.435-0.346-0.86-0.72-1.273-1.121c-0.015-0.015-0.03-0.029-0.045-0.044c-0.401-0.393-0.791-0.811-1.168-1.258
			c-0.026-0.031-0.052-0.063-0.078-0.095c-0.369-0.442-0.728-0.909-1.071-1.407c-0.024-0.034-0.047-0.072-0.071-0.107
			c-0.347-0.51-0.683-1.044-1-1.612c-5.743-10.29-4.964-20.069,5.324-25.812c10.29-5.742,21.391-2.593,27.135,7.694
			c0.317,0.569,0.596,1.138,0.855,1.706c0.059,0.128,0.119,0.255,0.174,0.383c0.227,0.521,0.431,1.043,0.611,1.562
			c0.062,0.179,0.116,0.356,0.172,0.534c0.122,0.385,0.23,0.769,0.325,1.151c0.078,0.308,0.144,0.613,0.205,0.919
			c0.06,0.304,0.114,0.606,0.158,0.907c0.041,0.275,0.078,0.549,0.105,0.822C52.96,26.49,52.987,26.879,52.998,27.264
			C52.999,27.264,52.999,27.264,52.998,27.264z"/>
	</g>
</g>
</svg>
